G04 #@! TF.GenerationSoftware,KiCad,Pcbnew,7.0.9*
G04 #@! TF.CreationDate,2024-02-16T12:23:22+01:00*
G04 #@! TF.ProjectId,USBussy_Current_Probe,55534275-7373-4795-9f43-757272656e74,1.0*
G04 #@! TF.SameCoordinates,Original*
G04 #@! TF.FileFunction,Copper,L4,Bot*
G04 #@! TF.FilePolarity,Positive*
%FSLAX46Y46*%
G04 Gerber Fmt 4.6, Leading zero omitted, Abs format (unit mm)*
G04 Created by KiCad (PCBNEW 7.0.9) date 2024-02-16 12:23:22*
%MOMM*%
%LPD*%
G01*
G04 APERTURE LIST*
G04 #@! TA.AperFunction,ComponentPad*
%ADD10R,1.700000X1.700000*%
G04 #@! TD*
G04 #@! TA.AperFunction,ComponentPad*
%ADD11O,1.700000X1.700000*%
G04 #@! TD*
G04 #@! TA.AperFunction,ComponentPad*
%ADD12C,1.545000*%
G04 #@! TD*
G04 #@! TA.AperFunction,ComponentPad*
%ADD13C,3.570000*%
G04 #@! TD*
G04 #@! TA.AperFunction,ViaPad*
%ADD14C,0.700000*%
G04 #@! TD*
G04 #@! TA.AperFunction,ViaPad*
%ADD15C,0.800000*%
G04 #@! TD*
G04 #@! TA.AperFunction,Conductor*
%ADD16C,0.500000*%
G04 #@! TD*
G04 #@! TA.AperFunction,Conductor*
%ADD17C,0.300000*%
G04 #@! TD*
G04 #@! TA.AperFunction,Conductor*
%ADD18C,0.261112*%
G04 #@! TD*
G04 APERTURE END LIST*
D10*
X36111301Y-66265699D03*
D11*
X33571301Y-66265699D03*
X31031301Y-66265699D03*
D10*
X36111301Y-63725699D03*
D11*
X33571301Y-63725699D03*
X31031301Y-63725699D03*
D10*
X31115000Y-59944000D03*
D11*
X33655000Y-59944000D03*
X36195000Y-59944000D03*
X38735000Y-59944000D03*
D12*
X35108000Y-73888000D03*
X37608000Y-73888000D03*
X39608000Y-73888000D03*
X42108000Y-73888000D03*
D13*
X32038000Y-76598000D03*
X45178000Y-76598000D03*
D10*
X36111301Y-68805699D03*
D11*
X33571301Y-68805699D03*
X31031301Y-68805699D03*
D10*
X58166000Y-64653000D03*
D11*
X60706000Y-64653000D03*
X58166000Y-67193000D03*
X60706000Y-67193000D03*
X58166000Y-69733000D03*
X60706000Y-69733000D03*
X58166000Y-72273000D03*
X60706000Y-72273000D03*
D10*
X42423000Y-62616000D03*
D11*
X42423000Y-60076000D03*
X44963000Y-62616000D03*
X44963000Y-60076000D03*
X47503000Y-62616000D03*
X47503000Y-60076000D03*
X50043000Y-62616000D03*
X50043000Y-60076000D03*
X52583000Y-62616000D03*
X52583000Y-60076000D03*
D14*
X46228215Y-65685861D03*
D15*
X49530000Y-64820800D03*
X47955200Y-68199000D03*
X42849800Y-67741800D03*
X52679600Y-81940400D03*
X51612800Y-81432400D03*
D14*
X46228000Y-66548000D03*
D15*
X46228000Y-72186800D03*
X40055800Y-63677800D03*
X55956200Y-71018400D03*
X32308800Y-65049400D03*
X42900600Y-66014600D03*
X39420800Y-69113400D03*
X51536600Y-75768200D03*
X54127400Y-75285600D03*
X59029600Y-78181200D03*
X53086000Y-68326000D03*
X49479200Y-66954400D03*
X56235600Y-68961000D03*
X57759600Y-73812400D03*
X60198000Y-60528200D03*
X58267600Y-81889600D03*
X47983723Y-72977323D03*
X49784000Y-75234800D03*
X52298600Y-73456800D03*
X54388048Y-69369376D03*
X55996497Y-78232000D03*
X56411490Y-81924608D03*
X54743400Y-81178333D03*
X46705654Y-68247759D03*
X55746600Y-81178333D03*
X45567600Y-68249800D03*
X53975000Y-81915000D03*
X56896000Y-78232000D03*
X54316844Y-73373367D03*
X45085000Y-64414400D03*
X47371000Y-64414400D03*
X50632652Y-74800899D03*
D16*
X49530000Y-64820800D02*
X48843000Y-64133800D01*
D17*
X45460057Y-61276000D02*
X43623000Y-61276000D01*
D16*
X48041478Y-58776000D02*
X43723000Y-58776000D01*
D17*
X46228215Y-65685861D02*
X46228215Y-62044158D01*
D16*
X43723000Y-58776000D02*
X42423000Y-60076000D01*
D17*
X46228215Y-62044158D02*
X45460057Y-61276000D01*
D16*
X48843000Y-59577522D02*
X48041478Y-58776000D01*
X48843000Y-64133800D02*
X48843000Y-59577522D01*
D17*
X43623000Y-61276000D02*
X42423000Y-60076000D01*
X47983723Y-72977323D02*
X47983723Y-73434523D01*
X47983723Y-73434523D02*
X49784000Y-75234800D01*
X52298600Y-73456800D02*
X52298600Y-70539585D01*
X52298600Y-70539585D02*
X55645185Y-67193000D01*
X55645185Y-67193000D02*
X58166000Y-67193000D01*
X54396639Y-74635600D02*
X54391800Y-74635600D01*
X54391800Y-74635600D02*
X53873400Y-74117200D01*
X34772600Y-67604400D02*
X34772600Y-69215000D01*
X53873400Y-73873400D02*
X52698600Y-72698600D01*
X55000000Y-77235503D02*
X55000000Y-76623551D01*
X56957712Y-79512912D02*
X55996497Y-78551697D01*
X54879000Y-75117961D02*
X54396639Y-74635600D01*
X57161490Y-81613947D02*
X56957712Y-81410169D01*
X53873400Y-74117200D02*
X53873400Y-73873400D01*
X53757424Y-70000000D02*
X54388048Y-69369376D01*
X56771392Y-82674608D02*
X57161490Y-82284510D01*
X55996497Y-78551697D02*
X55996497Y-78232000D01*
X52698600Y-72698600D02*
X52698600Y-70705271D01*
X53403871Y-70000000D02*
X53757424Y-70000000D01*
X42441008Y-82674608D02*
X56771392Y-82674608D01*
X34085500Y-69902100D02*
X34085500Y-74319100D01*
X52698600Y-70705271D02*
X53403871Y-70000000D01*
X34085500Y-74319100D02*
X42441008Y-82674608D01*
X34772600Y-69215000D02*
X34085500Y-69902100D01*
X54879000Y-76502551D02*
X54879000Y-75117961D01*
X56957712Y-81410169D02*
X56957712Y-79512912D01*
X55996497Y-78232000D02*
X55000000Y-77235503D01*
X36111301Y-66265699D02*
X34772600Y-67604400D01*
X55000000Y-76623551D02*
X54879000Y-76502551D01*
X57161490Y-82284510D02*
X57161490Y-81613947D01*
D18*
X56477156Y-80875726D02*
X56477156Y-81858942D01*
X56477156Y-81858942D02*
X56411490Y-81924608D01*
X46705654Y-68247759D02*
X47117813Y-68659918D01*
X53907492Y-77176158D02*
X55198112Y-78466778D01*
X50486941Y-73609231D02*
X51126257Y-73609231D01*
X47117813Y-68659918D02*
X47117813Y-70240103D01*
X47117813Y-70240103D02*
X50486941Y-73609231D01*
X53907492Y-76390466D02*
X53907492Y-77176158D01*
X55198112Y-78466778D02*
X55198112Y-79596682D01*
X55198112Y-79596682D02*
X56477156Y-80875726D01*
X51126257Y-73609231D02*
X53907492Y-76390466D01*
X50295943Y-74070343D02*
X50935259Y-74070343D01*
X46653499Y-70427899D02*
X50295943Y-74070343D01*
X46653499Y-69335699D02*
X46653499Y-70427899D01*
X45567600Y-68249800D02*
X46653499Y-69335699D01*
X50935259Y-74070343D02*
X53446380Y-76581464D01*
X53446380Y-81386380D02*
X53975000Y-81915000D01*
X53446380Y-76581464D02*
X53446380Y-81386380D01*
D17*
X56896000Y-78232000D02*
X56896000Y-77953865D01*
X56896000Y-77953865D02*
X55400000Y-76457865D01*
X57561490Y-81448262D02*
X57357712Y-81244484D01*
X57357712Y-78693712D02*
X56896000Y-78232000D01*
X33571301Y-66265699D02*
X32385000Y-67452000D01*
X57561490Y-82450195D02*
X57561490Y-81448262D01*
X55400000Y-74456523D02*
X54316844Y-73373367D01*
X33578800Y-70510400D02*
X33578800Y-74378085D01*
X32385000Y-69316600D02*
X33578800Y-70510400D01*
X32385000Y-67452000D02*
X32385000Y-69316600D01*
X56902886Y-83108800D02*
X57561490Y-82450195D01*
X42309515Y-83108800D02*
X56902886Y-83108800D01*
X57357712Y-81244484D02*
X57357712Y-78693712D01*
X55400000Y-76457865D02*
X55400000Y-74456523D01*
X33578800Y-74378085D02*
X42309515Y-83108800D01*
D18*
X42894156Y-68601844D02*
X37608000Y-73888000D01*
X45085000Y-64414400D02*
X45085000Y-66852800D01*
X43335956Y-68601844D02*
X42894156Y-68601844D01*
X45085000Y-66852800D02*
X43335956Y-68601844D01*
X47371000Y-64414400D02*
X47371000Y-66367452D01*
X43523755Y-69066156D02*
X43086481Y-69066156D01*
X46509896Y-67228556D02*
X45361355Y-67228556D01*
X39608000Y-72544637D02*
X39608000Y-73888000D01*
X45361355Y-67228556D02*
X43523755Y-69066156D01*
X43086481Y-69066156D02*
X39608000Y-72544637D01*
X47371000Y-66367452D02*
X46509896Y-67228556D01*
G04 #@! TA.AperFunction,Conductor*
G36*
X43148651Y-58359185D02*
G01*
X43194406Y-58411989D01*
X43204350Y-58481147D01*
X43175325Y-58544703D01*
X43169293Y-58551181D01*
X42799398Y-58921075D01*
X42738075Y-58954560D01*
X42688933Y-58955282D01*
X42529610Y-58925500D01*
X42316390Y-58925500D01*
X42106802Y-58964679D01*
X42106799Y-58964679D01*
X42106799Y-58964680D01*
X41907982Y-59041701D01*
X41907980Y-59041702D01*
X41726699Y-59153947D01*
X41569127Y-59297593D01*
X41440632Y-59467746D01*
X41345596Y-59658605D01*
X41345596Y-59658607D01*
X41287244Y-59863689D01*
X41276920Y-59975111D01*
X41267571Y-60076000D01*
X41287244Y-60288310D01*
X41330727Y-60441136D01*
X41345596Y-60493392D01*
X41345596Y-60493394D01*
X41440632Y-60684253D01*
X41497125Y-60759061D01*
X41569128Y-60854407D01*
X41726698Y-60998052D01*
X41907981Y-61110298D01*
X42106802Y-61187321D01*
X42279544Y-61219612D01*
X42341823Y-61251279D01*
X42377096Y-61311591D01*
X42374162Y-61381400D01*
X42333953Y-61438540D01*
X42269235Y-61464871D01*
X42256757Y-61465500D01*
X41528143Y-61465500D01*
X41528117Y-61465502D01*
X41503012Y-61468413D01*
X41503008Y-61468415D01*
X41400235Y-61513793D01*
X41320794Y-61593234D01*
X41275415Y-61696006D01*
X41275415Y-61696008D01*
X41272500Y-61721131D01*
X41272500Y-63510856D01*
X41272502Y-63510882D01*
X41275413Y-63535987D01*
X41275415Y-63535991D01*
X41320793Y-63638764D01*
X41320794Y-63638765D01*
X41400235Y-63718206D01*
X41503009Y-63763585D01*
X41528135Y-63766500D01*
X43317864Y-63766499D01*
X43317879Y-63766497D01*
X43317882Y-63766497D01*
X43342987Y-63763586D01*
X43342988Y-63763585D01*
X43342991Y-63763585D01*
X43445765Y-63718206D01*
X43525206Y-63638765D01*
X43570585Y-63535991D01*
X43573500Y-63510865D01*
X43573499Y-62772046D01*
X43593183Y-62705009D01*
X43645987Y-62659254D01*
X43715146Y-62649310D01*
X43778702Y-62678335D01*
X43816476Y-62737113D01*
X43820970Y-62760606D01*
X43827244Y-62828310D01*
X43885596Y-63033392D01*
X43885596Y-63033394D01*
X43980632Y-63224253D01*
X44109127Y-63394406D01*
X44109128Y-63394407D01*
X44266698Y-63538052D01*
X44447981Y-63650298D01*
X44566559Y-63696235D01*
X44621960Y-63738806D01*
X44645551Y-63804573D01*
X44629840Y-63872654D01*
X44603993Y-63904675D01*
X44556818Y-63946468D01*
X44460182Y-64086468D01*
X44399860Y-64245525D01*
X44399859Y-64245530D01*
X44379355Y-64414400D01*
X44399859Y-64583269D01*
X44399860Y-64583274D01*
X44460182Y-64742331D01*
X44556817Y-64882330D01*
X44612170Y-64931367D01*
X44649297Y-64990556D01*
X44653944Y-65024183D01*
X44653944Y-66622889D01*
X44634259Y-66689928D01*
X44617625Y-66710570D01*
X43193726Y-68134469D01*
X43132403Y-68167954D01*
X43106045Y-68170788D01*
X42921852Y-68170788D01*
X42914911Y-68170398D01*
X42902701Y-68169022D01*
X42877855Y-68166222D01*
X42821919Y-68176806D01*
X42765659Y-68185286D01*
X42757885Y-68187684D01*
X42750176Y-68190382D01*
X42699860Y-68216975D01*
X42648593Y-68241663D01*
X42641852Y-68246260D01*
X42635295Y-68251099D01*
X42595058Y-68291336D01*
X42553333Y-68330051D01*
X42547543Y-68337312D01*
X42546856Y-68336764D01*
X42537682Y-68348711D01*
X38055140Y-72831253D01*
X37993817Y-72864738D01*
X37924125Y-72859754D01*
X37922747Y-72859229D01*
X37902898Y-72851540D01*
X37707428Y-72815000D01*
X37508572Y-72815000D01*
X37313102Y-72851540D01*
X37313099Y-72851540D01*
X37313099Y-72851541D01*
X37127676Y-72923373D01*
X37127670Y-72923376D01*
X36958604Y-73028057D01*
X36958602Y-73028059D01*
X36811647Y-73162025D01*
X36691809Y-73320717D01*
X36603175Y-73498716D01*
X36603170Y-73498729D01*
X36548750Y-73689992D01*
X36530403Y-73887999D01*
X36530403Y-73888000D01*
X36548750Y-74086007D01*
X36603170Y-74277270D01*
X36603175Y-74277283D01*
X36691809Y-74455282D01*
X36811647Y-74613974D01*
X36958602Y-74747940D01*
X36958604Y-74747942D01*
X37127670Y-74852623D01*
X37127676Y-74852626D01*
X37127679Y-74852627D01*
X37313102Y-74924460D01*
X37508572Y-74961000D01*
X37508574Y-74961000D01*
X37707426Y-74961000D01*
X37707428Y-74961000D01*
X37902898Y-74924460D01*
X38088326Y-74852625D01*
X38257397Y-74747941D01*
X38404354Y-74613972D01*
X38509046Y-74475336D01*
X38565155Y-74433701D01*
X38634867Y-74429010D01*
X38696049Y-74462752D01*
X38706954Y-74475337D01*
X38811647Y-74613974D01*
X38958602Y-74747940D01*
X38958604Y-74747942D01*
X39127670Y-74852623D01*
X39127676Y-74852626D01*
X39127679Y-74852627D01*
X39313102Y-74924460D01*
X39508572Y-74961000D01*
X39508574Y-74961000D01*
X39707426Y-74961000D01*
X39707428Y-74961000D01*
X39902898Y-74924460D01*
X40088326Y-74852625D01*
X40257397Y-74747941D01*
X40404354Y-74613972D01*
X40524191Y-74455282D01*
X40612829Y-74277273D01*
X40635253Y-74198461D01*
X40672529Y-74139372D01*
X40735839Y-74109814D01*
X40805078Y-74119176D01*
X40858265Y-74164485D01*
X40874292Y-74200305D01*
X40907671Y-74324877D01*
X40907674Y-74324884D01*
X41001773Y-74526681D01*
X41001775Y-74526685D01*
X41048718Y-74593727D01*
X41048719Y-74593727D01*
X41611667Y-74030778D01*
X41618173Y-74062084D01*
X41683305Y-74187783D01*
X41779934Y-74291247D01*
X41900894Y-74364805D01*
X41966395Y-74383157D01*
X41402271Y-74947279D01*
X41469319Y-74994227D01*
X41671115Y-75088325D01*
X41671124Y-75088329D01*
X41886183Y-75145953D01*
X41886194Y-75145955D01*
X42107998Y-75165361D01*
X42108002Y-75165361D01*
X42329805Y-75145955D01*
X42329816Y-75145953D01*
X42544875Y-75088329D01*
X42544884Y-75088325D01*
X42746680Y-74994227D01*
X42746684Y-74994225D01*
X42813727Y-74947280D01*
X42252964Y-74386517D01*
X42378102Y-74332163D01*
X42487919Y-74242820D01*
X42569560Y-74127161D01*
X42603949Y-74030396D01*
X43167280Y-74593727D01*
X43214225Y-74526684D01*
X43214227Y-74526680D01*
X43308325Y-74324884D01*
X43308329Y-74324875D01*
X43365954Y-74109814D01*
X43365955Y-74109805D01*
X43385361Y-73888001D01*
X43385361Y-73887998D01*
X43365955Y-73666194D01*
X43365953Y-73666183D01*
X43308329Y-73451124D01*
X43308325Y-73451115D01*
X43214227Y-73249321D01*
X43214226Y-73249319D01*
X43167279Y-73182272D01*
X43167279Y-73182271D01*
X42604331Y-73745219D01*
X42597827Y-73713916D01*
X42532695Y-73588217D01*
X42436066Y-73484753D01*
X42315106Y-73411195D01*
X42249604Y-73392842D01*
X42813727Y-72828719D01*
X42813727Y-72828718D01*
X42746685Y-72781775D01*
X42746681Y-72781773D01*
X42544884Y-72687674D01*
X42544875Y-72687670D01*
X42329816Y-72630046D01*
X42329805Y-72630044D01*
X42108002Y-72610639D01*
X42107998Y-72610639D01*
X41886194Y-72630044D01*
X41886183Y-72630046D01*
X41671124Y-72687670D01*
X41671115Y-72687674D01*
X41469320Y-72781773D01*
X41402272Y-72828719D01*
X41963035Y-73389482D01*
X41837898Y-73443837D01*
X41728081Y-73533180D01*
X41646440Y-73648839D01*
X41612050Y-73745603D01*
X41048719Y-73182272D01*
X41001773Y-73249320D01*
X40907674Y-73451115D01*
X40907671Y-73451122D01*
X40874292Y-73575694D01*
X40837926Y-73635354D01*
X40775079Y-73665883D01*
X40705704Y-73657588D01*
X40651826Y-73613103D01*
X40635254Y-73577543D01*
X40612829Y-73498727D01*
X40609126Y-73491291D01*
X40556282Y-73385166D01*
X40524191Y-73320718D01*
X40445471Y-73216476D01*
X40404352Y-73162025D01*
X40257398Y-73028060D01*
X40257397Y-73028059D01*
X40167810Y-72972589D01*
X40097778Y-72929227D01*
X40051143Y-72877199D01*
X40039056Y-72823800D01*
X40039056Y-72774548D01*
X40058741Y-72707509D01*
X40075375Y-72686867D01*
X43228711Y-69533531D01*
X43290034Y-69500046D01*
X43316392Y-69497212D01*
X43496067Y-69497212D01*
X43503003Y-69497601D01*
X43534460Y-69501145D01*
X43540054Y-69501776D01*
X43540054Y-69501775D01*
X43540055Y-69501776D01*
X43595978Y-69491195D01*
X43652246Y-69482714D01*
X43652251Y-69482711D01*
X43660069Y-69480299D01*
X43667727Y-69477619D01*
X43667732Y-69477619D01*
X43718056Y-69451021D01*
X43769320Y-69426334D01*
X43769320Y-69426333D01*
X43769324Y-69426332D01*
X43776025Y-69421762D01*
X43782609Y-69416903D01*
X43782616Y-69416900D01*
X43822852Y-69376663D01*
X43864575Y-69337951D01*
X43864576Y-69337948D01*
X43864579Y-69337946D01*
X43870374Y-69330680D01*
X43871067Y-69331233D01*
X43880231Y-69319283D01*
X44718905Y-68480609D01*
X44780226Y-68447126D01*
X44849918Y-68452110D01*
X44905851Y-68493982D01*
X44922525Y-68524319D01*
X44942781Y-68577728D01*
X44942782Y-68577731D01*
X44990914Y-68647461D01*
X45039417Y-68717729D01*
X45119462Y-68788642D01*
X45166750Y-68830536D01*
X45301856Y-68901445D01*
X45317375Y-68909590D01*
X45482544Y-68950300D01*
X45607133Y-68950300D01*
X45674172Y-68969985D01*
X45694814Y-68986619D01*
X46186124Y-69477929D01*
X46219609Y-69539252D01*
X46222443Y-69565610D01*
X46222443Y-70400209D01*
X46222053Y-70407157D01*
X46217878Y-70444197D01*
X46223079Y-70471685D01*
X46228459Y-70500122D01*
X46236941Y-70556390D01*
X46236941Y-70556391D01*
X46236942Y-70556393D01*
X46239352Y-70564206D01*
X46242034Y-70571874D01*
X46251929Y-70590595D01*
X46268633Y-70622200D01*
X46293319Y-70673461D01*
X46297928Y-70680220D01*
X46302754Y-70686760D01*
X46312998Y-70697003D01*
X46342991Y-70726996D01*
X46380385Y-70767297D01*
X46381705Y-70768720D01*
X46388972Y-70774515D01*
X46388419Y-70775207D01*
X46400371Y-70784376D01*
X47745516Y-72129521D01*
X47779001Y-72190844D01*
X47774017Y-72260536D01*
X47732145Y-72316469D01*
X47715462Y-72326998D01*
X47582872Y-72396588D01*
X47455539Y-72509395D01*
X47358905Y-72649391D01*
X47298583Y-72808448D01*
X47298582Y-72808453D01*
X47278078Y-72977323D01*
X47298582Y-73146192D01*
X47298583Y-73146197D01*
X47358905Y-73305254D01*
X47455539Y-73445251D01*
X47507507Y-73491291D01*
X47544633Y-73550481D01*
X47547893Y-73565617D01*
X47548374Y-73568807D01*
X47550890Y-73576965D01*
X47553701Y-73584998D01*
X47581500Y-73637595D01*
X47607299Y-73691167D01*
X47612085Y-73698188D01*
X47617154Y-73705055D01*
X47617157Y-73705061D01*
X47617161Y-73705065D01*
X47659218Y-73747122D01*
X47699670Y-73790719D01*
X47706933Y-73796511D01*
X47706412Y-73797164D01*
X47718653Y-73806557D01*
X48393919Y-74481823D01*
X49043084Y-75130987D01*
X49076569Y-75192310D01*
X49078204Y-75227300D01*
X49078355Y-75227300D01*
X49078355Y-75230531D01*
X49078499Y-75233613D01*
X49078355Y-75234799D01*
X49098859Y-75403669D01*
X49098860Y-75403674D01*
X49159182Y-75562731D01*
X49207213Y-75632314D01*
X49255817Y-75702729D01*
X49326325Y-75765193D01*
X49383150Y-75815536D01*
X49533773Y-75894589D01*
X49533775Y-75894590D01*
X49698944Y-75935300D01*
X49869056Y-75935300D01*
X50034225Y-75894590D01*
X50113692Y-75852881D01*
X50184849Y-75815536D01*
X50184850Y-75815534D01*
X50184852Y-75815534D01*
X50312183Y-75702729D01*
X50408818Y-75562730D01*
X50408818Y-75562729D01*
X50413079Y-75556557D01*
X50414486Y-75557528D01*
X50456636Y-75513953D01*
X50524653Y-75497968D01*
X50547545Y-75501387D01*
X50547577Y-75501394D01*
X50547593Y-75501398D01*
X50547594Y-75501399D01*
X50547596Y-75501399D01*
X50717708Y-75501399D01*
X50882877Y-75460689D01*
X50991513Y-75403672D01*
X51033501Y-75381635D01*
X51033502Y-75381633D01*
X51033504Y-75381633D01*
X51160835Y-75268828D01*
X51224677Y-75176336D01*
X51278959Y-75132348D01*
X51348407Y-75124688D01*
X51410972Y-75155791D01*
X51414407Y-75159097D01*
X52979005Y-76723694D01*
X53012490Y-76785017D01*
X53015324Y-76811375D01*
X53015324Y-80131897D01*
X52995639Y-80198936D01*
X52942835Y-80244691D01*
X52873677Y-80254635D01*
X52810121Y-80225610D01*
X52792949Y-80207385D01*
X52786466Y-80198936D01*
X52765451Y-80171549D01*
X52645233Y-80079302D01*
X52645229Y-80079300D01*
X52581801Y-80053027D01*
X52505236Y-80021313D01*
X52491171Y-80019461D01*
X52392727Y-80006500D01*
X52392720Y-80006500D01*
X52317280Y-80006500D01*
X52317272Y-80006500D01*
X52204764Y-80021313D01*
X52204763Y-80021313D01*
X52064770Y-80079300D01*
X52064767Y-80079301D01*
X52064767Y-80079302D01*
X52012311Y-80119553D01*
X51944549Y-80171549D01*
X51852300Y-80291770D01*
X51794313Y-80431763D01*
X51794312Y-80431765D01*
X51774534Y-80581999D01*
X51774534Y-80582000D01*
X51794312Y-80732234D01*
X51794313Y-80732236D01*
X51846009Y-80857042D01*
X51852302Y-80872233D01*
X51944549Y-80992451D01*
X52064767Y-81084698D01*
X52204764Y-81142687D01*
X52317280Y-81157500D01*
X52317287Y-81157500D01*
X52392713Y-81157500D01*
X52392720Y-81157500D01*
X52505236Y-81142687D01*
X52645233Y-81084698D01*
X52765451Y-80992451D01*
X52792950Y-80956613D01*
X52849376Y-80915413D01*
X52919122Y-80911258D01*
X52980043Y-80945470D01*
X53012795Y-81007188D01*
X53015324Y-81032102D01*
X53015324Y-81358690D01*
X53014934Y-81365638D01*
X53010759Y-81402678D01*
X53016161Y-81431227D01*
X53021340Y-81458603D01*
X53029822Y-81514871D01*
X53029822Y-81514872D01*
X53029823Y-81514874D01*
X53032233Y-81522687D01*
X53034915Y-81530355D01*
X53051960Y-81562604D01*
X53061514Y-81580681D01*
X53086200Y-81631942D01*
X53090809Y-81638701D01*
X53095635Y-81645241D01*
X53115753Y-81665358D01*
X53135872Y-81685477D01*
X53174585Y-81727200D01*
X53174586Y-81727201D01*
X53181853Y-81732996D01*
X53181300Y-81733688D01*
X53193252Y-81742857D01*
X53237061Y-81786666D01*
X53270546Y-81847989D01*
X53272476Y-81889292D01*
X53269355Y-81914998D01*
X53269355Y-81915000D01*
X53290016Y-82085162D01*
X53278555Y-82154085D01*
X53231652Y-82205871D01*
X53166920Y-82224108D01*
X42678973Y-82224108D01*
X42611934Y-82204423D01*
X42591292Y-82187789D01*
X37001503Y-76598000D01*
X43087627Y-76598000D01*
X43107096Y-76882639D01*
X43107097Y-76882641D01*
X43165140Y-77161965D01*
X43165145Y-77161981D01*
X43260685Y-77430805D01*
X43391945Y-77684125D01*
X43391949Y-77684131D01*
X43556468Y-77917202D01*
X43556472Y-77917206D01*
X43556474Y-77917209D01*
X43751209Y-78125720D01*
X43751214Y-78125724D01*
X43751216Y-78125726D01*
X43972516Y-78305767D01*
X43972519Y-78305769D01*
X43972523Y-78305772D01*
X44096436Y-78381125D01*
X44216293Y-78454012D01*
X44421704Y-78543234D01*
X44477977Y-78567677D01*
X44752701Y-78644651D01*
X45001192Y-78678805D01*
X45035347Y-78683500D01*
X45035348Y-78683500D01*
X45320653Y-78683500D01*
X45351125Y-78679311D01*
X45603299Y-78644651D01*
X45878023Y-78567677D01*
X46139708Y-78454011D01*
X46383477Y-78305772D01*
X46604791Y-78125720D01*
X46799526Y-77917209D01*
X46808801Y-77904070D01*
X46964050Y-77684131D01*
X46964054Y-77684125D01*
X46964055Y-77684124D01*
X47095314Y-77430807D01*
X47190856Y-77161976D01*
X47190856Y-77161971D01*
X47190859Y-77161965D01*
X47225012Y-76997609D01*
X47248903Y-76882639D01*
X47268373Y-76598000D01*
X47248903Y-76313361D01*
X47211134Y-76131605D01*
X47190859Y-76034034D01*
X47190854Y-76034018D01*
X47095314Y-75765194D01*
X47095314Y-75765193D01*
X46964055Y-75511876D01*
X46964054Y-75511874D01*
X46964050Y-75511868D01*
X46799531Y-75278797D01*
X46799527Y-75278793D01*
X46799526Y-75278791D01*
X46604791Y-75070280D01*
X46604784Y-75070275D01*
X46604783Y-75070273D01*
X46383483Y-74890232D01*
X46383472Y-74890225D01*
X46139706Y-74741987D01*
X45878024Y-74628323D01*
X45603304Y-74551350D01*
X45603300Y-74551349D01*
X45603299Y-74551349D01*
X45437475Y-74528557D01*
X45320653Y-74512500D01*
X45320652Y-74512500D01*
X45035348Y-74512500D01*
X45035347Y-74512500D01*
X44752701Y-74551349D01*
X44752695Y-74551350D01*
X44477975Y-74628323D01*
X44216293Y-74741987D01*
X43972527Y-74890225D01*
X43972516Y-74890232D01*
X43751216Y-75070273D01*
X43751210Y-75070278D01*
X43751209Y-75070280D01*
X43700396Y-75124688D01*
X43556468Y-75278797D01*
X43391949Y-75511868D01*
X43391945Y-75511874D01*
X43260685Y-75765194D01*
X43165145Y-76034018D01*
X43165140Y-76034034D01*
X43107097Y-76313358D01*
X43107096Y-76313360D01*
X43087627Y-76598000D01*
X37001503Y-76598000D01*
X35483450Y-75079947D01*
X35449965Y-75018624D01*
X35454949Y-74948932D01*
X35496821Y-74892999D01*
X35526336Y-74876639D01*
X35588326Y-74852625D01*
X35757397Y-74747941D01*
X35904354Y-74613972D01*
X36024191Y-74455282D01*
X36112829Y-74277273D01*
X36167249Y-74086008D01*
X36185597Y-73888000D01*
X36176582Y-73790717D01*
X36167249Y-73689992D01*
X36155540Y-73648839D01*
X36112829Y-73498727D01*
X36109126Y-73491291D01*
X36056282Y-73385166D01*
X36024191Y-73320718D01*
X35945471Y-73216476D01*
X35904352Y-73162025D01*
X35757397Y-73028059D01*
X35757395Y-73028057D01*
X35588329Y-72923376D01*
X35588323Y-72923373D01*
X35424101Y-72859754D01*
X35402898Y-72851540D01*
X35207428Y-72815000D01*
X35008572Y-72815000D01*
X34813102Y-72851540D01*
X34813097Y-72851541D01*
X34704793Y-72893498D01*
X34635170Y-72899360D01*
X34573430Y-72866650D01*
X34539175Y-72805753D01*
X34536000Y-72777871D01*
X34536000Y-70140064D01*
X34555685Y-70073025D01*
X34572315Y-70052387D01*
X34816973Y-69807728D01*
X34878294Y-69774245D01*
X34947985Y-69779229D01*
X35003919Y-69821100D01*
X35006953Y-69825336D01*
X35009093Y-69828461D01*
X35009095Y-69828464D01*
X35088536Y-69907905D01*
X35191310Y-69953284D01*
X35216436Y-69956199D01*
X37006165Y-69956198D01*
X37006180Y-69956196D01*
X37006183Y-69956196D01*
X37031288Y-69953285D01*
X37031289Y-69953284D01*
X37031292Y-69953284D01*
X37134066Y-69907905D01*
X37213507Y-69828464D01*
X37258886Y-69725690D01*
X37261801Y-69700564D01*
X37261800Y-67910835D01*
X37258992Y-67886619D01*
X37258887Y-67885711D01*
X37258886Y-67885709D01*
X37258886Y-67885708D01*
X37213507Y-67782934D01*
X37134066Y-67703493D01*
X37031294Y-67658114D01*
X37022294Y-67655666D01*
X37023118Y-67652633D01*
X36973503Y-67631588D01*
X36934143Y-67573860D01*
X36932241Y-67504016D01*
X36968401Y-67444231D01*
X37022790Y-67417579D01*
X37022288Y-67415734D01*
X37031285Y-67413284D01*
X37031292Y-67413284D01*
X37134066Y-67367905D01*
X37213507Y-67288464D01*
X37258886Y-67185690D01*
X37261801Y-67160564D01*
X37261800Y-65370835D01*
X37261798Y-65370816D01*
X37258887Y-65345711D01*
X37258886Y-65345709D01*
X37258886Y-65345708D01*
X37213507Y-65242934D01*
X37134066Y-65163493D01*
X37113425Y-65154379D01*
X37031294Y-65118114D01*
X37022294Y-65115666D01*
X37023118Y-65112633D01*
X36973503Y-65091588D01*
X36934143Y-65033860D01*
X36932241Y-64964016D01*
X36968401Y-64904231D01*
X37022790Y-64877579D01*
X37022288Y-64875734D01*
X37031285Y-64873284D01*
X37031292Y-64873284D01*
X37134066Y-64827905D01*
X37213507Y-64748464D01*
X37258886Y-64645690D01*
X37261801Y-64620564D01*
X37261800Y-62830835D01*
X37261221Y-62825844D01*
X37258887Y-62805711D01*
X37258886Y-62805709D01*
X37258886Y-62805708D01*
X37213507Y-62702934D01*
X37134066Y-62623493D01*
X37113425Y-62614379D01*
X37031293Y-62578114D01*
X37006166Y-62575199D01*
X35216444Y-62575199D01*
X35216418Y-62575201D01*
X35191313Y-62578112D01*
X35191309Y-62578114D01*
X35088536Y-62623492D01*
X35009095Y-62702933D01*
X34963716Y-62805705D01*
X34963716Y-62805707D01*
X34960801Y-62830830D01*
X34960801Y-63569650D01*
X34941116Y-63636689D01*
X34888312Y-63682444D01*
X34819154Y-63692388D01*
X34755598Y-63663363D01*
X34717824Y-63604585D01*
X34713330Y-63581090D01*
X34709151Y-63535993D01*
X34707057Y-63513389D01*
X34706336Y-63510856D01*
X34673203Y-63394407D01*
X34648706Y-63308310D01*
X34648704Y-63308305D01*
X34648704Y-63308304D01*
X34553668Y-63117445D01*
X34425173Y-62947292D01*
X34297434Y-62830842D01*
X34267603Y-62803647D01*
X34086320Y-62691401D01*
X34086318Y-62691400D01*
X33977670Y-62649310D01*
X33887499Y-62614378D01*
X33677911Y-62575199D01*
X33464691Y-62575199D01*
X33255103Y-62614378D01*
X33255100Y-62614378D01*
X33255100Y-62614379D01*
X33056283Y-62691400D01*
X33056281Y-62691401D01*
X32875000Y-62803646D01*
X32717428Y-62947292D01*
X32588933Y-63117445D01*
X32493897Y-63308304D01*
X32493897Y-63308306D01*
X32435545Y-63513388D01*
X32424772Y-63629650D01*
X32398986Y-63694587D01*
X32354431Y-63726503D01*
X32390804Y-63747367D01*
X32422994Y-63809380D01*
X32424771Y-63821746D01*
X32435545Y-63938009D01*
X32487171Y-64119454D01*
X32493897Y-64143091D01*
X32493897Y-64143093D01*
X32588933Y-64333952D01*
X32708942Y-64492868D01*
X32717429Y-64504106D01*
X32874999Y-64647751D01*
X33056282Y-64759997D01*
X33255103Y-64837020D01*
X33451914Y-64873810D01*
X33514194Y-64905478D01*
X33549467Y-64965791D01*
X33546533Y-65035599D01*
X33506324Y-65092739D01*
X33451914Y-65117587D01*
X33255103Y-65154378D01*
X33255100Y-65154378D01*
X33255100Y-65154379D01*
X33056283Y-65231400D01*
X33056281Y-65231401D01*
X32875000Y-65343646D01*
X32717428Y-65487292D01*
X32588933Y-65657445D01*
X32493897Y-65848304D01*
X32493897Y-65848306D01*
X32435545Y-66053388D01*
X32424772Y-66169650D01*
X32398986Y-66234587D01*
X32354431Y-66266503D01*
X32390804Y-66287367D01*
X32422994Y-66349380D01*
X32424772Y-66361747D01*
X32435545Y-66478011D01*
X32479028Y-66630837D01*
X32478442Y-66700704D01*
X32447443Y-66752452D01*
X32241465Y-66958430D01*
X32180142Y-66991915D01*
X32110450Y-66986931D01*
X32054517Y-66945059D01*
X32030100Y-66879595D01*
X32042783Y-66815479D01*
X32108706Y-66683088D01*
X32167057Y-66478009D01*
X32177830Y-66361746D01*
X32203616Y-66296810D01*
X32248170Y-66264893D01*
X32211798Y-66244030D01*
X32179608Y-66182017D01*
X32177830Y-66169650D01*
X32173330Y-66121086D01*
X32167057Y-66053389D01*
X32108706Y-65848310D01*
X32108704Y-65848305D01*
X32108704Y-65848304D01*
X32013668Y-65657445D01*
X31885173Y-65487292D01*
X31806443Y-65415520D01*
X31727603Y-65343647D01*
X31546320Y-65231401D01*
X31546318Y-65231400D01*
X31441738Y-65190886D01*
X31347499Y-65154378D01*
X31150686Y-65117587D01*
X31088407Y-65085920D01*
X31053134Y-65025607D01*
X31056068Y-64955799D01*
X31096277Y-64898659D01*
X31150685Y-64873810D01*
X31347499Y-64837020D01*
X31546320Y-64759997D01*
X31727603Y-64647751D01*
X31885173Y-64504106D01*
X32013667Y-64333954D01*
X32026634Y-64307913D01*
X32108704Y-64143093D01*
X32108704Y-64143092D01*
X32108706Y-64143088D01*
X32167057Y-63938009D01*
X32177830Y-63821746D01*
X32203616Y-63756810D01*
X32248170Y-63724893D01*
X32211798Y-63704030D01*
X32179608Y-63642017D01*
X32177830Y-63629650D01*
X32174855Y-63597542D01*
X32167057Y-63513389D01*
X32108706Y-63308310D01*
X32108704Y-63308305D01*
X32108704Y-63308304D01*
X32013668Y-63117445D01*
X31885173Y-62947292D01*
X31757434Y-62830842D01*
X31727603Y-62803647D01*
X31546320Y-62691401D01*
X31546318Y-62691400D01*
X31437670Y-62649310D01*
X31347499Y-62614378D01*
X31137911Y-62575199D01*
X30924691Y-62575199D01*
X30715103Y-62614378D01*
X30715100Y-62614378D01*
X30715100Y-62614379D01*
X30516283Y-62691400D01*
X30516281Y-62691401D01*
X30335000Y-62803646D01*
X30177428Y-62947292D01*
X30048933Y-63117445D01*
X29953897Y-63308304D01*
X29953897Y-63308306D01*
X29895545Y-63513388D01*
X29883928Y-63638764D01*
X29875872Y-63725699D01*
X29895545Y-63938009D01*
X29947171Y-64119454D01*
X29953897Y-64143091D01*
X29953897Y-64143093D01*
X30048933Y-64333952D01*
X30168942Y-64492868D01*
X30177429Y-64504106D01*
X30334999Y-64647751D01*
X30516282Y-64759997D01*
X30715103Y-64837020D01*
X30911914Y-64873810D01*
X30974194Y-64905478D01*
X31009467Y-64965791D01*
X31006533Y-65035599D01*
X30966324Y-65092739D01*
X30911914Y-65117587D01*
X30715103Y-65154378D01*
X30715100Y-65154378D01*
X30715100Y-65154379D01*
X30516283Y-65231400D01*
X30516281Y-65231401D01*
X30335000Y-65343646D01*
X30177428Y-65487292D01*
X30048933Y-65657445D01*
X29953897Y-65848304D01*
X29953897Y-65848306D01*
X29895545Y-66053388D01*
X29879881Y-66222439D01*
X29875872Y-66265699D01*
X29895545Y-66478009D01*
X29948452Y-66663956D01*
X29953897Y-66683091D01*
X29953897Y-66683093D01*
X30048933Y-66873952D01*
X30129539Y-66980690D01*
X30177429Y-67044106D01*
X30334999Y-67187751D01*
X30516282Y-67299997D01*
X30715103Y-67377020D01*
X30911914Y-67413810D01*
X30974194Y-67445478D01*
X31009467Y-67505791D01*
X31006533Y-67575599D01*
X30966324Y-67632739D01*
X30911914Y-67657587D01*
X30715103Y-67694378D01*
X30715100Y-67694378D01*
X30715100Y-67694379D01*
X30516283Y-67771400D01*
X30516281Y-67771401D01*
X30335000Y-67883646D01*
X30177428Y-68027292D01*
X30048933Y-68197445D01*
X29953897Y-68388304D01*
X29953897Y-68388306D01*
X29895545Y-68593388D01*
X29875872Y-68805698D01*
X29875872Y-68805699D01*
X29895545Y-69018009D01*
X29953897Y-69223091D01*
X29953897Y-69223093D01*
X30048933Y-69413952D01*
X30163461Y-69565610D01*
X30177429Y-69584106D01*
X30334999Y-69727751D01*
X30516282Y-69839997D01*
X30715103Y-69917020D01*
X30924691Y-69956199D01*
X30924693Y-69956199D01*
X31137909Y-69956199D01*
X31137911Y-69956199D01*
X31347499Y-69917020D01*
X31546320Y-69839997D01*
X31727603Y-69727751D01*
X31865801Y-69601766D01*
X31928603Y-69571150D01*
X31997990Y-69579347D01*
X32037019Y-69605723D01*
X32060495Y-69629199D01*
X32100947Y-69672796D01*
X32108210Y-69678588D01*
X32107689Y-69679241D01*
X32119930Y-69688634D01*
X33091981Y-70660684D01*
X33125466Y-70722007D01*
X33128300Y-70748365D01*
X33128300Y-74349302D01*
X33127910Y-74356240D01*
X33126946Y-74364805D01*
X33123529Y-74395119D01*
X33134588Y-74453564D01*
X33143452Y-74512375D01*
X33145962Y-74520512D01*
X33148778Y-74528560D01*
X33176536Y-74581079D01*
X33177535Y-74583147D01*
X33188986Y-74652072D01*
X33161355Y-74716246D01*
X33103415Y-74755294D01*
X33033562Y-74756819D01*
X33003472Y-74743918D01*
X33003464Y-74743935D01*
X33003240Y-74743819D01*
X33001472Y-74743061D01*
X32999709Y-74741989D01*
X32999707Y-74741988D01*
X32738024Y-74628323D01*
X32463304Y-74551350D01*
X32463300Y-74551349D01*
X32463299Y-74551349D01*
X32297475Y-74528557D01*
X32180653Y-74512500D01*
X32180652Y-74512500D01*
X31895348Y-74512500D01*
X31895347Y-74512500D01*
X31612701Y-74551349D01*
X31612695Y-74551350D01*
X31337975Y-74628323D01*
X31076293Y-74741987D01*
X30832527Y-74890225D01*
X30832516Y-74890232D01*
X30611216Y-75070273D01*
X30611210Y-75070278D01*
X30611209Y-75070280D01*
X30560396Y-75124688D01*
X30416468Y-75278797D01*
X30251949Y-75511868D01*
X30251945Y-75511874D01*
X30120685Y-75765194D01*
X30025145Y-76034018D01*
X30025140Y-76034034D01*
X29967097Y-76313358D01*
X29967096Y-76313360D01*
X29947627Y-76598000D01*
X29967096Y-76882639D01*
X29967097Y-76882641D01*
X30025140Y-77161965D01*
X30025145Y-77161981D01*
X30120685Y-77430805D01*
X30251945Y-77684125D01*
X30251949Y-77684131D01*
X30416468Y-77917202D01*
X30416472Y-77917206D01*
X30416474Y-77917209D01*
X30611209Y-78125720D01*
X30611214Y-78125724D01*
X30611216Y-78125726D01*
X30832516Y-78305767D01*
X30832519Y-78305769D01*
X30832523Y-78305772D01*
X30956436Y-78381125D01*
X31076293Y-78454012D01*
X31281704Y-78543234D01*
X31337977Y-78567677D01*
X31612701Y-78644651D01*
X31861192Y-78678805D01*
X31895347Y-78683500D01*
X31895348Y-78683500D01*
X32180653Y-78683500D01*
X32211125Y-78679311D01*
X32463299Y-78644651D01*
X32738023Y-78567677D01*
X32999708Y-78454011D01*
X33243477Y-78305772D01*
X33464791Y-78125720D01*
X33659526Y-77917209D01*
X33668801Y-77904070D01*
X33824050Y-77684131D01*
X33824054Y-77684125D01*
X33824055Y-77684124D01*
X33955314Y-77430807D01*
X34050856Y-77161976D01*
X34050856Y-77161971D01*
X34050859Y-77161965D01*
X34085012Y-76997609D01*
X34108903Y-76882639D01*
X34128373Y-76598000D01*
X34108903Y-76313361D01*
X34071134Y-76131605D01*
X34050859Y-76034034D01*
X34050854Y-76034018D01*
X33955314Y-75765192D01*
X33955313Y-75765190D01*
X33921997Y-75700894D01*
X33908631Y-75632314D01*
X33934464Y-75567396D01*
X33991294Y-75526749D01*
X34061078Y-75523280D01*
X34119775Y-75556164D01*
X41970605Y-83406993D01*
X41975241Y-83412180D01*
X41999636Y-83442770D01*
X41999636Y-83442771D01*
X42048786Y-83476280D01*
X42096633Y-83511593D01*
X42104169Y-83515576D01*
X42111834Y-83519267D01*
X42111842Y-83519272D01*
X42168692Y-83536807D01*
X42224812Y-83556445D01*
X42224814Y-83556445D01*
X42224816Y-83556446D01*
X42224817Y-83556446D01*
X42233213Y-83558034D01*
X42241610Y-83559300D01*
X42241613Y-83559300D01*
X42301074Y-83559300D01*
X42360524Y-83561525D01*
X42360524Y-83561524D01*
X42360525Y-83561525D01*
X42360525Y-83561524D01*
X42369757Y-83560485D01*
X42369850Y-83561313D01*
X42385154Y-83559300D01*
X56874103Y-83559300D01*
X56881041Y-83559689D01*
X56912936Y-83563283D01*
X56919920Y-83564070D01*
X56919920Y-83564069D01*
X56919921Y-83564070D01*
X56978365Y-83553011D01*
X57037173Y-83544148D01*
X57037176Y-83544146D01*
X57045331Y-83541631D01*
X57053353Y-83538823D01*
X57053358Y-83538823D01*
X57105949Y-83511026D01*
X57159528Y-83485225D01*
X57159530Y-83485222D01*
X57159532Y-83485222D01*
X57166543Y-83480442D01*
X57173416Y-83475368D01*
X57173424Y-83475365D01*
X57215471Y-83433317D01*
X57259080Y-83392855D01*
X57259084Y-83392847D01*
X57264877Y-83385585D01*
X57265533Y-83386108D01*
X57274920Y-83373867D01*
X57859695Y-82789091D01*
X57864863Y-82784472D01*
X57895460Y-82760074D01*
X57928970Y-82710923D01*
X57964283Y-82663077D01*
X57964284Y-82663074D01*
X57968277Y-82655519D01*
X57971960Y-82647871D01*
X57971960Y-82647870D01*
X57971962Y-82647868D01*
X57989497Y-82591017D01*
X58009136Y-82534894D01*
X58010722Y-82526506D01*
X58011990Y-82518099D01*
X58011990Y-82458621D01*
X58014214Y-82399187D01*
X58013174Y-82389956D01*
X58014003Y-82389862D01*
X58011990Y-82374561D01*
X58011990Y-81477043D01*
X58012379Y-81470106D01*
X58016760Y-81431227D01*
X58005700Y-81372773D01*
X57996838Y-81313975D01*
X57995453Y-81304785D01*
X57997909Y-81304414D01*
X57997146Y-81248183D01*
X58034119Y-81188898D01*
X58097275Y-81159013D01*
X58116586Y-81157500D01*
X58172713Y-81157500D01*
X58172720Y-81157500D01*
X58285236Y-81142687D01*
X58425233Y-81084698D01*
X58545451Y-80992451D01*
X58637698Y-80872233D01*
X58695687Y-80732236D01*
X58715466Y-80582000D01*
X58695687Y-80431764D01*
X58637698Y-80291767D01*
X58545451Y-80171549D01*
X58425233Y-80079302D01*
X58425229Y-80079300D01*
X58361801Y-80053027D01*
X58285236Y-80021313D01*
X58271171Y-80019461D01*
X58172727Y-80006500D01*
X58172720Y-80006500D01*
X58097280Y-80006500D01*
X58097272Y-80006500D01*
X57984764Y-80021313D01*
X57984760Y-80021314D01*
X57979662Y-80023426D01*
X57910192Y-80030893D01*
X57847714Y-79999617D01*
X57812063Y-79939527D01*
X57808212Y-79908864D01*
X57808212Y-78722494D01*
X57808601Y-78715555D01*
X57812982Y-78676677D01*
X57801923Y-78618232D01*
X57793060Y-78559425D01*
X57793059Y-78559423D01*
X57790548Y-78551283D01*
X57787736Y-78543245D01*
X57787735Y-78543240D01*
X57759938Y-78490648D01*
X57734137Y-78437070D01*
X57734134Y-78437067D01*
X57734133Y-78437064D01*
X57729354Y-78430054D01*
X57724280Y-78423181D01*
X57724277Y-78423174D01*
X57682228Y-78381125D01*
X57641767Y-78337518D01*
X57635446Y-78330705D01*
X57637940Y-78328390D01*
X57607488Y-78284990D01*
X57602800Y-78239502D01*
X57601645Y-78239502D01*
X57601645Y-78232001D01*
X57581140Y-78063130D01*
X57581139Y-78063125D01*
X57520817Y-77904068D01*
X57486476Y-77854318D01*
X57424183Y-77764071D01*
X57296852Y-77651266D01*
X57296849Y-77651263D01*
X57173927Y-77586749D01*
X57143872Y-77564634D01*
X55886819Y-76307581D01*
X55853334Y-76246258D01*
X55850500Y-76219900D01*
X55850500Y-74485304D01*
X55850889Y-74478367D01*
X55855270Y-74439488D01*
X55844210Y-74381031D01*
X55835348Y-74322236D01*
X55835347Y-74322234D01*
X55835347Y-74322232D01*
X55832829Y-74314068D01*
X55830024Y-74306055D01*
X55830024Y-74306051D01*
X55802216Y-74253438D01*
X55776425Y-74199881D01*
X55771620Y-74192833D01*
X55766567Y-74185988D01*
X55766566Y-74185985D01*
X55724504Y-74143923D01*
X55684055Y-74100329D01*
X55684054Y-74100328D01*
X55684053Y-74100327D01*
X55676790Y-74094535D01*
X55677310Y-74093882D01*
X55665070Y-74084489D01*
X55057760Y-73477179D01*
X55024275Y-73415856D01*
X55022641Y-73380869D01*
X55022489Y-73380869D01*
X55022489Y-73377610D01*
X55022346Y-73374548D01*
X55022489Y-73373370D01*
X55022489Y-73373368D01*
X55022444Y-73373000D01*
X55001984Y-73204495D01*
X55001095Y-73202152D01*
X54943926Y-73051407D01*
X54941662Y-73045437D01*
X54929667Y-73028060D01*
X54876185Y-72950578D01*
X54845027Y-72905438D01*
X54735548Y-72808448D01*
X54717693Y-72792630D01*
X54567070Y-72713577D01*
X54401900Y-72672867D01*
X54231788Y-72672867D01*
X54066617Y-72713577D01*
X53915994Y-72792630D01*
X53788660Y-72905438D01*
X53772673Y-72928600D01*
X53718389Y-72972589D01*
X53648940Y-72980247D01*
X53586376Y-72949143D01*
X53582943Y-72945839D01*
X53185419Y-72548315D01*
X53151934Y-72486992D01*
X53149100Y-72460634D01*
X53149100Y-70943236D01*
X53168785Y-70876197D01*
X53185419Y-70855555D01*
X53554155Y-70486819D01*
X53615478Y-70453334D01*
X53641836Y-70450500D01*
X53728641Y-70450500D01*
X53735579Y-70450889D01*
X53767474Y-70454483D01*
X53774458Y-70455270D01*
X53774458Y-70455269D01*
X53774459Y-70455270D01*
X53832903Y-70444211D01*
X53891711Y-70435348D01*
X53891714Y-70435346D01*
X53899871Y-70432830D01*
X53907893Y-70430023D01*
X53907896Y-70430023D01*
X53960496Y-70402222D01*
X54014066Y-70376425D01*
X54014066Y-70376424D01*
X54014068Y-70376424D01*
X54021119Y-70371616D01*
X54027962Y-70366566D01*
X54070023Y-70324504D01*
X54113618Y-70284055D01*
X54113620Y-70284050D01*
X54119411Y-70276790D01*
X54120067Y-70277313D01*
X54129453Y-70265073D01*
X54288334Y-70106193D01*
X54349657Y-70072710D01*
X54376014Y-70069876D01*
X54473104Y-70069876D01*
X54638273Y-70029166D01*
X54777299Y-69956199D01*
X54788897Y-69950112D01*
X54788898Y-69950110D01*
X54788900Y-69950110D01*
X54916231Y-69837305D01*
X55012866Y-69697306D01*
X55073188Y-69538248D01*
X55093693Y-69369376D01*
X55073188Y-69200504D01*
X55012866Y-69041446D01*
X54996688Y-69018009D01*
X54949155Y-68949145D01*
X54916231Y-68901447D01*
X54916229Y-68901445D01*
X54833279Y-68827957D01*
X54796152Y-68768768D01*
X54796920Y-68698902D01*
X54827823Y-68647463D01*
X55795469Y-67679819D01*
X55856792Y-67646334D01*
X55883150Y-67643500D01*
X57028305Y-67643500D01*
X57095344Y-67663185D01*
X57139303Y-67712225D01*
X57183634Y-67801255D01*
X57312128Y-67971407D01*
X57469698Y-68115052D01*
X57650981Y-68227298D01*
X57849802Y-68304321D01*
X58046613Y-68341111D01*
X58108893Y-68372779D01*
X58144166Y-68433092D01*
X58141232Y-68502900D01*
X58101023Y-68560040D01*
X58046613Y-68584888D01*
X57849802Y-68621679D01*
X57849799Y-68621679D01*
X57849799Y-68621680D01*
X57650982Y-68698701D01*
X57650980Y-68698702D01*
X57469699Y-68810947D01*
X57312127Y-68954593D01*
X57183632Y-69124746D01*
X57088596Y-69315605D01*
X57088596Y-69315607D01*
X57030244Y-69520689D01*
X57013577Y-69700564D01*
X57010571Y-69733000D01*
X57030244Y-69945310D01*
X57056204Y-70036550D01*
X57088596Y-70150392D01*
X57088596Y-70150394D01*
X57183632Y-70341253D01*
X57282131Y-70471685D01*
X57312128Y-70511407D01*
X57469698Y-70655052D01*
X57650981Y-70767298D01*
X57849802Y-70844321D01*
X58046613Y-70881111D01*
X58108893Y-70912779D01*
X58144166Y-70973092D01*
X58141232Y-71042900D01*
X58101023Y-71100040D01*
X58046613Y-71124888D01*
X57849802Y-71161679D01*
X57849799Y-71161679D01*
X57849799Y-71161680D01*
X57650982Y-71238701D01*
X57650980Y-71238702D01*
X57469699Y-71350947D01*
X57312127Y-71494593D01*
X57183632Y-71664746D01*
X57088596Y-71855605D01*
X57088596Y-71855607D01*
X57088595Y-71855611D01*
X57030244Y-72060690D01*
X57010571Y-72273000D01*
X57030244Y-72485310D01*
X57087821Y-72687670D01*
X57088596Y-72690392D01*
X57088596Y-72690394D01*
X57183632Y-72881253D01*
X57312127Y-73051406D01*
X57312128Y-73051407D01*
X57469698Y-73195052D01*
X57650981Y-73307298D01*
X57849802Y-73384321D01*
X58059390Y-73423500D01*
X58059392Y-73423500D01*
X58272608Y-73423500D01*
X58272610Y-73423500D01*
X58482198Y-73384321D01*
X58681019Y-73307298D01*
X58862302Y-73195052D01*
X59019872Y-73051407D01*
X59148366Y-72881255D01*
X59215325Y-72746781D01*
X59262825Y-72695548D01*
X59330488Y-72678126D01*
X59396828Y-72700051D01*
X59438705Y-72749651D01*
X59532399Y-72950578D01*
X59667894Y-73144082D01*
X59834917Y-73311105D01*
X60028421Y-73446600D01*
X60242507Y-73546429D01*
X60242516Y-73546433D01*
X60456000Y-73603634D01*
X60456000Y-72708501D01*
X60563685Y-72757680D01*
X60670237Y-72773000D01*
X60741763Y-72773000D01*
X60848315Y-72757680D01*
X60956000Y-72708501D01*
X60956000Y-73603633D01*
X61169483Y-73546433D01*
X61169492Y-73546429D01*
X61383578Y-73446600D01*
X61577082Y-73311105D01*
X61744105Y-73144082D01*
X61879600Y-72950578D01*
X61979429Y-72736492D01*
X61979432Y-72736486D01*
X62036636Y-72523000D01*
X61139686Y-72523000D01*
X61165493Y-72482844D01*
X61206000Y-72344889D01*
X61206000Y-72201111D01*
X61165493Y-72063156D01*
X61139686Y-72023000D01*
X62036636Y-72023000D01*
X62036635Y-72022999D01*
X61979432Y-71809513D01*
X61979429Y-71809507D01*
X61879600Y-71595422D01*
X61879599Y-71595420D01*
X61744113Y-71401926D01*
X61744108Y-71401920D01*
X61577082Y-71234894D01*
X61390968Y-71104575D01*
X61347344Y-71049998D01*
X61340151Y-70980499D01*
X61371673Y-70918145D01*
X61390968Y-70901425D01*
X61577082Y-70771105D01*
X61744105Y-70604082D01*
X61879600Y-70410578D01*
X61979429Y-70196492D01*
X61979432Y-70196486D01*
X62036636Y-69983000D01*
X61139686Y-69983000D01*
X61165493Y-69942844D01*
X61206000Y-69804889D01*
X61206000Y-69661111D01*
X61165493Y-69523156D01*
X61139686Y-69483000D01*
X62036636Y-69483000D01*
X62036635Y-69482999D01*
X61979432Y-69269513D01*
X61979429Y-69269507D01*
X61879600Y-69055422D01*
X61879599Y-69055420D01*
X61744113Y-68861926D01*
X61744108Y-68861920D01*
X61577082Y-68694894D01*
X61390968Y-68564575D01*
X61347344Y-68509998D01*
X61340151Y-68440499D01*
X61371673Y-68378145D01*
X61390968Y-68361425D01*
X61577082Y-68231105D01*
X61744105Y-68064082D01*
X61879600Y-67870578D01*
X61979429Y-67656492D01*
X61979432Y-67656486D01*
X62036636Y-67443000D01*
X61139686Y-67443000D01*
X61165493Y-67402844D01*
X61206000Y-67264889D01*
X61206000Y-67121111D01*
X61165493Y-66983156D01*
X61139686Y-66943000D01*
X62036636Y-66943000D01*
X62036635Y-66942999D01*
X61979432Y-66729513D01*
X61979429Y-66729507D01*
X61879600Y-66515422D01*
X61879599Y-66515420D01*
X61744113Y-66321926D01*
X61744108Y-66321920D01*
X61577082Y-66154894D01*
X61390968Y-66024575D01*
X61347344Y-65969998D01*
X61340151Y-65900499D01*
X61371673Y-65838145D01*
X61390968Y-65821425D01*
X61577082Y-65691105D01*
X61744105Y-65524082D01*
X61879600Y-65330578D01*
X61979429Y-65116492D01*
X61979432Y-65116486D01*
X62036636Y-64903000D01*
X61139686Y-64903000D01*
X61165493Y-64862844D01*
X61206000Y-64724889D01*
X61206000Y-64581111D01*
X61165493Y-64443156D01*
X61139686Y-64403000D01*
X62036636Y-64403000D01*
X62036635Y-64402999D01*
X61979432Y-64189513D01*
X61979429Y-64189507D01*
X61879600Y-63975422D01*
X61879599Y-63975420D01*
X61744113Y-63781926D01*
X61744108Y-63781920D01*
X61577082Y-63614894D01*
X61383578Y-63479399D01*
X61169492Y-63379570D01*
X61169486Y-63379567D01*
X60956000Y-63322364D01*
X60956000Y-64217498D01*
X60848315Y-64168320D01*
X60741763Y-64153000D01*
X60670237Y-64153000D01*
X60563685Y-64168320D01*
X60456000Y-64217498D01*
X60456000Y-63322364D01*
X60455999Y-63322364D01*
X60242513Y-63379567D01*
X60242507Y-63379570D01*
X60028422Y-63479399D01*
X60028420Y-63479400D01*
X59834926Y-63614886D01*
X59834920Y-63614891D01*
X59667891Y-63781920D01*
X59667890Y-63781922D01*
X59542074Y-63961606D01*
X59487497Y-64005230D01*
X59417998Y-64012423D01*
X59355644Y-63980901D01*
X59320230Y-63920671D01*
X59316499Y-63890482D01*
X59316499Y-63758143D01*
X59316499Y-63758136D01*
X59315847Y-63752512D01*
X59313586Y-63733012D01*
X59313585Y-63733010D01*
X59313585Y-63733009D01*
X59268206Y-63630235D01*
X59188765Y-63550794D01*
X59155244Y-63535993D01*
X59085992Y-63505415D01*
X59060865Y-63502500D01*
X57271143Y-63502500D01*
X57271117Y-63502502D01*
X57246012Y-63505413D01*
X57246008Y-63505415D01*
X57143235Y-63550793D01*
X57063794Y-63630234D01*
X57018415Y-63733006D01*
X57018415Y-63733008D01*
X57015500Y-63758131D01*
X57015500Y-65547856D01*
X57015502Y-65547882D01*
X57018413Y-65572987D01*
X57018415Y-65572991D01*
X57063793Y-65675764D01*
X57063794Y-65675765D01*
X57143235Y-65755206D01*
X57246009Y-65800585D01*
X57271135Y-65803500D01*
X57999758Y-65803499D01*
X58066795Y-65823183D01*
X58112550Y-65875987D01*
X58122494Y-65945146D01*
X58093469Y-66008702D01*
X58034691Y-66046476D01*
X58022542Y-66049388D01*
X58001139Y-66053389D01*
X57849802Y-66081679D01*
X57849800Y-66081679D01*
X57849798Y-66081680D01*
X57650982Y-66158701D01*
X57650980Y-66158702D01*
X57469699Y-66270947D01*
X57312127Y-66414593D01*
X57183636Y-66584742D01*
X57183634Y-66584745D01*
X57139303Y-66673774D01*
X57091803Y-66725008D01*
X57028305Y-66742500D01*
X55673968Y-66742500D01*
X55667029Y-66742110D01*
X55654730Y-66740724D01*
X55628151Y-66737729D01*
X55569693Y-66748789D01*
X55510893Y-66757652D01*
X55502735Y-66760168D01*
X55494714Y-66762975D01*
X55494713Y-66762976D01*
X55494711Y-66762976D01*
X55494708Y-66762978D01*
X55442100Y-66790783D01*
X55388543Y-66816575D01*
X55381495Y-66821379D01*
X55374644Y-66826435D01*
X55346605Y-66854474D01*
X55332585Y-66868495D01*
X55312361Y-66887260D01*
X55288992Y-66908943D01*
X55283200Y-66916207D01*
X55282548Y-66915687D01*
X55273154Y-66927925D01*
X52000404Y-70200677D01*
X51995217Y-70205312D01*
X51964633Y-70229702D01*
X51964629Y-70229706D01*
X51931119Y-70278856D01*
X51895806Y-70326703D01*
X51891816Y-70334252D01*
X51888128Y-70341911D01*
X51870592Y-70398762D01*
X51850953Y-70454886D01*
X51849371Y-70463244D01*
X51848100Y-70471685D01*
X51848100Y-70531158D01*
X51845875Y-70590594D01*
X51846916Y-70599828D01*
X51846085Y-70599921D01*
X51848100Y-70615220D01*
X51848100Y-72864242D01*
X51828415Y-72931281D01*
X51806327Y-72957057D01*
X51770418Y-72988869D01*
X51673782Y-73128868D01*
X51673782Y-73128869D01*
X51628629Y-73247929D01*
X51586451Y-73303632D01*
X51520853Y-73327689D01*
X51452663Y-73312462D01*
X51428349Y-73294859D01*
X51422766Y-73289679D01*
X51422762Y-73289676D01*
X51422761Y-73289675D01*
X51375734Y-73257612D01*
X51329951Y-73223823D01*
X51329948Y-73223821D01*
X51322738Y-73220011D01*
X51315396Y-73216475D01*
X51261013Y-73199699D01*
X51207300Y-73180905D01*
X51199290Y-73179389D01*
X51191230Y-73178175D01*
X51191228Y-73178175D01*
X51134318Y-73178175D01*
X51077450Y-73176046D01*
X51068217Y-73177087D01*
X51068118Y-73176209D01*
X51053182Y-73178175D01*
X50716852Y-73178175D01*
X50649813Y-73158490D01*
X50629171Y-73141856D01*
X47585188Y-70097873D01*
X47551703Y-70036550D01*
X47548869Y-70010192D01*
X47548869Y-68687606D01*
X47549258Y-68680667D01*
X47553433Y-68643618D01*
X47542852Y-68587694D01*
X47541350Y-68577728D01*
X47534372Y-68531430D01*
X47531963Y-68523623D01*
X47529275Y-68515939D01*
X47526135Y-68509998D01*
X47502678Y-68465616D01*
X47477991Y-68414353D01*
X47477988Y-68414350D01*
X47473395Y-68407612D01*
X47468556Y-68401055D01*
X47443592Y-68376091D01*
X47410107Y-68314768D01*
X47408177Y-68273467D01*
X47411299Y-68247759D01*
X47390794Y-68078887D01*
X47330472Y-67919829D01*
X47233837Y-67779830D01*
X47135826Y-67693000D01*
X47106503Y-67667022D01*
X46976694Y-67598893D01*
X46926481Y-67550308D01*
X46910507Y-67482289D01*
X46933842Y-67416432D01*
X46946633Y-67401422D01*
X47656224Y-66691831D01*
X47661405Y-66687202D01*
X47690555Y-66663957D01*
X47690558Y-66663953D01*
X47722618Y-66616929D01*
X47756408Y-66571146D01*
X47756409Y-66571142D01*
X47760219Y-66563934D01*
X47763755Y-66556592D01*
X47780530Y-66502208D01*
X47788997Y-66478011D01*
X47799325Y-66448496D01*
X47799325Y-66448490D01*
X47800838Y-66440497D01*
X47802054Y-66432426D01*
X47802056Y-66432423D01*
X47802056Y-66375512D01*
X47804184Y-66318644D01*
X47804183Y-66318643D01*
X47803144Y-66309412D01*
X47804021Y-66309313D01*
X47802056Y-66294377D01*
X47802056Y-65024183D01*
X47821741Y-64957144D01*
X47843830Y-64931367D01*
X47899182Y-64882330D01*
X47901640Y-64878770D01*
X47995818Y-64742330D01*
X48056140Y-64583272D01*
X48076645Y-64414400D01*
X48067589Y-64339818D01*
X48078780Y-64272509D01*
X48050370Y-64230314D01*
X48049511Y-64228048D01*
X47995818Y-64086470D01*
X47899183Y-63946471D01*
X47890607Y-63938873D01*
X47855050Y-63907372D01*
X47817923Y-63848183D01*
X47818691Y-63778317D01*
X47857109Y-63719958D01*
X47892480Y-63698931D01*
X48018019Y-63650298D01*
X48103223Y-63597541D01*
X48170583Y-63578986D01*
X48237282Y-63599794D01*
X48282144Y-63653360D01*
X48292500Y-63702969D01*
X48292500Y-64124402D01*
X48290277Y-64189507D01*
X48290240Y-64190576D01*
X48274159Y-64239139D01*
X48304584Y-64275851D01*
X48304899Y-64276743D01*
X48315079Y-64300179D01*
X48321819Y-64320220D01*
X48326067Y-64337652D01*
X48347763Y-64376239D01*
X48350582Y-64381915D01*
X48359741Y-64403000D01*
X48368221Y-64422522D01*
X48379541Y-64436436D01*
X48391439Y-64453917D01*
X48400234Y-64469560D01*
X48400236Y-64469561D01*
X48431532Y-64500857D01*
X48435783Y-64505566D01*
X48463722Y-64539908D01*
X48478381Y-64550255D01*
X48494552Y-64563877D01*
X48804169Y-64873494D01*
X48837654Y-64934817D01*
X48839584Y-64946226D01*
X48844859Y-64989671D01*
X48844860Y-64989675D01*
X48905182Y-65148730D01*
X48905182Y-65148731D01*
X48959305Y-65227140D01*
X49001817Y-65288729D01*
X49094490Y-65370830D01*
X49129150Y-65401536D01*
X49279773Y-65480589D01*
X49279775Y-65480590D01*
X49444944Y-65521300D01*
X49615056Y-65521300D01*
X49780225Y-65480590D01*
X49859692Y-65438881D01*
X49930849Y-65401536D01*
X49930850Y-65401534D01*
X49930852Y-65401534D01*
X50058183Y-65288729D01*
X50154818Y-65148730D01*
X50215140Y-64989672D01*
X50235645Y-64820800D01*
X50215140Y-64651928D01*
X50203246Y-64620567D01*
X50165443Y-64520886D01*
X50154818Y-64492870D01*
X50138727Y-64469559D01*
X50106260Y-64422522D01*
X50058183Y-64352871D01*
X49930852Y-64240066D01*
X49930850Y-64240065D01*
X49930849Y-64240064D01*
X49793616Y-64168038D01*
X49743404Y-64119454D01*
X49727429Y-64051435D01*
X49750764Y-63985577D01*
X49775756Y-63959866D01*
X49793000Y-63946634D01*
X49793000Y-63051501D01*
X49900685Y-63100680D01*
X50007237Y-63116000D01*
X50078763Y-63116000D01*
X50185315Y-63100680D01*
X50293000Y-63051501D01*
X50293000Y-63946633D01*
X50506483Y-63889433D01*
X50506492Y-63889429D01*
X50720578Y-63789600D01*
X50914082Y-63654105D01*
X51081105Y-63487082D01*
X51216600Y-63293578D01*
X51310294Y-63092651D01*
X51356466Y-63040212D01*
X51423660Y-63021060D01*
X51490541Y-63041276D01*
X51533676Y-63089785D01*
X51600632Y-63224253D01*
X51729127Y-63394406D01*
X51729128Y-63394407D01*
X51886698Y-63538052D01*
X52067981Y-63650298D01*
X52266802Y-63727321D01*
X52476390Y-63766500D01*
X52476392Y-63766500D01*
X52689608Y-63766500D01*
X52689610Y-63766500D01*
X52899198Y-63727321D01*
X53098019Y-63650298D01*
X53279302Y-63538052D01*
X53436872Y-63394407D01*
X53565366Y-63224255D01*
X53619270Y-63116000D01*
X53660403Y-63033394D01*
X53660403Y-63033393D01*
X53660405Y-63033389D01*
X53718756Y-62828310D01*
X53738429Y-62616000D01*
X53718756Y-62403690D01*
X53660405Y-62198611D01*
X53660403Y-62198606D01*
X53660403Y-62198605D01*
X53565367Y-62007746D01*
X53436872Y-61837593D01*
X53279302Y-61693948D01*
X53098019Y-61581702D01*
X53098017Y-61581701D01*
X52962056Y-61529030D01*
X52899198Y-61504679D01*
X52702385Y-61467888D01*
X52640106Y-61436221D01*
X52604833Y-61375908D01*
X52607767Y-61306100D01*
X52647976Y-61248960D01*
X52702384Y-61224111D01*
X52899198Y-61187321D01*
X53098019Y-61110298D01*
X53279302Y-60998052D01*
X53436872Y-60854407D01*
X53565366Y-60684255D01*
X53625866Y-60562753D01*
X53660403Y-60493394D01*
X53660403Y-60493393D01*
X53660405Y-60493389D01*
X53718756Y-60288310D01*
X53738429Y-60076000D01*
X53718756Y-59863690D01*
X53660405Y-59658611D01*
X53660403Y-59658606D01*
X53660403Y-59658605D01*
X53565367Y-59467746D01*
X53436872Y-59297593D01*
X53402930Y-59266651D01*
X53279302Y-59153948D01*
X53098019Y-59041702D01*
X53098017Y-59041701D01*
X52993969Y-59001393D01*
X52899198Y-58964679D01*
X52689610Y-58925500D01*
X52476390Y-58925500D01*
X52266802Y-58964679D01*
X52266799Y-58964679D01*
X52266799Y-58964680D01*
X52067982Y-59041701D01*
X52067980Y-59041702D01*
X51886699Y-59153947D01*
X51729127Y-59297593D01*
X51600634Y-59467744D01*
X51533676Y-59602215D01*
X51486173Y-59653452D01*
X51418510Y-59670873D01*
X51352170Y-59648947D01*
X51310294Y-59599348D01*
X51216600Y-59398422D01*
X51216599Y-59398420D01*
X51081113Y-59204926D01*
X51081108Y-59204920D01*
X50914082Y-59037894D01*
X50720578Y-58902399D01*
X50506492Y-58802570D01*
X50506486Y-58802567D01*
X50293000Y-58745364D01*
X50293000Y-59640498D01*
X50185315Y-59591320D01*
X50078763Y-59576000D01*
X50007237Y-59576000D01*
X49900685Y-59591320D01*
X49793000Y-59640498D01*
X49793000Y-58745364D01*
X49792999Y-58745364D01*
X49579513Y-58802567D01*
X49579507Y-58802570D01*
X49365422Y-58902399D01*
X49365420Y-58902400D01*
X49204200Y-59015287D01*
X49137994Y-59037614D01*
X49070226Y-59020604D01*
X49045396Y-59001393D01*
X48595184Y-58551181D01*
X48561699Y-58489858D01*
X48566683Y-58420166D01*
X48608555Y-58364233D01*
X48674019Y-58339816D01*
X48682865Y-58339500D01*
X62186500Y-58339500D01*
X62253539Y-58359185D01*
X62299294Y-58411989D01*
X62310500Y-58463500D01*
X62310500Y-87586500D01*
X62290815Y-87653539D01*
X62238011Y-87699294D01*
X62186500Y-87710500D01*
X29507500Y-87710500D01*
X29440461Y-87690815D01*
X29394706Y-87638011D01*
X29383500Y-87586500D01*
X29383500Y-60838856D01*
X29964500Y-60838856D01*
X29964502Y-60838882D01*
X29967413Y-60863987D01*
X29967415Y-60863991D01*
X30012793Y-60966764D01*
X30012794Y-60966765D01*
X30092235Y-61046206D01*
X30195009Y-61091585D01*
X30220135Y-61094500D01*
X32009864Y-61094499D01*
X32009879Y-61094497D01*
X32009882Y-61094497D01*
X32034987Y-61091586D01*
X32034988Y-61091585D01*
X32034991Y-61091585D01*
X32137765Y-61046206D01*
X32217206Y-60966765D01*
X32262585Y-60863991D01*
X32265500Y-60838865D01*
X32265499Y-60100046D01*
X32285183Y-60033009D01*
X32337987Y-59987254D01*
X32407146Y-59977310D01*
X32470702Y-60006335D01*
X32508476Y-60065113D01*
X32512970Y-60088606D01*
X32519244Y-60156310D01*
X32577596Y-60361392D01*
X32577596Y-60361394D01*
X32672632Y-60552253D01*
X32780103Y-60694566D01*
X32801128Y-60722407D01*
X32958698Y-60866052D01*
X33139981Y-60978298D01*
X33338802Y-61055321D01*
X33548390Y-61094500D01*
X33548392Y-61094500D01*
X33761608Y-61094500D01*
X33761610Y-61094500D01*
X33971198Y-61055321D01*
X34170019Y-60978298D01*
X34351302Y-60866052D01*
X34508872Y-60722407D01*
X34637366Y-60552255D01*
X34666676Y-60493392D01*
X34732403Y-60361394D01*
X34732403Y-60361393D01*
X34732405Y-60361389D01*
X34790756Y-60156310D01*
X34801529Y-60040047D01*
X34827315Y-59975111D01*
X34869622Y-59944804D01*
X34978130Y-59944804D01*
X35014503Y-59965668D01*
X35046693Y-60027681D01*
X35048471Y-60040048D01*
X35059244Y-60156310D01*
X35117596Y-60361392D01*
X35117596Y-60361394D01*
X35212632Y-60552253D01*
X35320103Y-60694566D01*
X35341128Y-60722407D01*
X35498698Y-60866052D01*
X35679981Y-60978298D01*
X35878802Y-61055321D01*
X36088390Y-61094500D01*
X36088392Y-61094500D01*
X36301608Y-61094500D01*
X36301610Y-61094500D01*
X36511198Y-61055321D01*
X36710019Y-60978298D01*
X36891302Y-60866052D01*
X37048872Y-60722407D01*
X37177366Y-60552255D01*
X37206676Y-60493392D01*
X37272403Y-60361394D01*
X37272403Y-60361393D01*
X37272405Y-60361389D01*
X37330756Y-60156310D01*
X37341529Y-60040047D01*
X37367315Y-59975111D01*
X37409622Y-59944804D01*
X37518130Y-59944804D01*
X37554503Y-59965668D01*
X37586693Y-60027681D01*
X37588471Y-60040048D01*
X37599244Y-60156310D01*
X37657596Y-60361392D01*
X37657596Y-60361394D01*
X37752632Y-60552253D01*
X37860103Y-60694566D01*
X37881128Y-60722407D01*
X38038698Y-60866052D01*
X38219981Y-60978298D01*
X38418802Y-61055321D01*
X38628390Y-61094500D01*
X38628392Y-61094500D01*
X38841608Y-61094500D01*
X38841610Y-61094500D01*
X39051198Y-61055321D01*
X39250019Y-60978298D01*
X39431302Y-60866052D01*
X39588872Y-60722407D01*
X39717366Y-60552255D01*
X39746676Y-60493392D01*
X39812403Y-60361394D01*
X39812403Y-60361393D01*
X39812405Y-60361389D01*
X39870756Y-60156310D01*
X39890429Y-59944000D01*
X39870756Y-59731690D01*
X39812405Y-59526611D01*
X39812403Y-59526606D01*
X39812403Y-59526605D01*
X39717367Y-59335746D01*
X39588872Y-59165593D01*
X39461133Y-59049143D01*
X39431302Y-59021948D01*
X39250019Y-58909702D01*
X39250017Y-58909701D01*
X39150608Y-58871190D01*
X39051198Y-58832679D01*
X38841610Y-58793500D01*
X38628390Y-58793500D01*
X38418802Y-58832679D01*
X38418799Y-58832679D01*
X38418799Y-58832680D01*
X38219982Y-58909701D01*
X38219980Y-58909702D01*
X38038699Y-59021947D01*
X37881127Y-59165593D01*
X37752632Y-59335746D01*
X37657596Y-59526605D01*
X37657596Y-59526607D01*
X37599244Y-59731689D01*
X37588471Y-59847951D01*
X37562685Y-59912888D01*
X37518130Y-59944804D01*
X37409622Y-59944804D01*
X37411869Y-59943194D01*
X37375497Y-59922331D01*
X37343307Y-59860318D01*
X37341529Y-59847951D01*
X37340849Y-59840613D01*
X37330756Y-59731690D01*
X37272405Y-59526611D01*
X37272403Y-59526606D01*
X37272403Y-59526605D01*
X37177367Y-59335746D01*
X37048872Y-59165593D01*
X36921133Y-59049143D01*
X36891302Y-59021948D01*
X36710019Y-58909702D01*
X36710017Y-58909701D01*
X36610608Y-58871190D01*
X36511198Y-58832679D01*
X36301610Y-58793500D01*
X36088390Y-58793500D01*
X35878802Y-58832679D01*
X35878799Y-58832679D01*
X35878799Y-58832680D01*
X35679982Y-58909701D01*
X35679980Y-58909702D01*
X35498699Y-59021947D01*
X35341127Y-59165593D01*
X35212632Y-59335746D01*
X35117596Y-59526605D01*
X35117596Y-59526607D01*
X35059244Y-59731689D01*
X35048471Y-59847951D01*
X35022685Y-59912888D01*
X34978130Y-59944804D01*
X34869622Y-59944804D01*
X34871869Y-59943194D01*
X34835497Y-59922331D01*
X34803307Y-59860318D01*
X34801529Y-59847951D01*
X34800849Y-59840613D01*
X34790756Y-59731690D01*
X34732405Y-59526611D01*
X34732403Y-59526606D01*
X34732403Y-59526605D01*
X34637367Y-59335746D01*
X34508872Y-59165593D01*
X34381133Y-59049143D01*
X34351302Y-59021948D01*
X34170019Y-58909702D01*
X34170017Y-58909701D01*
X34070608Y-58871190D01*
X33971198Y-58832679D01*
X33761610Y-58793500D01*
X33548390Y-58793500D01*
X33338802Y-58832679D01*
X33338799Y-58832679D01*
X33338799Y-58832680D01*
X33139982Y-58909701D01*
X33139980Y-58909702D01*
X32958699Y-59021947D01*
X32801127Y-59165593D01*
X32672632Y-59335746D01*
X32577596Y-59526605D01*
X32577596Y-59526607D01*
X32519244Y-59731689D01*
X32512970Y-59799394D01*
X32487183Y-59864331D01*
X32430383Y-59905018D01*
X32360602Y-59908538D01*
X32299995Y-59873772D01*
X32267806Y-59811759D01*
X32265499Y-59787952D01*
X32265499Y-59049143D01*
X32265499Y-59049136D01*
X32264637Y-59041701D01*
X32262586Y-59024012D01*
X32262585Y-59024010D01*
X32262585Y-59024009D01*
X32217206Y-58921235D01*
X32137765Y-58841794D01*
X32117124Y-58832680D01*
X32034992Y-58796415D01*
X32009865Y-58793500D01*
X30220143Y-58793500D01*
X30220117Y-58793502D01*
X30195012Y-58796413D01*
X30195008Y-58796415D01*
X30092235Y-58841793D01*
X30012794Y-58921234D01*
X29967415Y-59024006D01*
X29967415Y-59024008D01*
X29964500Y-59049131D01*
X29964500Y-60838856D01*
X29383500Y-60838856D01*
X29383500Y-58463500D01*
X29403185Y-58396461D01*
X29455989Y-58350706D01*
X29507500Y-58339500D01*
X43081612Y-58339500D01*
X43148651Y-58359185D01*
G37*
G04 #@! TD.AperFunction*
G04 #@! TA.AperFunction,Conductor*
G36*
X53104720Y-73744046D02*
G01*
X53119746Y-73756850D01*
X53215422Y-73852525D01*
X53383904Y-74021007D01*
X53417389Y-74082330D01*
X53419444Y-74122568D01*
X53418129Y-74134234D01*
X53429188Y-74192679D01*
X53438052Y-74251490D01*
X53440562Y-74259627D01*
X53443378Y-74267675D01*
X53471177Y-74320272D01*
X53496976Y-74373844D01*
X53501762Y-74380865D01*
X53506831Y-74387732D01*
X53506834Y-74387738D01*
X53506838Y-74387742D01*
X53548895Y-74429799D01*
X53589347Y-74473396D01*
X53596610Y-74479188D01*
X53596089Y-74479841D01*
X53608330Y-74489234D01*
X54052890Y-74933793D01*
X54057526Y-74938980D01*
X54081921Y-74969570D01*
X54108720Y-74987841D01*
X54126547Y-75002612D01*
X54392181Y-75268246D01*
X54425666Y-75329569D01*
X54428500Y-75355927D01*
X54428500Y-76002287D01*
X54408815Y-76069326D01*
X54356011Y-76115081D01*
X54286853Y-76125025D01*
X54223297Y-76096000D01*
X54213602Y-76086629D01*
X54179284Y-76049643D01*
X54172021Y-76043851D01*
X54172571Y-76043160D01*
X54160621Y-76033990D01*
X52459113Y-74332482D01*
X52425628Y-74271159D01*
X52430612Y-74201467D01*
X52472484Y-74145534D01*
X52517122Y-74124404D01*
X52548823Y-74116591D01*
X52548825Y-74116590D01*
X52699449Y-74037536D01*
X52699450Y-74037534D01*
X52699452Y-74037534D01*
X52826783Y-73924729D01*
X52923418Y-73784730D01*
X52923418Y-73784729D01*
X52927679Y-73778557D01*
X52929286Y-73779666D01*
X52970842Y-73736706D01*
X53038859Y-73720721D01*
X53104720Y-73744046D01*
G37*
G04 #@! TD.AperFunction*
G04 #@! TA.AperFunction,Conductor*
G36*
X60956000Y-71837498D02*
G01*
X60848315Y-71788320D01*
X60741763Y-71773000D01*
X60670237Y-71773000D01*
X60563685Y-71788320D01*
X60456000Y-71837498D01*
X60456000Y-70168501D01*
X60563685Y-70217680D01*
X60670237Y-70233000D01*
X60741763Y-70233000D01*
X60848315Y-70217680D01*
X60956000Y-70168501D01*
X60956000Y-71837498D01*
G37*
G04 #@! TD.AperFunction*
G04 #@! TA.AperFunction,Conductor*
G36*
X60956000Y-69297498D02*
G01*
X60848315Y-69248320D01*
X60741763Y-69233000D01*
X60670237Y-69233000D01*
X60563685Y-69248320D01*
X60456000Y-69297498D01*
X60456000Y-67628501D01*
X60563685Y-67677680D01*
X60670237Y-67693000D01*
X60741763Y-67693000D01*
X60848315Y-67677680D01*
X60956000Y-67628501D01*
X60956000Y-69297498D01*
G37*
G04 #@! TD.AperFunction*
G04 #@! TA.AperFunction,Conductor*
G36*
X45721259Y-66103418D02*
G01*
X45732873Y-66114906D01*
X45737729Y-66120387D01*
X45737732Y-66120391D01*
X45855975Y-66225144D01*
X45855977Y-66225145D01*
X45995849Y-66298557D01*
X46149229Y-66336361D01*
X46149230Y-66336361D01*
X46307200Y-66336361D01*
X46460576Y-66298558D01*
X46460576Y-66298557D01*
X46460580Y-66298557D01*
X46517249Y-66268814D01*
X46585754Y-66255089D01*
X46650807Y-66280580D01*
X46691752Y-66337196D01*
X46695589Y-66406960D01*
X46662554Y-66466292D01*
X46367666Y-66761181D01*
X46306343Y-66794666D01*
X46279985Y-66797500D01*
X45640056Y-66797500D01*
X45573017Y-66777815D01*
X45527262Y-66725011D01*
X45516056Y-66673500D01*
X45516056Y-66197131D01*
X45535741Y-66130092D01*
X45588545Y-66084337D01*
X45657703Y-66074393D01*
X45721259Y-66103418D01*
G37*
G04 #@! TD.AperFunction*
G04 #@! TA.AperFunction,Conductor*
G36*
X60956000Y-66757498D02*
G01*
X60848315Y-66708320D01*
X60741763Y-66693000D01*
X60670237Y-66693000D01*
X60563685Y-66708320D01*
X60456000Y-66757498D01*
X60456000Y-65088501D01*
X60563685Y-65137680D01*
X60670237Y-65153000D01*
X60741763Y-65153000D01*
X60848315Y-65137680D01*
X60956000Y-65088501D01*
X60956000Y-66757498D01*
G37*
G04 #@! TD.AperFunction*
G04 #@! TA.AperFunction,Conductor*
G36*
X50293000Y-62180498D02*
G01*
X50185315Y-62131320D01*
X50078763Y-62116000D01*
X50007237Y-62116000D01*
X49900685Y-62131320D01*
X49793000Y-62180498D01*
X49793000Y-60511501D01*
X49900685Y-60560680D01*
X50007237Y-60576000D01*
X50078763Y-60576000D01*
X50185315Y-60560680D01*
X50293000Y-60511501D01*
X50293000Y-62180498D01*
G37*
G04 #@! TD.AperFunction*
M02*
