M48
; DRILL file {KiCad 7.0.9} date Fri Feb 16 12:23:24 2024
; FORMAT={-:-/ absolute / metric / decimal}
; #@! TF.CreationDate,2024-02-16T12:23:24+01:00
; #@! TF.GenerationSoftware,Kicad,Pcbnew,7.0.9
; #@! TF.FileFunction,Plated,1,4,PTH
FMAT,2
METRIC
; #@! TA.AperFunction,Plated,PTH,ViaDrill
T1C0.400
; #@! TA.AperFunction,Plated,PTH,ComponentDrill
T2C1.000
; #@! TA.AperFunction,Plated,PTH,ComponentDrill
T3C1.030
; #@! TA.AperFunction,Plated,PTH,ComponentDrill
T4C2.380
%
G90
G05
T1
X32.309Y-65.049
X39.421Y-69.113
X40.056Y-63.678
X42.85Y-67.742
X42.901Y-66.015
X45.085Y-64.414
X45.568Y-68.25
X46.228Y-66.548
X46.228Y-72.187
X46.228Y-65.686
X46.706Y-68.248
X47.371Y-64.414
X47.955Y-68.199
X47.984Y-72.977
X49.479Y-66.954
X49.53Y-64.821
X49.784Y-75.235
X50.633Y-74.801
X51.537Y-75.768
X51.613Y-81.432
X52.299Y-73.457
X52.68Y-81.94
X53.086Y-68.326
X53.975Y-81.915
X54.127Y-75.286
X54.317Y-73.373
X54.388Y-69.369
X54.743Y-81.178
X55.747Y-81.178
X55.956Y-71.018
X55.996Y-78.232
X56.236Y-68.961
X56.411Y-81.925
X56.896Y-78.232
X57.76Y-73.812
X58.268Y-81.89
X59.03Y-78.181
X60.198Y-60.528
T2
X31.031Y-63.726
X31.031Y-66.266
X31.031Y-68.806
X31.115Y-59.944
X33.571Y-63.726
X33.571Y-66.266
X33.571Y-68.806
X33.655Y-59.944
X36.111Y-63.726
X36.111Y-66.266
X36.111Y-68.806
X36.195Y-59.944
X38.735Y-59.944
X42.423Y-60.076
X42.423Y-62.616
X44.963Y-60.076
X44.963Y-62.616
X47.503Y-60.076
X47.503Y-62.616
X50.043Y-60.076
X50.043Y-62.616
X52.583Y-60.076
X52.583Y-62.616
X58.166Y-64.653
X58.166Y-67.193
X58.166Y-69.733
X58.166Y-72.273
X60.706Y-64.653
X60.706Y-67.193
X60.706Y-69.733
X60.706Y-72.273
T3
X35.108Y-73.888
X37.608Y-73.888
X39.608Y-73.888
X42.108Y-73.888
T4
X32.038Y-76.598
X45.178Y-76.598
T0
M30
