G04 #@! TF.GenerationSoftware,KiCad,Pcbnew,7.0.9*
G04 #@! TF.CreationDate,2024-02-15T19:09:08+01:00*
G04 #@! TF.ProjectId,USBussy_Current_Probe,55534275-7373-4795-9f43-757272656e74,1.0*
G04 #@! TF.SameCoordinates,Original*
G04 #@! TF.FileFunction,Soldermask,Top*
G04 #@! TF.FilePolarity,Negative*
%FSLAX46Y46*%
G04 Gerber Fmt 4.6, Leading zero omitted, Abs format (unit mm)*
G04 Created by KiCad (PCBNEW 7.0.9) date 2024-02-15 19:09:08*
%MOMM*%
%LPD*%
G01*
G04 APERTURE LIST*
G04 Aperture macros list*
%AMRoundRect*
0 Rectangle with rounded corners*
0 $1 Rounding radius*
0 $2 $3 $4 $5 $6 $7 $8 $9 X,Y pos of 4 corners*
0 Add a 4 corners polygon primitive as box body*
4,1,4,$2,$3,$4,$5,$6,$7,$8,$9,$2,$3,0*
0 Add four circle primitives for the rounded corners*
1,1,$1+$1,$2,$3*
1,1,$1+$1,$4,$5*
1,1,$1+$1,$6,$7*
1,1,$1+$1,$8,$9*
0 Add four rect primitives between the rounded corners*
20,1,$1+$1,$2,$3,$4,$5,0*
20,1,$1+$1,$4,$5,$6,$7,0*
20,1,$1+$1,$6,$7,$8,$9,0*
20,1,$1+$1,$8,$9,$2,$3,0*%
%AMRotRect*
0 Rectangle, with rotation*
0 The origin of the aperture is its center*
0 $1 length*
0 $2 width*
0 $3 Rotation angle, in degrees counterclockwise*
0 Add horizontal line*
21,1,$1,$2,0,0,$3*%
G04 Aperture macros list end*
%ADD10R,0.800000X1.070000*%
%ADD11RotRect,0.282800X0.282800X135.000000*%
%ADD12R,0.600000X0.200000*%
%ADD13R,0.850000X0.300000*%
%ADD14R,0.300000X0.850000*%
%ADD15RoundRect,0.250000X0.375000X0.625000X-0.375000X0.625000X-0.375000X-0.625000X0.375000X-0.625000X0*%
%ADD16RoundRect,0.200000X0.275000X-0.200000X0.275000X0.200000X-0.275000X0.200000X-0.275000X-0.200000X0*%
%ADD17R,1.700000X1.700000*%
%ADD18O,1.700000X1.700000*%
%ADD19C,0.650000*%
%ADD20R,0.300000X1.150000*%
%ADD21R,2.180000X2.000000*%
%ADD22R,0.500000X0.600000*%
%ADD23RoundRect,0.225000X0.225000X0.250000X-0.225000X0.250000X-0.225000X-0.250000X0.225000X-0.250000X0*%
%ADD24RoundRect,0.225000X-0.250000X0.225000X-0.250000X-0.225000X0.250000X-0.225000X0.250000X0.225000X0*%
%ADD25RoundRect,0.250000X0.250000X0.475000X-0.250000X0.475000X-0.250000X-0.475000X0.250000X-0.475000X0*%
%ADD26RoundRect,0.150000X0.512500X0.150000X-0.512500X0.150000X-0.512500X-0.150000X0.512500X-0.150000X0*%
%ADD27RoundRect,0.200000X-0.275000X0.200000X-0.275000X-0.200000X0.275000X-0.200000X0.275000X0.200000X0*%
%ADD28RoundRect,0.250000X0.262500X0.450000X-0.262500X0.450000X-0.262500X-0.450000X0.262500X-0.450000X0*%
%ADD29C,1.545000*%
%ADD30C,3.570000*%
%ADD31RoundRect,0.250000X0.325000X1.100000X-0.325000X1.100000X-0.325000X-1.100000X0.325000X-1.100000X0*%
%ADD32RoundRect,0.150000X0.150000X-0.512500X0.150000X0.512500X-0.150000X0.512500X-0.150000X-0.512500X0*%
G04 APERTURE END LIST*
D10*
X49665000Y-76631000D03*
D11*
X49465000Y-76096000D03*
D12*
X49765000Y-75996000D03*
D10*
X50665000Y-76631000D03*
D11*
X50865000Y-76096000D03*
D12*
X50565000Y-75996000D03*
D13*
X51615000Y-75081000D03*
X51615000Y-74581000D03*
D14*
X50915000Y-73881000D03*
X50415000Y-73881000D03*
X49915000Y-73881000D03*
X49415000Y-73881000D03*
D13*
X48715000Y-74581000D03*
X48715000Y-75081000D03*
D15*
X61598000Y-59309000D03*
X58798000Y-59309000D03*
D16*
X40132000Y-69938400D03*
X40132000Y-68288400D03*
D17*
X36111301Y-66265699D03*
D18*
X33571301Y-66265699D03*
X31031301Y-66265699D03*
D19*
X52355000Y-80582000D03*
X58135000Y-80582000D03*
D20*
X51895000Y-79507000D03*
X52695000Y-79507000D03*
X53995000Y-79507000D03*
X54995000Y-79507000D03*
X55495000Y-79507000D03*
X56495000Y-79507000D03*
X57795000Y-79507000D03*
X58595000Y-79507000D03*
X58295000Y-79507000D03*
X57495000Y-79507000D03*
X56995000Y-79507000D03*
X55995000Y-79507000D03*
X54495000Y-79507000D03*
X53495000Y-79507000D03*
X52995000Y-79507000D03*
X52195000Y-79507000D03*
D21*
X50135000Y-80082000D03*
X50135000Y-84012000D03*
X60355000Y-80082000D03*
X60355000Y-84012000D03*
D22*
X54694200Y-72684400D03*
X55694200Y-72684400D03*
X55194200Y-71384400D03*
D23*
X43701000Y-69723000D03*
X42151000Y-69723000D03*
D24*
X52959000Y-70853000D03*
X52959000Y-72403000D03*
D25*
X51369000Y-68707000D03*
X49469000Y-68707000D03*
D26*
X47365500Y-67117000D03*
X47365500Y-66167000D03*
X47365500Y-65217000D03*
X45090500Y-65217000D03*
X45090500Y-66167000D03*
X45090500Y-67117000D03*
X51175500Y-72451000D03*
X51175500Y-71501000D03*
X51175500Y-70551000D03*
X48900500Y-70551000D03*
X48900500Y-72451000D03*
D15*
X61598000Y-61722000D03*
X58798000Y-61722000D03*
D17*
X36111301Y-63725699D03*
D18*
X33571301Y-63725699D03*
X31031301Y-63725699D03*
D17*
X31115000Y-59944000D03*
D18*
X33655000Y-59944000D03*
X36195000Y-59944000D03*
X38735000Y-59944000D03*
D27*
X40132000Y-65316600D03*
X40132000Y-66966600D03*
D28*
X57148100Y-61112400D03*
X55323100Y-61112400D03*
X57148100Y-59182000D03*
X55323100Y-59182000D03*
D29*
X35108000Y-73888000D03*
X37608000Y-73888000D03*
X39608000Y-73888000D03*
X42108000Y-73888000D03*
D30*
X32038000Y-76598000D03*
X45178000Y-76598000D03*
D27*
X38658800Y-68288400D03*
X38658800Y-69938400D03*
D17*
X36111301Y-68805699D03*
D18*
X33571301Y-68805699D03*
X31031301Y-68805699D03*
D27*
X55499000Y-65977000D03*
X55499000Y-67627000D03*
D17*
X58166000Y-64653000D03*
D18*
X60706000Y-64653000D03*
X58166000Y-67193000D03*
X60706000Y-67193000D03*
X58166000Y-69733000D03*
X60706000Y-69733000D03*
X58166000Y-72273000D03*
X60706000Y-72273000D03*
D25*
X47178000Y-69596000D03*
X45278000Y-69596000D03*
D22*
X54694200Y-70271400D03*
X55694200Y-70271400D03*
X55194200Y-68971400D03*
D31*
X61165000Y-75819000D03*
X58215000Y-75819000D03*
D27*
X38658800Y-65316600D03*
X38658800Y-66966600D03*
D17*
X42423000Y-62616000D03*
D18*
X42423000Y-60076000D03*
X44963000Y-62616000D03*
X44963000Y-60076000D03*
X47503000Y-62616000D03*
X47503000Y-60076000D03*
X50043000Y-62616000D03*
X50043000Y-60076000D03*
X52583000Y-62616000D03*
X52583000Y-60076000D03*
D24*
X56642000Y-75171000D03*
X56642000Y-76721000D03*
D32*
X53152000Y-76448500D03*
X54102000Y-76448500D03*
X55052000Y-76448500D03*
X55052000Y-74173500D03*
X53152000Y-74173500D03*
M02*
