%TF.GenerationSoftware,KiCad,Pcbnew,7.0.9*%
%TF.CreationDate,2024-02-15T19:09:10+01:00*%
%TF.ProjectId,USBussy_Current_Probe,55534275-7373-4795-9f43-757272656e74,1.0*%
%TF.SameCoordinates,Original*%
%TF.FileFunction,Drillmap*%
%TF.FilePolarity,Positive*%
%FSLAX45Y45*%
G04 Gerber Fmt 4.5, Leading zero omitted, Abs format (unit mm)*
G04 Created by KiCad (PCBNEW 7.0.9) date 2024-02-15 19:09:10*
%MOMM*%
%LPD*%
G01*
G04 APERTURE LIST*
%ADD10C,0.100000*%
%ADD11C,0.200000*%
G04 APERTURE END LIST*
D10*
X2908300Y-5803900D02*
X6261100Y-5803900D01*
X6261100Y-8801100D01*
X2908300Y-8801100D01*
X2908300Y-5803900D01*
D11*
D10*
X5203000Y-8025700D02*
X5268000Y-8090700D01*
X5268000Y-8025700D02*
X5203000Y-8090700D01*
X5781000Y-8025700D02*
X5846000Y-8090700D01*
X5846000Y-8025700D02*
X5781000Y-8090700D01*
D11*
X3164077Y-9117584D02*
X3164077Y-8917584D01*
X3164077Y-8917584D02*
X3211696Y-8917584D01*
X3211696Y-8917584D02*
X3240267Y-8927108D01*
X3240267Y-8927108D02*
X3259315Y-8946155D01*
X3259315Y-8946155D02*
X3268839Y-8965203D01*
X3268839Y-8965203D02*
X3278362Y-9003298D01*
X3278362Y-9003298D02*
X3278362Y-9031870D01*
X3278362Y-9031870D02*
X3268839Y-9069965D01*
X3268839Y-9069965D02*
X3259315Y-9089012D01*
X3259315Y-9089012D02*
X3240267Y-9108060D01*
X3240267Y-9108060D02*
X3211696Y-9117584D01*
X3211696Y-9117584D02*
X3164077Y-9117584D01*
X3364077Y-9117584D02*
X3364077Y-8984250D01*
X3364077Y-9022346D02*
X3373601Y-9003298D01*
X3373601Y-9003298D02*
X3383124Y-8993774D01*
X3383124Y-8993774D02*
X3402172Y-8984250D01*
X3402172Y-8984250D02*
X3421220Y-8984250D01*
X3487886Y-9117584D02*
X3487886Y-8984250D01*
X3487886Y-8917584D02*
X3478362Y-8927108D01*
X3478362Y-8927108D02*
X3487886Y-8936631D01*
X3487886Y-8936631D02*
X3497410Y-8927108D01*
X3497410Y-8927108D02*
X3487886Y-8917584D01*
X3487886Y-8917584D02*
X3487886Y-8936631D01*
X3611696Y-9117584D02*
X3592648Y-9108060D01*
X3592648Y-9108060D02*
X3583124Y-9089012D01*
X3583124Y-9089012D02*
X3583124Y-8917584D01*
X3716458Y-9117584D02*
X3697410Y-9108060D01*
X3697410Y-9108060D02*
X3687886Y-9089012D01*
X3687886Y-9089012D02*
X3687886Y-8917584D01*
X3945029Y-9117584D02*
X3945029Y-8917584D01*
X3945029Y-8917584D02*
X4011696Y-9060441D01*
X4011696Y-9060441D02*
X4078362Y-8917584D01*
X4078362Y-8917584D02*
X4078362Y-9117584D01*
X4259315Y-9117584D02*
X4259315Y-9012822D01*
X4259315Y-9012822D02*
X4249791Y-8993774D01*
X4249791Y-8993774D02*
X4230744Y-8984250D01*
X4230744Y-8984250D02*
X4192648Y-8984250D01*
X4192648Y-8984250D02*
X4173601Y-8993774D01*
X4259315Y-9108060D02*
X4240267Y-9117584D01*
X4240267Y-9117584D02*
X4192648Y-9117584D01*
X4192648Y-9117584D02*
X4173601Y-9108060D01*
X4173601Y-9108060D02*
X4164077Y-9089012D01*
X4164077Y-9089012D02*
X4164077Y-9069965D01*
X4164077Y-9069965D02*
X4173601Y-9050917D01*
X4173601Y-9050917D02*
X4192648Y-9041393D01*
X4192648Y-9041393D02*
X4240267Y-9041393D01*
X4240267Y-9041393D02*
X4259315Y-9031870D01*
X4354553Y-8984250D02*
X4354553Y-9184250D01*
X4354553Y-8993774D02*
X4373601Y-8984250D01*
X4373601Y-8984250D02*
X4411696Y-8984250D01*
X4411696Y-8984250D02*
X4430744Y-8993774D01*
X4430744Y-8993774D02*
X4440267Y-9003298D01*
X4440267Y-9003298D02*
X4449791Y-9022346D01*
X4449791Y-9022346D02*
X4449791Y-9079489D01*
X4449791Y-9079489D02*
X4440267Y-9098536D01*
X4440267Y-9098536D02*
X4430744Y-9108060D01*
X4430744Y-9108060D02*
X4411696Y-9117584D01*
X4411696Y-9117584D02*
X4373601Y-9117584D01*
X4373601Y-9117584D02*
X4354553Y-9108060D01*
X4535505Y-9098536D02*
X4545029Y-9108060D01*
X4545029Y-9108060D02*
X4535505Y-9117584D01*
X4535505Y-9117584D02*
X4525982Y-9108060D01*
X4525982Y-9108060D02*
X4535505Y-9098536D01*
X4535505Y-9098536D02*
X4535505Y-9117584D01*
X4535505Y-8993774D02*
X4545029Y-9003298D01*
X4545029Y-9003298D02*
X4535505Y-9012822D01*
X4535505Y-9012822D02*
X4525982Y-9003298D01*
X4525982Y-9003298D02*
X4535505Y-8993774D01*
X4535505Y-8993774D02*
X4535505Y-9012822D01*
D10*
X2838300Y-9413600D02*
X2903300Y-9478600D01*
X2903300Y-9413600D02*
X2838300Y-9478600D01*
D11*
X3202172Y-9337584D02*
X3221220Y-9337584D01*
X3221220Y-9337584D02*
X3240267Y-9347108D01*
X3240267Y-9347108D02*
X3249791Y-9356631D01*
X3249791Y-9356631D02*
X3259315Y-9375679D01*
X3259315Y-9375679D02*
X3268839Y-9413774D01*
X3268839Y-9413774D02*
X3268839Y-9461393D01*
X3268839Y-9461393D02*
X3259315Y-9499489D01*
X3259315Y-9499489D02*
X3249791Y-9518536D01*
X3249791Y-9518536D02*
X3240267Y-9528060D01*
X3240267Y-9528060D02*
X3221220Y-9537584D01*
X3221220Y-9537584D02*
X3202172Y-9537584D01*
X3202172Y-9537584D02*
X3183124Y-9528060D01*
X3183124Y-9528060D02*
X3173601Y-9518536D01*
X3173601Y-9518536D02*
X3164077Y-9499489D01*
X3164077Y-9499489D02*
X3154553Y-9461393D01*
X3154553Y-9461393D02*
X3154553Y-9413774D01*
X3154553Y-9413774D02*
X3164077Y-9375679D01*
X3164077Y-9375679D02*
X3173601Y-9356631D01*
X3173601Y-9356631D02*
X3183124Y-9347108D01*
X3183124Y-9347108D02*
X3202172Y-9337584D01*
X3354553Y-9518536D02*
X3364077Y-9528060D01*
X3364077Y-9528060D02*
X3354553Y-9537584D01*
X3354553Y-9537584D02*
X3345029Y-9528060D01*
X3345029Y-9528060D02*
X3354553Y-9518536D01*
X3354553Y-9518536D02*
X3354553Y-9537584D01*
X3535505Y-9337584D02*
X3497410Y-9337584D01*
X3497410Y-9337584D02*
X3478362Y-9347108D01*
X3478362Y-9347108D02*
X3468839Y-9356631D01*
X3468839Y-9356631D02*
X3449791Y-9385203D01*
X3449791Y-9385203D02*
X3440267Y-9423298D01*
X3440267Y-9423298D02*
X3440267Y-9499489D01*
X3440267Y-9499489D02*
X3449791Y-9518536D01*
X3449791Y-9518536D02*
X3459315Y-9528060D01*
X3459315Y-9528060D02*
X3478362Y-9537584D01*
X3478362Y-9537584D02*
X3516458Y-9537584D01*
X3516458Y-9537584D02*
X3535505Y-9528060D01*
X3535505Y-9528060D02*
X3545029Y-9518536D01*
X3545029Y-9518536D02*
X3554553Y-9499489D01*
X3554553Y-9499489D02*
X3554553Y-9451870D01*
X3554553Y-9451870D02*
X3545029Y-9432822D01*
X3545029Y-9432822D02*
X3535505Y-9423298D01*
X3535505Y-9423298D02*
X3516458Y-9413774D01*
X3516458Y-9413774D02*
X3478362Y-9413774D01*
X3478362Y-9413774D02*
X3459315Y-9423298D01*
X3459315Y-9423298D02*
X3449791Y-9432822D01*
X3449791Y-9432822D02*
X3440267Y-9451870D01*
X3735505Y-9337584D02*
X3640267Y-9337584D01*
X3640267Y-9337584D02*
X3630743Y-9432822D01*
X3630743Y-9432822D02*
X3640267Y-9423298D01*
X3640267Y-9423298D02*
X3659315Y-9413774D01*
X3659315Y-9413774D02*
X3706934Y-9413774D01*
X3706934Y-9413774D02*
X3725982Y-9423298D01*
X3725982Y-9423298D02*
X3735505Y-9432822D01*
X3735505Y-9432822D02*
X3745029Y-9451870D01*
X3745029Y-9451870D02*
X3745029Y-9499489D01*
X3745029Y-9499489D02*
X3735505Y-9518536D01*
X3735505Y-9518536D02*
X3725982Y-9528060D01*
X3725982Y-9528060D02*
X3706934Y-9537584D01*
X3706934Y-9537584D02*
X3659315Y-9537584D01*
X3659315Y-9537584D02*
X3640267Y-9528060D01*
X3640267Y-9528060D02*
X3630743Y-9518536D01*
X3868839Y-9337584D02*
X3887886Y-9337584D01*
X3887886Y-9337584D02*
X3906934Y-9347108D01*
X3906934Y-9347108D02*
X3916458Y-9356631D01*
X3916458Y-9356631D02*
X3925982Y-9375679D01*
X3925982Y-9375679D02*
X3935505Y-9413774D01*
X3935505Y-9413774D02*
X3935505Y-9461393D01*
X3935505Y-9461393D02*
X3925982Y-9499489D01*
X3925982Y-9499489D02*
X3916458Y-9518536D01*
X3916458Y-9518536D02*
X3906934Y-9528060D01*
X3906934Y-9528060D02*
X3887886Y-9537584D01*
X3887886Y-9537584D02*
X3868839Y-9537584D01*
X3868839Y-9537584D02*
X3849791Y-9528060D01*
X3849791Y-9528060D02*
X3840267Y-9518536D01*
X3840267Y-9518536D02*
X3830743Y-9499489D01*
X3830743Y-9499489D02*
X3821220Y-9461393D01*
X3821220Y-9461393D02*
X3821220Y-9413774D01*
X3821220Y-9413774D02*
X3830743Y-9375679D01*
X3830743Y-9375679D02*
X3840267Y-9356631D01*
X3840267Y-9356631D02*
X3849791Y-9347108D01*
X3849791Y-9347108D02*
X3868839Y-9337584D01*
X4021220Y-9537584D02*
X4021220Y-9404250D01*
X4021220Y-9423298D02*
X4030743Y-9413774D01*
X4030743Y-9413774D02*
X4049791Y-9404250D01*
X4049791Y-9404250D02*
X4078363Y-9404250D01*
X4078363Y-9404250D02*
X4097410Y-9413774D01*
X4097410Y-9413774D02*
X4106934Y-9432822D01*
X4106934Y-9432822D02*
X4106934Y-9537584D01*
X4106934Y-9432822D02*
X4116458Y-9413774D01*
X4116458Y-9413774D02*
X4135505Y-9404250D01*
X4135505Y-9404250D02*
X4164077Y-9404250D01*
X4164077Y-9404250D02*
X4183124Y-9413774D01*
X4183124Y-9413774D02*
X4192648Y-9432822D01*
X4192648Y-9432822D02*
X4192648Y-9537584D01*
X4287886Y-9537584D02*
X4287886Y-9404250D01*
X4287886Y-9423298D02*
X4297410Y-9413774D01*
X4297410Y-9413774D02*
X4316458Y-9404250D01*
X4316458Y-9404250D02*
X4345029Y-9404250D01*
X4345029Y-9404250D02*
X4364077Y-9413774D01*
X4364077Y-9413774D02*
X4373601Y-9432822D01*
X4373601Y-9432822D02*
X4373601Y-9537584D01*
X4373601Y-9432822D02*
X4383125Y-9413774D01*
X4383125Y-9413774D02*
X4402172Y-9404250D01*
X4402172Y-9404250D02*
X4430744Y-9404250D01*
X4430744Y-9404250D02*
X4449791Y-9413774D01*
X4449791Y-9413774D02*
X4459315Y-9432822D01*
X4459315Y-9432822D02*
X4459315Y-9537584D01*
X4849791Y-9328060D02*
X4678363Y-9585203D01*
X5106934Y-9337584D02*
X5125982Y-9337584D01*
X5125982Y-9337584D02*
X5145029Y-9347108D01*
X5145029Y-9347108D02*
X5154553Y-9356631D01*
X5154553Y-9356631D02*
X5164077Y-9375679D01*
X5164077Y-9375679D02*
X5173601Y-9413774D01*
X5173601Y-9413774D02*
X5173601Y-9461393D01*
X5173601Y-9461393D02*
X5164077Y-9499489D01*
X5164077Y-9499489D02*
X5154553Y-9518536D01*
X5154553Y-9518536D02*
X5145029Y-9528060D01*
X5145029Y-9528060D02*
X5125982Y-9537584D01*
X5125982Y-9537584D02*
X5106934Y-9537584D01*
X5106934Y-9537584D02*
X5087887Y-9528060D01*
X5087887Y-9528060D02*
X5078363Y-9518536D01*
X5078363Y-9518536D02*
X5068839Y-9499489D01*
X5068839Y-9499489D02*
X5059315Y-9461393D01*
X5059315Y-9461393D02*
X5059315Y-9413774D01*
X5059315Y-9413774D02*
X5068839Y-9375679D01*
X5068839Y-9375679D02*
X5078363Y-9356631D01*
X5078363Y-9356631D02*
X5087887Y-9347108D01*
X5087887Y-9347108D02*
X5106934Y-9337584D01*
X5259315Y-9518536D02*
X5268839Y-9528060D01*
X5268839Y-9528060D02*
X5259315Y-9537584D01*
X5259315Y-9537584D02*
X5249791Y-9528060D01*
X5249791Y-9528060D02*
X5259315Y-9518536D01*
X5259315Y-9518536D02*
X5259315Y-9537584D01*
X5392648Y-9337584D02*
X5411696Y-9337584D01*
X5411696Y-9337584D02*
X5430744Y-9347108D01*
X5430744Y-9347108D02*
X5440268Y-9356631D01*
X5440268Y-9356631D02*
X5449791Y-9375679D01*
X5449791Y-9375679D02*
X5459315Y-9413774D01*
X5459315Y-9413774D02*
X5459315Y-9461393D01*
X5459315Y-9461393D02*
X5449791Y-9499489D01*
X5449791Y-9499489D02*
X5440268Y-9518536D01*
X5440268Y-9518536D02*
X5430744Y-9528060D01*
X5430744Y-9528060D02*
X5411696Y-9537584D01*
X5411696Y-9537584D02*
X5392648Y-9537584D01*
X5392648Y-9537584D02*
X5373601Y-9528060D01*
X5373601Y-9528060D02*
X5364077Y-9518536D01*
X5364077Y-9518536D02*
X5354553Y-9499489D01*
X5354553Y-9499489D02*
X5345029Y-9461393D01*
X5345029Y-9461393D02*
X5345029Y-9413774D01*
X5345029Y-9413774D02*
X5354553Y-9375679D01*
X5354553Y-9375679D02*
X5364077Y-9356631D01*
X5364077Y-9356631D02*
X5373601Y-9347108D01*
X5373601Y-9347108D02*
X5392648Y-9337584D01*
X5535506Y-9356631D02*
X5545029Y-9347108D01*
X5545029Y-9347108D02*
X5564077Y-9337584D01*
X5564077Y-9337584D02*
X5611696Y-9337584D01*
X5611696Y-9337584D02*
X5630744Y-9347108D01*
X5630744Y-9347108D02*
X5640267Y-9356631D01*
X5640267Y-9356631D02*
X5649791Y-9375679D01*
X5649791Y-9375679D02*
X5649791Y-9394727D01*
X5649791Y-9394727D02*
X5640267Y-9423298D01*
X5640267Y-9423298D02*
X5525982Y-9537584D01*
X5525982Y-9537584D02*
X5649791Y-9537584D01*
X5830744Y-9337584D02*
X5735506Y-9337584D01*
X5735506Y-9337584D02*
X5725982Y-9432822D01*
X5725982Y-9432822D02*
X5735506Y-9423298D01*
X5735506Y-9423298D02*
X5754553Y-9413774D01*
X5754553Y-9413774D02*
X5802172Y-9413774D01*
X5802172Y-9413774D02*
X5821220Y-9423298D01*
X5821220Y-9423298D02*
X5830744Y-9432822D01*
X5830744Y-9432822D02*
X5840267Y-9451870D01*
X5840267Y-9451870D02*
X5840267Y-9499489D01*
X5840267Y-9499489D02*
X5830744Y-9518536D01*
X5830744Y-9518536D02*
X5821220Y-9528060D01*
X5821220Y-9528060D02*
X5802172Y-9537584D01*
X5802172Y-9537584D02*
X5754553Y-9537584D01*
X5754553Y-9537584D02*
X5735506Y-9528060D01*
X5735506Y-9528060D02*
X5725982Y-9518536D01*
X6011696Y-9337584D02*
X5973601Y-9337584D01*
X5973601Y-9337584D02*
X5954553Y-9347108D01*
X5954553Y-9347108D02*
X5945029Y-9356631D01*
X5945029Y-9356631D02*
X5925982Y-9385203D01*
X5925982Y-9385203D02*
X5916458Y-9423298D01*
X5916458Y-9423298D02*
X5916458Y-9499489D01*
X5916458Y-9499489D02*
X5925982Y-9518536D01*
X5925982Y-9518536D02*
X5935506Y-9528060D01*
X5935506Y-9528060D02*
X5954553Y-9537584D01*
X5954553Y-9537584D02*
X5992648Y-9537584D01*
X5992648Y-9537584D02*
X6011696Y-9528060D01*
X6011696Y-9528060D02*
X6021220Y-9518536D01*
X6021220Y-9518536D02*
X6030744Y-9499489D01*
X6030744Y-9499489D02*
X6030744Y-9451870D01*
X6030744Y-9451870D02*
X6021220Y-9432822D01*
X6021220Y-9432822D02*
X6011696Y-9423298D01*
X6011696Y-9423298D02*
X5992648Y-9413774D01*
X5992648Y-9413774D02*
X5954553Y-9413774D01*
X5954553Y-9413774D02*
X5935506Y-9423298D01*
X5935506Y-9423298D02*
X5925982Y-9432822D01*
X5925982Y-9432822D02*
X5916458Y-9451870D01*
X6106934Y-9337584D02*
X6106934Y-9375679D01*
X6183125Y-9337584D02*
X6183125Y-9375679D01*
X6478363Y-9613774D02*
X6468839Y-9604250D01*
X6468839Y-9604250D02*
X6449791Y-9575679D01*
X6449791Y-9575679D02*
X6440268Y-9556631D01*
X6440268Y-9556631D02*
X6430744Y-9528060D01*
X6430744Y-9528060D02*
X6421220Y-9480441D01*
X6421220Y-9480441D02*
X6421220Y-9442346D01*
X6421220Y-9442346D02*
X6430744Y-9394727D01*
X6430744Y-9394727D02*
X6440268Y-9366155D01*
X6440268Y-9366155D02*
X6449791Y-9347108D01*
X6449791Y-9347108D02*
X6468839Y-9318536D01*
X6468839Y-9318536D02*
X6478363Y-9309012D01*
X6545029Y-9356631D02*
X6554553Y-9347108D01*
X6554553Y-9347108D02*
X6573601Y-9337584D01*
X6573601Y-9337584D02*
X6621220Y-9337584D01*
X6621220Y-9337584D02*
X6640268Y-9347108D01*
X6640268Y-9347108D02*
X6649791Y-9356631D01*
X6649791Y-9356631D02*
X6659315Y-9375679D01*
X6659315Y-9375679D02*
X6659315Y-9394727D01*
X6659315Y-9394727D02*
X6649791Y-9423298D01*
X6649791Y-9423298D02*
X6535506Y-9537584D01*
X6535506Y-9537584D02*
X6659315Y-9537584D01*
X6897410Y-9537584D02*
X6897410Y-9337584D01*
X6983125Y-9537584D02*
X6983125Y-9432822D01*
X6983125Y-9432822D02*
X6973601Y-9413774D01*
X6973601Y-9413774D02*
X6954553Y-9404250D01*
X6954553Y-9404250D02*
X6925982Y-9404250D01*
X6925982Y-9404250D02*
X6906934Y-9413774D01*
X6906934Y-9413774D02*
X6897410Y-9423298D01*
X7106934Y-9537584D02*
X7087887Y-9528060D01*
X7087887Y-9528060D02*
X7078363Y-9518536D01*
X7078363Y-9518536D02*
X7068839Y-9499489D01*
X7068839Y-9499489D02*
X7068839Y-9442346D01*
X7068839Y-9442346D02*
X7078363Y-9423298D01*
X7078363Y-9423298D02*
X7087887Y-9413774D01*
X7087887Y-9413774D02*
X7106934Y-9404250D01*
X7106934Y-9404250D02*
X7135506Y-9404250D01*
X7135506Y-9404250D02*
X7154553Y-9413774D01*
X7154553Y-9413774D02*
X7164077Y-9423298D01*
X7164077Y-9423298D02*
X7173601Y-9442346D01*
X7173601Y-9442346D02*
X7173601Y-9499489D01*
X7173601Y-9499489D02*
X7164077Y-9518536D01*
X7164077Y-9518536D02*
X7154553Y-9528060D01*
X7154553Y-9528060D02*
X7135506Y-9537584D01*
X7135506Y-9537584D02*
X7106934Y-9537584D01*
X7287887Y-9537584D02*
X7268839Y-9528060D01*
X7268839Y-9528060D02*
X7259315Y-9509012D01*
X7259315Y-9509012D02*
X7259315Y-9337584D01*
X7440268Y-9528060D02*
X7421220Y-9537584D01*
X7421220Y-9537584D02*
X7383125Y-9537584D01*
X7383125Y-9537584D02*
X7364077Y-9528060D01*
X7364077Y-9528060D02*
X7354553Y-9509012D01*
X7354553Y-9509012D02*
X7354553Y-9432822D01*
X7354553Y-9432822D02*
X7364077Y-9413774D01*
X7364077Y-9413774D02*
X7383125Y-9404250D01*
X7383125Y-9404250D02*
X7421220Y-9404250D01*
X7421220Y-9404250D02*
X7440268Y-9413774D01*
X7440268Y-9413774D02*
X7449791Y-9432822D01*
X7449791Y-9432822D02*
X7449791Y-9451870D01*
X7449791Y-9451870D02*
X7354553Y-9470917D01*
X7525982Y-9528060D02*
X7545030Y-9537584D01*
X7545030Y-9537584D02*
X7583125Y-9537584D01*
X7583125Y-9537584D02*
X7602172Y-9528060D01*
X7602172Y-9528060D02*
X7611696Y-9509012D01*
X7611696Y-9509012D02*
X7611696Y-9499489D01*
X7611696Y-9499489D02*
X7602172Y-9480441D01*
X7602172Y-9480441D02*
X7583125Y-9470917D01*
X7583125Y-9470917D02*
X7554553Y-9470917D01*
X7554553Y-9470917D02*
X7535506Y-9461393D01*
X7535506Y-9461393D02*
X7525982Y-9442346D01*
X7525982Y-9442346D02*
X7525982Y-9432822D01*
X7525982Y-9432822D02*
X7535506Y-9413774D01*
X7535506Y-9413774D02*
X7554553Y-9404250D01*
X7554553Y-9404250D02*
X7583125Y-9404250D01*
X7583125Y-9404250D02*
X7602172Y-9413774D01*
X7678363Y-9613774D02*
X7687887Y-9604250D01*
X7687887Y-9604250D02*
X7706934Y-9575679D01*
X7706934Y-9575679D02*
X7716458Y-9556631D01*
X7716458Y-9556631D02*
X7725982Y-9528060D01*
X7725982Y-9528060D02*
X7735506Y-9480441D01*
X7735506Y-9480441D02*
X7735506Y-9442346D01*
X7735506Y-9442346D02*
X7725982Y-9394727D01*
X7725982Y-9394727D02*
X7716458Y-9366155D01*
X7716458Y-9366155D02*
X7706934Y-9347108D01*
X7706934Y-9347108D02*
X7687887Y-9318536D01*
X7687887Y-9318536D02*
X7678363Y-9309012D01*
X8040268Y-9613774D02*
X8030744Y-9604250D01*
X8030744Y-9604250D02*
X8011696Y-9575679D01*
X8011696Y-9575679D02*
X8002172Y-9556631D01*
X8002172Y-9556631D02*
X7992649Y-9528060D01*
X7992649Y-9528060D02*
X7983125Y-9480441D01*
X7983125Y-9480441D02*
X7983125Y-9442346D01*
X7983125Y-9442346D02*
X7992649Y-9394727D01*
X7992649Y-9394727D02*
X8002172Y-9366155D01*
X8002172Y-9366155D02*
X8011696Y-9347108D01*
X8011696Y-9347108D02*
X8030744Y-9318536D01*
X8030744Y-9318536D02*
X8040268Y-9309012D01*
X8116458Y-9404250D02*
X8116458Y-9537584D01*
X8116458Y-9423298D02*
X8125982Y-9413774D01*
X8125982Y-9413774D02*
X8145030Y-9404250D01*
X8145030Y-9404250D02*
X8173601Y-9404250D01*
X8173601Y-9404250D02*
X8192649Y-9413774D01*
X8192649Y-9413774D02*
X8202172Y-9432822D01*
X8202172Y-9432822D02*
X8202172Y-9537584D01*
X8325982Y-9537584D02*
X8306934Y-9528060D01*
X8306934Y-9528060D02*
X8297411Y-9518536D01*
X8297411Y-9518536D02*
X8287887Y-9499489D01*
X8287887Y-9499489D02*
X8287887Y-9442346D01*
X8287887Y-9442346D02*
X8297411Y-9423298D01*
X8297411Y-9423298D02*
X8306934Y-9413774D01*
X8306934Y-9413774D02*
X8325982Y-9404250D01*
X8325982Y-9404250D02*
X8354553Y-9404250D01*
X8354553Y-9404250D02*
X8373601Y-9413774D01*
X8373601Y-9413774D02*
X8383125Y-9423298D01*
X8383125Y-9423298D02*
X8392649Y-9442346D01*
X8392649Y-9442346D02*
X8392649Y-9499489D01*
X8392649Y-9499489D02*
X8383125Y-9518536D01*
X8383125Y-9518536D02*
X8373601Y-9528060D01*
X8373601Y-9528060D02*
X8354553Y-9537584D01*
X8354553Y-9537584D02*
X8325982Y-9537584D01*
X8449792Y-9404250D02*
X8525982Y-9404250D01*
X8478363Y-9337584D02*
X8478363Y-9509012D01*
X8478363Y-9509012D02*
X8487887Y-9528060D01*
X8487887Y-9528060D02*
X8506934Y-9537584D01*
X8506934Y-9537584D02*
X8525982Y-9537584D01*
X8745030Y-9404250D02*
X8745030Y-9604250D01*
X8745030Y-9413774D02*
X8764077Y-9404250D01*
X8764077Y-9404250D02*
X8802173Y-9404250D01*
X8802173Y-9404250D02*
X8821220Y-9413774D01*
X8821220Y-9413774D02*
X8830744Y-9423298D01*
X8830744Y-9423298D02*
X8840268Y-9442346D01*
X8840268Y-9442346D02*
X8840268Y-9499489D01*
X8840268Y-9499489D02*
X8830744Y-9518536D01*
X8830744Y-9518536D02*
X8821220Y-9528060D01*
X8821220Y-9528060D02*
X8802173Y-9537584D01*
X8802173Y-9537584D02*
X8764077Y-9537584D01*
X8764077Y-9537584D02*
X8745030Y-9528060D01*
X8954554Y-9537584D02*
X8935506Y-9528060D01*
X8935506Y-9528060D02*
X8925982Y-9509012D01*
X8925982Y-9509012D02*
X8925982Y-9337584D01*
X9116458Y-9537584D02*
X9116458Y-9432822D01*
X9116458Y-9432822D02*
X9106935Y-9413774D01*
X9106935Y-9413774D02*
X9087887Y-9404250D01*
X9087887Y-9404250D02*
X9049792Y-9404250D01*
X9049792Y-9404250D02*
X9030744Y-9413774D01*
X9116458Y-9528060D02*
X9097411Y-9537584D01*
X9097411Y-9537584D02*
X9049792Y-9537584D01*
X9049792Y-9537584D02*
X9030744Y-9528060D01*
X9030744Y-9528060D02*
X9021220Y-9509012D01*
X9021220Y-9509012D02*
X9021220Y-9489965D01*
X9021220Y-9489965D02*
X9030744Y-9470917D01*
X9030744Y-9470917D02*
X9049792Y-9461393D01*
X9049792Y-9461393D02*
X9097411Y-9461393D01*
X9097411Y-9461393D02*
X9116458Y-9451870D01*
X9183125Y-9404250D02*
X9259315Y-9404250D01*
X9211696Y-9337584D02*
X9211696Y-9509012D01*
X9211696Y-9509012D02*
X9221220Y-9528060D01*
X9221220Y-9528060D02*
X9240268Y-9537584D01*
X9240268Y-9537584D02*
X9259315Y-9537584D01*
X9402173Y-9528060D02*
X9383125Y-9537584D01*
X9383125Y-9537584D02*
X9345030Y-9537584D01*
X9345030Y-9537584D02*
X9325982Y-9528060D01*
X9325982Y-9528060D02*
X9316458Y-9509012D01*
X9316458Y-9509012D02*
X9316458Y-9432822D01*
X9316458Y-9432822D02*
X9325982Y-9413774D01*
X9325982Y-9413774D02*
X9345030Y-9404250D01*
X9345030Y-9404250D02*
X9383125Y-9404250D01*
X9383125Y-9404250D02*
X9402173Y-9413774D01*
X9402173Y-9413774D02*
X9411696Y-9432822D01*
X9411696Y-9432822D02*
X9411696Y-9451870D01*
X9411696Y-9451870D02*
X9316458Y-9470917D01*
X9583125Y-9537584D02*
X9583125Y-9337584D01*
X9583125Y-9528060D02*
X9564077Y-9537584D01*
X9564077Y-9537584D02*
X9525982Y-9537584D01*
X9525982Y-9537584D02*
X9506935Y-9528060D01*
X9506935Y-9528060D02*
X9497411Y-9518536D01*
X9497411Y-9518536D02*
X9487887Y-9499489D01*
X9487887Y-9499489D02*
X9487887Y-9442346D01*
X9487887Y-9442346D02*
X9497411Y-9423298D01*
X9497411Y-9423298D02*
X9506935Y-9413774D01*
X9506935Y-9413774D02*
X9525982Y-9404250D01*
X9525982Y-9404250D02*
X9564077Y-9404250D01*
X9564077Y-9404250D02*
X9583125Y-9413774D01*
X9659316Y-9613774D02*
X9668839Y-9604250D01*
X9668839Y-9604250D02*
X9687887Y-9575679D01*
X9687887Y-9575679D02*
X9697411Y-9556631D01*
X9697411Y-9556631D02*
X9706935Y-9528060D01*
X9706935Y-9528060D02*
X9716458Y-9480441D01*
X9716458Y-9480441D02*
X9716458Y-9442346D01*
X9716458Y-9442346D02*
X9706935Y-9394727D01*
X9706935Y-9394727D02*
X9697411Y-9366155D01*
X9697411Y-9366155D02*
X9687887Y-9347108D01*
X9687887Y-9347108D02*
X9668839Y-9318536D01*
X9668839Y-9318536D02*
X9659316Y-9309012D01*
M02*
