G04 #@! TF.GenerationSoftware,KiCad,Pcbnew,7.0.9*
G04 #@! TF.CreationDate,2024-02-15T19:09:08+01:00*
G04 #@! TF.ProjectId,USBussy_Current_Probe,55534275-7373-4795-9f43-757272656e74,1.0*
G04 #@! TF.SameCoordinates,Original*
G04 #@! TF.FileFunction,Legend,Bot*
G04 #@! TF.FilePolarity,Positive*
%FSLAX46Y46*%
G04 Gerber Fmt 4.6, Leading zero omitted, Abs format (unit mm)*
G04 Created by KiCad (PCBNEW 7.0.9) date 2024-02-15 19:09:08*
%MOMM*%
%LPD*%
G01*
G04 APERTURE LIST*
%ADD10C,0.120000*%
%ADD11C,0.150000*%
%ADD12C,0.200000*%
%ADD13R,1.700000X1.700000*%
%ADD14O,1.700000X1.700000*%
%ADD15C,0.650000*%
%ADD16C,1.545000*%
%ADD17C,3.570000*%
G04 APERTURE END LIST*
D10*
X41335776Y-85450455D02*
X41335776Y-84917121D01*
X41335776Y-85069502D02*
X41297681Y-84993312D01*
X41297681Y-84993312D02*
X41259586Y-84955217D01*
X41259586Y-84955217D02*
X41183395Y-84917121D01*
X41183395Y-84917121D02*
X41107205Y-84917121D01*
X40535776Y-85412360D02*
X40611967Y-85450455D01*
X40611967Y-85450455D02*
X40764348Y-85450455D01*
X40764348Y-85450455D02*
X40840538Y-85412360D01*
X40840538Y-85412360D02*
X40878634Y-85336169D01*
X40878634Y-85336169D02*
X40878634Y-85031407D01*
X40878634Y-85031407D02*
X40840538Y-84955217D01*
X40840538Y-84955217D02*
X40764348Y-84917121D01*
X40764348Y-84917121D02*
X40611967Y-84917121D01*
X40611967Y-84917121D02*
X40535776Y-84955217D01*
X40535776Y-84955217D02*
X40497681Y-85031407D01*
X40497681Y-85031407D02*
X40497681Y-85107598D01*
X40497681Y-85107598D02*
X40878634Y-85183788D01*
X40231015Y-84917121D02*
X40040539Y-85450455D01*
X40040539Y-85450455D02*
X39850062Y-84917121D01*
X38516729Y-85450455D02*
X38973872Y-85450455D01*
X38745300Y-85450455D02*
X38745300Y-84650455D01*
X38745300Y-84650455D02*
X38821491Y-84764740D01*
X38821491Y-84764740D02*
X38897681Y-84840931D01*
X38897681Y-84840931D02*
X38973872Y-84879026D01*
X38173871Y-85374264D02*
X38135776Y-85412360D01*
X38135776Y-85412360D02*
X38173871Y-85450455D01*
X38173871Y-85450455D02*
X38211967Y-85412360D01*
X38211967Y-85412360D02*
X38173871Y-85374264D01*
X38173871Y-85374264D02*
X38173871Y-85450455D01*
X37640538Y-84650455D02*
X37564348Y-84650455D01*
X37564348Y-84650455D02*
X37488157Y-84688550D01*
X37488157Y-84688550D02*
X37450062Y-84726645D01*
X37450062Y-84726645D02*
X37411967Y-84802836D01*
X37411967Y-84802836D02*
X37373872Y-84955217D01*
X37373872Y-84955217D02*
X37373872Y-85145693D01*
X37373872Y-85145693D02*
X37411967Y-85298074D01*
X37411967Y-85298074D02*
X37450062Y-85374264D01*
X37450062Y-85374264D02*
X37488157Y-85412360D01*
X37488157Y-85412360D02*
X37564348Y-85450455D01*
X37564348Y-85450455D02*
X37640538Y-85450455D01*
X37640538Y-85450455D02*
X37716729Y-85412360D01*
X37716729Y-85412360D02*
X37754824Y-85374264D01*
X37754824Y-85374264D02*
X37792919Y-85298074D01*
X37792919Y-85298074D02*
X37831015Y-85145693D01*
X37831015Y-85145693D02*
X37831015Y-84955217D01*
X37831015Y-84955217D02*
X37792919Y-84802836D01*
X37792919Y-84802836D02*
X37754824Y-84726645D01*
X37754824Y-84726645D02*
X37716729Y-84688550D01*
X37716729Y-84688550D02*
X37640538Y-84650455D01*
X41373872Y-86014645D02*
X41335776Y-85976550D01*
X41335776Y-85976550D02*
X41259586Y-85938455D01*
X41259586Y-85938455D02*
X41069110Y-85938455D01*
X41069110Y-85938455D02*
X40992919Y-85976550D01*
X40992919Y-85976550D02*
X40954824Y-86014645D01*
X40954824Y-86014645D02*
X40916729Y-86090836D01*
X40916729Y-86090836D02*
X40916729Y-86167026D01*
X40916729Y-86167026D02*
X40954824Y-86281312D01*
X40954824Y-86281312D02*
X41411967Y-86738455D01*
X41411967Y-86738455D02*
X40916729Y-86738455D01*
X40421490Y-85938455D02*
X40345300Y-85938455D01*
X40345300Y-85938455D02*
X40269109Y-85976550D01*
X40269109Y-85976550D02*
X40231014Y-86014645D01*
X40231014Y-86014645D02*
X40192919Y-86090836D01*
X40192919Y-86090836D02*
X40154824Y-86243217D01*
X40154824Y-86243217D02*
X40154824Y-86433693D01*
X40154824Y-86433693D02*
X40192919Y-86586074D01*
X40192919Y-86586074D02*
X40231014Y-86662264D01*
X40231014Y-86662264D02*
X40269109Y-86700360D01*
X40269109Y-86700360D02*
X40345300Y-86738455D01*
X40345300Y-86738455D02*
X40421490Y-86738455D01*
X40421490Y-86738455D02*
X40497681Y-86700360D01*
X40497681Y-86700360D02*
X40535776Y-86662264D01*
X40535776Y-86662264D02*
X40573871Y-86586074D01*
X40573871Y-86586074D02*
X40611967Y-86433693D01*
X40611967Y-86433693D02*
X40611967Y-86243217D01*
X40611967Y-86243217D02*
X40573871Y-86090836D01*
X40573871Y-86090836D02*
X40535776Y-86014645D01*
X40535776Y-86014645D02*
X40497681Y-85976550D01*
X40497681Y-85976550D02*
X40421490Y-85938455D01*
X39850062Y-86014645D02*
X39811966Y-85976550D01*
X39811966Y-85976550D02*
X39735776Y-85938455D01*
X39735776Y-85938455D02*
X39545300Y-85938455D01*
X39545300Y-85938455D02*
X39469109Y-85976550D01*
X39469109Y-85976550D02*
X39431014Y-86014645D01*
X39431014Y-86014645D02*
X39392919Y-86090836D01*
X39392919Y-86090836D02*
X39392919Y-86167026D01*
X39392919Y-86167026D02*
X39431014Y-86281312D01*
X39431014Y-86281312D02*
X39888157Y-86738455D01*
X39888157Y-86738455D02*
X39392919Y-86738455D01*
X38707204Y-86205121D02*
X38707204Y-86738455D01*
X38897680Y-85900360D02*
X39088157Y-86471788D01*
X39088157Y-86471788D02*
X38592918Y-86471788D01*
X38288156Y-86433693D02*
X37678633Y-86433693D01*
X37145299Y-85938455D02*
X37069109Y-85938455D01*
X37069109Y-85938455D02*
X36992918Y-85976550D01*
X36992918Y-85976550D02*
X36954823Y-86014645D01*
X36954823Y-86014645D02*
X36916728Y-86090836D01*
X36916728Y-86090836D02*
X36878633Y-86243217D01*
X36878633Y-86243217D02*
X36878633Y-86433693D01*
X36878633Y-86433693D02*
X36916728Y-86586074D01*
X36916728Y-86586074D02*
X36954823Y-86662264D01*
X36954823Y-86662264D02*
X36992918Y-86700360D01*
X36992918Y-86700360D02*
X37069109Y-86738455D01*
X37069109Y-86738455D02*
X37145299Y-86738455D01*
X37145299Y-86738455D02*
X37221490Y-86700360D01*
X37221490Y-86700360D02*
X37259585Y-86662264D01*
X37259585Y-86662264D02*
X37297680Y-86586074D01*
X37297680Y-86586074D02*
X37335776Y-86433693D01*
X37335776Y-86433693D02*
X37335776Y-86243217D01*
X37335776Y-86243217D02*
X37297680Y-86090836D01*
X37297680Y-86090836D02*
X37259585Y-86014645D01*
X37259585Y-86014645D02*
X37221490Y-85976550D01*
X37221490Y-85976550D02*
X37145299Y-85938455D01*
X36573871Y-86014645D02*
X36535775Y-85976550D01*
X36535775Y-85976550D02*
X36459585Y-85938455D01*
X36459585Y-85938455D02*
X36269109Y-85938455D01*
X36269109Y-85938455D02*
X36192918Y-85976550D01*
X36192918Y-85976550D02*
X36154823Y-86014645D01*
X36154823Y-86014645D02*
X36116728Y-86090836D01*
X36116728Y-86090836D02*
X36116728Y-86167026D01*
X36116728Y-86167026D02*
X36154823Y-86281312D01*
X36154823Y-86281312D02*
X36611966Y-86738455D01*
X36611966Y-86738455D02*
X36116728Y-86738455D01*
X35773870Y-86433693D02*
X35164347Y-86433693D01*
X34364347Y-86738455D02*
X34821490Y-86738455D01*
X34592918Y-86738455D02*
X34592918Y-85938455D01*
X34592918Y-85938455D02*
X34669109Y-86052740D01*
X34669109Y-86052740D02*
X34745299Y-86128931D01*
X34745299Y-86128931D02*
X34821490Y-86167026D01*
X33640537Y-85938455D02*
X34021489Y-85938455D01*
X34021489Y-85938455D02*
X34059585Y-86319407D01*
X34059585Y-86319407D02*
X34021489Y-86281312D01*
X34021489Y-86281312D02*
X33945299Y-86243217D01*
X33945299Y-86243217D02*
X33754823Y-86243217D01*
X33754823Y-86243217D02*
X33678632Y-86281312D01*
X33678632Y-86281312D02*
X33640537Y-86319407D01*
X33640537Y-86319407D02*
X33602442Y-86395598D01*
X33602442Y-86395598D02*
X33602442Y-86586074D01*
X33602442Y-86586074D02*
X33640537Y-86662264D01*
X33640537Y-86662264D02*
X33678632Y-86700360D01*
X33678632Y-86700360D02*
X33754823Y-86738455D01*
X33754823Y-86738455D02*
X33945299Y-86738455D01*
X33945299Y-86738455D02*
X34021489Y-86700360D01*
X34021489Y-86700360D02*
X34059585Y-86662264D01*
X61909776Y-84022855D02*
X61909776Y-84670474D01*
X61909776Y-84670474D02*
X61871681Y-84746664D01*
X61871681Y-84746664D02*
X61833586Y-84784760D01*
X61833586Y-84784760D02*
X61757395Y-84822855D01*
X61757395Y-84822855D02*
X61605014Y-84822855D01*
X61605014Y-84822855D02*
X61528824Y-84784760D01*
X61528824Y-84784760D02*
X61490729Y-84746664D01*
X61490729Y-84746664D02*
X61452633Y-84670474D01*
X61452633Y-84670474D02*
X61452633Y-84022855D01*
X61109777Y-84784760D02*
X60995491Y-84822855D01*
X60995491Y-84822855D02*
X60805015Y-84822855D01*
X60805015Y-84822855D02*
X60728824Y-84784760D01*
X60728824Y-84784760D02*
X60690729Y-84746664D01*
X60690729Y-84746664D02*
X60652634Y-84670474D01*
X60652634Y-84670474D02*
X60652634Y-84594283D01*
X60652634Y-84594283D02*
X60690729Y-84518093D01*
X60690729Y-84518093D02*
X60728824Y-84479998D01*
X60728824Y-84479998D02*
X60805015Y-84441902D01*
X60805015Y-84441902D02*
X60957396Y-84403807D01*
X60957396Y-84403807D02*
X61033586Y-84365712D01*
X61033586Y-84365712D02*
X61071681Y-84327617D01*
X61071681Y-84327617D02*
X61109777Y-84251426D01*
X61109777Y-84251426D02*
X61109777Y-84175236D01*
X61109777Y-84175236D02*
X61071681Y-84099045D01*
X61071681Y-84099045D02*
X61033586Y-84060950D01*
X61033586Y-84060950D02*
X60957396Y-84022855D01*
X60957396Y-84022855D02*
X60766919Y-84022855D01*
X60766919Y-84022855D02*
X60652634Y-84060950D01*
X60043110Y-84403807D02*
X59928824Y-84441902D01*
X59928824Y-84441902D02*
X59890729Y-84479998D01*
X59890729Y-84479998D02*
X59852633Y-84556188D01*
X59852633Y-84556188D02*
X59852633Y-84670474D01*
X59852633Y-84670474D02*
X59890729Y-84746664D01*
X59890729Y-84746664D02*
X59928824Y-84784760D01*
X59928824Y-84784760D02*
X60005014Y-84822855D01*
X60005014Y-84822855D02*
X60309776Y-84822855D01*
X60309776Y-84822855D02*
X60309776Y-84022855D01*
X60309776Y-84022855D02*
X60043110Y-84022855D01*
X60043110Y-84022855D02*
X59966919Y-84060950D01*
X59966919Y-84060950D02*
X59928824Y-84099045D01*
X59928824Y-84099045D02*
X59890729Y-84175236D01*
X59890729Y-84175236D02*
X59890729Y-84251426D01*
X59890729Y-84251426D02*
X59928824Y-84327617D01*
X59928824Y-84327617D02*
X59966919Y-84365712D01*
X59966919Y-84365712D02*
X60043110Y-84403807D01*
X60043110Y-84403807D02*
X60309776Y-84403807D01*
X59166919Y-84289521D02*
X59166919Y-84822855D01*
X59509776Y-84289521D02*
X59509776Y-84708569D01*
X59509776Y-84708569D02*
X59471681Y-84784760D01*
X59471681Y-84784760D02*
X59395491Y-84822855D01*
X59395491Y-84822855D02*
X59281205Y-84822855D01*
X59281205Y-84822855D02*
X59205014Y-84784760D01*
X59205014Y-84784760D02*
X59166919Y-84746664D01*
X58824062Y-84784760D02*
X58747871Y-84822855D01*
X58747871Y-84822855D02*
X58595490Y-84822855D01*
X58595490Y-84822855D02*
X58519300Y-84784760D01*
X58519300Y-84784760D02*
X58481204Y-84708569D01*
X58481204Y-84708569D02*
X58481204Y-84670474D01*
X58481204Y-84670474D02*
X58519300Y-84594283D01*
X58519300Y-84594283D02*
X58595490Y-84556188D01*
X58595490Y-84556188D02*
X58709776Y-84556188D01*
X58709776Y-84556188D02*
X58785966Y-84518093D01*
X58785966Y-84518093D02*
X58824062Y-84441902D01*
X58824062Y-84441902D02*
X58824062Y-84403807D01*
X58824062Y-84403807D02*
X58785966Y-84327617D01*
X58785966Y-84327617D02*
X58709776Y-84289521D01*
X58709776Y-84289521D02*
X58595490Y-84289521D01*
X58595490Y-84289521D02*
X58519300Y-84327617D01*
X58176443Y-84784760D02*
X58100252Y-84822855D01*
X58100252Y-84822855D02*
X57947871Y-84822855D01*
X57947871Y-84822855D02*
X57871681Y-84784760D01*
X57871681Y-84784760D02*
X57833585Y-84708569D01*
X57833585Y-84708569D02*
X57833585Y-84670474D01*
X57833585Y-84670474D02*
X57871681Y-84594283D01*
X57871681Y-84594283D02*
X57947871Y-84556188D01*
X57947871Y-84556188D02*
X58062157Y-84556188D01*
X58062157Y-84556188D02*
X58138347Y-84518093D01*
X58138347Y-84518093D02*
X58176443Y-84441902D01*
X58176443Y-84441902D02*
X58176443Y-84403807D01*
X58176443Y-84403807D02*
X58138347Y-84327617D01*
X58138347Y-84327617D02*
X58062157Y-84289521D01*
X58062157Y-84289521D02*
X57947871Y-84289521D01*
X57947871Y-84289521D02*
X57871681Y-84327617D01*
X57566919Y-84289521D02*
X57376443Y-84822855D01*
X57185966Y-84289521D02*
X57376443Y-84822855D01*
X57376443Y-84822855D02*
X57452633Y-85013331D01*
X57452633Y-85013331D02*
X57490728Y-85051426D01*
X57490728Y-85051426D02*
X57566919Y-85089521D01*
X55814537Y-84746664D02*
X55852633Y-84784760D01*
X55852633Y-84784760D02*
X55966918Y-84822855D01*
X55966918Y-84822855D02*
X56043109Y-84822855D01*
X56043109Y-84822855D02*
X56157395Y-84784760D01*
X56157395Y-84784760D02*
X56233585Y-84708569D01*
X56233585Y-84708569D02*
X56271680Y-84632379D01*
X56271680Y-84632379D02*
X56309776Y-84479998D01*
X56309776Y-84479998D02*
X56309776Y-84365712D01*
X56309776Y-84365712D02*
X56271680Y-84213331D01*
X56271680Y-84213331D02*
X56233585Y-84137140D01*
X56233585Y-84137140D02*
X56157395Y-84060950D01*
X56157395Y-84060950D02*
X56043109Y-84022855D01*
X56043109Y-84022855D02*
X55966918Y-84022855D01*
X55966918Y-84022855D02*
X55852633Y-84060950D01*
X55852633Y-84060950D02*
X55814537Y-84099045D01*
X55128823Y-84289521D02*
X55128823Y-84822855D01*
X55471680Y-84289521D02*
X55471680Y-84708569D01*
X55471680Y-84708569D02*
X55433585Y-84784760D01*
X55433585Y-84784760D02*
X55357395Y-84822855D01*
X55357395Y-84822855D02*
X55243109Y-84822855D01*
X55243109Y-84822855D02*
X55166918Y-84784760D01*
X55166918Y-84784760D02*
X55128823Y-84746664D01*
X54747870Y-84822855D02*
X54747870Y-84289521D01*
X54747870Y-84441902D02*
X54709775Y-84365712D01*
X54709775Y-84365712D02*
X54671680Y-84327617D01*
X54671680Y-84327617D02*
X54595489Y-84289521D01*
X54595489Y-84289521D02*
X54519299Y-84289521D01*
X54252632Y-84822855D02*
X54252632Y-84289521D01*
X54252632Y-84441902D02*
X54214537Y-84365712D01*
X54214537Y-84365712D02*
X54176442Y-84327617D01*
X54176442Y-84327617D02*
X54100251Y-84289521D01*
X54100251Y-84289521D02*
X54024061Y-84289521D01*
X53452632Y-84784760D02*
X53528823Y-84822855D01*
X53528823Y-84822855D02*
X53681204Y-84822855D01*
X53681204Y-84822855D02*
X53757394Y-84784760D01*
X53757394Y-84784760D02*
X53795490Y-84708569D01*
X53795490Y-84708569D02*
X53795490Y-84403807D01*
X53795490Y-84403807D02*
X53757394Y-84327617D01*
X53757394Y-84327617D02*
X53681204Y-84289521D01*
X53681204Y-84289521D02*
X53528823Y-84289521D01*
X53528823Y-84289521D02*
X53452632Y-84327617D01*
X53452632Y-84327617D02*
X53414537Y-84403807D01*
X53414537Y-84403807D02*
X53414537Y-84479998D01*
X53414537Y-84479998D02*
X53795490Y-84556188D01*
X53071680Y-84289521D02*
X53071680Y-84822855D01*
X53071680Y-84365712D02*
X53033585Y-84327617D01*
X53033585Y-84327617D02*
X52957395Y-84289521D01*
X52957395Y-84289521D02*
X52843109Y-84289521D01*
X52843109Y-84289521D02*
X52766918Y-84327617D01*
X52766918Y-84327617D02*
X52728823Y-84403807D01*
X52728823Y-84403807D02*
X52728823Y-84822855D01*
X52462156Y-84289521D02*
X52157394Y-84289521D01*
X52347870Y-84022855D02*
X52347870Y-84708569D01*
X52347870Y-84708569D02*
X52309775Y-84784760D01*
X52309775Y-84784760D02*
X52233585Y-84822855D01*
X52233585Y-84822855D02*
X52157394Y-84822855D01*
X51281203Y-84822855D02*
X51281203Y-84022855D01*
X51281203Y-84022855D02*
X50976441Y-84022855D01*
X50976441Y-84022855D02*
X50900251Y-84060950D01*
X50900251Y-84060950D02*
X50862156Y-84099045D01*
X50862156Y-84099045D02*
X50824060Y-84175236D01*
X50824060Y-84175236D02*
X50824060Y-84289521D01*
X50824060Y-84289521D02*
X50862156Y-84365712D01*
X50862156Y-84365712D02*
X50900251Y-84403807D01*
X50900251Y-84403807D02*
X50976441Y-84441902D01*
X50976441Y-84441902D02*
X51281203Y-84441902D01*
X50481203Y-84822855D02*
X50481203Y-84289521D01*
X50481203Y-84441902D02*
X50443108Y-84365712D01*
X50443108Y-84365712D02*
X50405013Y-84327617D01*
X50405013Y-84327617D02*
X50328822Y-84289521D01*
X50328822Y-84289521D02*
X50252632Y-84289521D01*
X49871680Y-84822855D02*
X49947870Y-84784760D01*
X49947870Y-84784760D02*
X49985965Y-84746664D01*
X49985965Y-84746664D02*
X50024061Y-84670474D01*
X50024061Y-84670474D02*
X50024061Y-84441902D01*
X50024061Y-84441902D02*
X49985965Y-84365712D01*
X49985965Y-84365712D02*
X49947870Y-84327617D01*
X49947870Y-84327617D02*
X49871680Y-84289521D01*
X49871680Y-84289521D02*
X49757394Y-84289521D01*
X49757394Y-84289521D02*
X49681203Y-84327617D01*
X49681203Y-84327617D02*
X49643108Y-84365712D01*
X49643108Y-84365712D02*
X49605013Y-84441902D01*
X49605013Y-84441902D02*
X49605013Y-84670474D01*
X49605013Y-84670474D02*
X49643108Y-84746664D01*
X49643108Y-84746664D02*
X49681203Y-84784760D01*
X49681203Y-84784760D02*
X49757394Y-84822855D01*
X49757394Y-84822855D02*
X49871680Y-84822855D01*
X49262155Y-84822855D02*
X49262155Y-84022855D01*
X49262155Y-84327617D02*
X49185965Y-84289521D01*
X49185965Y-84289521D02*
X49033584Y-84289521D01*
X49033584Y-84289521D02*
X48957393Y-84327617D01*
X48957393Y-84327617D02*
X48919298Y-84365712D01*
X48919298Y-84365712D02*
X48881203Y-84441902D01*
X48881203Y-84441902D02*
X48881203Y-84670474D01*
X48881203Y-84670474D02*
X48919298Y-84746664D01*
X48919298Y-84746664D02*
X48957393Y-84784760D01*
X48957393Y-84784760D02*
X49033584Y-84822855D01*
X49033584Y-84822855D02*
X49185965Y-84822855D01*
X49185965Y-84822855D02*
X49262155Y-84784760D01*
X48233583Y-84784760D02*
X48309774Y-84822855D01*
X48309774Y-84822855D02*
X48462155Y-84822855D01*
X48462155Y-84822855D02*
X48538345Y-84784760D01*
X48538345Y-84784760D02*
X48576441Y-84708569D01*
X48576441Y-84708569D02*
X48576441Y-84403807D01*
X48576441Y-84403807D02*
X48538345Y-84327617D01*
X48538345Y-84327617D02*
X48462155Y-84289521D01*
X48462155Y-84289521D02*
X48309774Y-84289521D01*
X48309774Y-84289521D02*
X48233583Y-84327617D01*
X48233583Y-84327617D02*
X48195488Y-84403807D01*
X48195488Y-84403807D02*
X48195488Y-84479998D01*
X48195488Y-84479998D02*
X48576441Y-84556188D01*
X61947872Y-85882283D02*
X61566919Y-85882283D01*
X62024062Y-86110855D02*
X61757395Y-85310855D01*
X61757395Y-85310855D02*
X61490729Y-86110855D01*
X61109777Y-86110855D02*
X61185967Y-86072760D01*
X61185967Y-86072760D02*
X61224062Y-85996569D01*
X61224062Y-85996569D02*
X61224062Y-85310855D01*
X60500252Y-86072760D02*
X60576443Y-86110855D01*
X60576443Y-86110855D02*
X60728824Y-86110855D01*
X60728824Y-86110855D02*
X60805014Y-86072760D01*
X60805014Y-86072760D02*
X60843110Y-85996569D01*
X60843110Y-85996569D02*
X60843110Y-85691807D01*
X60843110Y-85691807D02*
X60805014Y-85615617D01*
X60805014Y-85615617D02*
X60728824Y-85577521D01*
X60728824Y-85577521D02*
X60576443Y-85577521D01*
X60576443Y-85577521D02*
X60500252Y-85615617D01*
X60500252Y-85615617D02*
X60462157Y-85691807D01*
X60462157Y-85691807D02*
X60462157Y-85767998D01*
X60462157Y-85767998D02*
X60843110Y-85844188D01*
X60195491Y-86110855D02*
X59776443Y-85577521D01*
X60195491Y-85577521D02*
X59776443Y-86110855D01*
X58976443Y-85310855D02*
X58709776Y-86110855D01*
X58709776Y-86110855D02*
X58443110Y-85310855D01*
X58062158Y-86110855D02*
X58138348Y-86072760D01*
X58138348Y-86072760D02*
X58176443Y-86034664D01*
X58176443Y-86034664D02*
X58214539Y-85958474D01*
X58214539Y-85958474D02*
X58214539Y-85729902D01*
X58214539Y-85729902D02*
X58176443Y-85653712D01*
X58176443Y-85653712D02*
X58138348Y-85615617D01*
X58138348Y-85615617D02*
X58062158Y-85577521D01*
X58062158Y-85577521D02*
X57947872Y-85577521D01*
X57947872Y-85577521D02*
X57871681Y-85615617D01*
X57871681Y-85615617D02*
X57833586Y-85653712D01*
X57833586Y-85653712D02*
X57795491Y-85729902D01*
X57795491Y-85729902D02*
X57795491Y-85958474D01*
X57795491Y-85958474D02*
X57833586Y-86034664D01*
X57833586Y-86034664D02*
X57871681Y-86072760D01*
X57871681Y-86072760D02*
X57947872Y-86110855D01*
X57947872Y-86110855D02*
X58062158Y-86110855D01*
X57452633Y-86110855D02*
X57452633Y-85577521D01*
X57452633Y-85310855D02*
X57490729Y-85348950D01*
X57490729Y-85348950D02*
X57452633Y-85387045D01*
X57452633Y-85387045D02*
X57414538Y-85348950D01*
X57414538Y-85348950D02*
X57452633Y-85310855D01*
X57452633Y-85310855D02*
X57452633Y-85387045D01*
X57071681Y-85577521D02*
X57071681Y-86110855D01*
X57071681Y-85653712D02*
X57033586Y-85615617D01*
X57033586Y-85615617D02*
X56957396Y-85577521D01*
X56957396Y-85577521D02*
X56843110Y-85577521D01*
X56843110Y-85577521D02*
X56766919Y-85615617D01*
X56766919Y-85615617D02*
X56728824Y-85691807D01*
X56728824Y-85691807D02*
X56728824Y-86110855D01*
X56043109Y-86072760D02*
X56119300Y-86110855D01*
X56119300Y-86110855D02*
X56271681Y-86110855D01*
X56271681Y-86110855D02*
X56347871Y-86072760D01*
X56347871Y-86072760D02*
X56385967Y-85996569D01*
X56385967Y-85996569D02*
X56385967Y-85691807D01*
X56385967Y-85691807D02*
X56347871Y-85615617D01*
X56347871Y-85615617D02*
X56271681Y-85577521D01*
X56271681Y-85577521D02*
X56119300Y-85577521D01*
X56119300Y-85577521D02*
X56043109Y-85615617D01*
X56043109Y-85615617D02*
X56005014Y-85691807D01*
X56005014Y-85691807D02*
X56005014Y-85767998D01*
X56005014Y-85767998D02*
X56385967Y-85844188D01*
X55319300Y-86110855D02*
X55319300Y-85691807D01*
X55319300Y-85691807D02*
X55357395Y-85615617D01*
X55357395Y-85615617D02*
X55433586Y-85577521D01*
X55433586Y-85577521D02*
X55585967Y-85577521D01*
X55585967Y-85577521D02*
X55662157Y-85615617D01*
X55319300Y-86072760D02*
X55395491Y-86110855D01*
X55395491Y-86110855D02*
X55585967Y-86110855D01*
X55585967Y-86110855D02*
X55662157Y-86072760D01*
X55662157Y-86072760D02*
X55700253Y-85996569D01*
X55700253Y-85996569D02*
X55700253Y-85920379D01*
X55700253Y-85920379D02*
X55662157Y-85844188D01*
X55662157Y-85844188D02*
X55585967Y-85806093D01*
X55585967Y-85806093D02*
X55395491Y-85806093D01*
X55395491Y-85806093D02*
X55319300Y-85767998D01*
X61909776Y-87398855D02*
X61909776Y-86598855D01*
X61566919Y-87398855D02*
X61566919Y-86979807D01*
X61566919Y-86979807D02*
X61605014Y-86903617D01*
X61605014Y-86903617D02*
X61681205Y-86865521D01*
X61681205Y-86865521D02*
X61795491Y-86865521D01*
X61795491Y-86865521D02*
X61871681Y-86903617D01*
X61871681Y-86903617D02*
X61909776Y-86941712D01*
X61300252Y-86865521D02*
X60995490Y-86865521D01*
X61185966Y-86598855D02*
X61185966Y-87284569D01*
X61185966Y-87284569D02*
X61147871Y-87360760D01*
X61147871Y-87360760D02*
X61071681Y-87398855D01*
X61071681Y-87398855D02*
X60995490Y-87398855D01*
X60843109Y-86865521D02*
X60538347Y-86865521D01*
X60728823Y-86598855D02*
X60728823Y-87284569D01*
X60728823Y-87284569D02*
X60690728Y-87360760D01*
X60690728Y-87360760D02*
X60614538Y-87398855D01*
X60614538Y-87398855D02*
X60538347Y-87398855D01*
X60271680Y-86865521D02*
X60271680Y-87665521D01*
X60271680Y-86903617D02*
X60195490Y-86865521D01*
X60195490Y-86865521D02*
X60043109Y-86865521D01*
X60043109Y-86865521D02*
X59966918Y-86903617D01*
X59966918Y-86903617D02*
X59928823Y-86941712D01*
X59928823Y-86941712D02*
X59890728Y-87017902D01*
X59890728Y-87017902D02*
X59890728Y-87246474D01*
X59890728Y-87246474D02*
X59928823Y-87322664D01*
X59928823Y-87322664D02*
X59966918Y-87360760D01*
X59966918Y-87360760D02*
X60043109Y-87398855D01*
X60043109Y-87398855D02*
X60195490Y-87398855D01*
X60195490Y-87398855D02*
X60271680Y-87360760D01*
X59585966Y-87360760D02*
X59509775Y-87398855D01*
X59509775Y-87398855D02*
X59357394Y-87398855D01*
X59357394Y-87398855D02*
X59281204Y-87360760D01*
X59281204Y-87360760D02*
X59243108Y-87284569D01*
X59243108Y-87284569D02*
X59243108Y-87246474D01*
X59243108Y-87246474D02*
X59281204Y-87170283D01*
X59281204Y-87170283D02*
X59357394Y-87132188D01*
X59357394Y-87132188D02*
X59471680Y-87132188D01*
X59471680Y-87132188D02*
X59547870Y-87094093D01*
X59547870Y-87094093D02*
X59585966Y-87017902D01*
X59585966Y-87017902D02*
X59585966Y-86979807D01*
X59585966Y-86979807D02*
X59547870Y-86903617D01*
X59547870Y-86903617D02*
X59471680Y-86865521D01*
X59471680Y-86865521D02*
X59357394Y-86865521D01*
X59357394Y-86865521D02*
X59281204Y-86903617D01*
X58900251Y-87322664D02*
X58862156Y-87360760D01*
X58862156Y-87360760D02*
X58900251Y-87398855D01*
X58900251Y-87398855D02*
X58938347Y-87360760D01*
X58938347Y-87360760D02*
X58900251Y-87322664D01*
X58900251Y-87322664D02*
X58900251Y-87398855D01*
X58900251Y-86903617D02*
X58862156Y-86941712D01*
X58862156Y-86941712D02*
X58900251Y-86979807D01*
X58900251Y-86979807D02*
X58938347Y-86941712D01*
X58938347Y-86941712D02*
X58900251Y-86903617D01*
X58900251Y-86903617D02*
X58900251Y-86979807D01*
X57947871Y-86560760D02*
X58633585Y-87589331D01*
X57109776Y-86560760D02*
X57795490Y-87589331D01*
X56500252Y-86865521D02*
X56500252Y-87513140D01*
X56500252Y-87513140D02*
X56538347Y-87589331D01*
X56538347Y-87589331D02*
X56576443Y-87627426D01*
X56576443Y-87627426D02*
X56652633Y-87665521D01*
X56652633Y-87665521D02*
X56766919Y-87665521D01*
X56766919Y-87665521D02*
X56843109Y-87627426D01*
X56500252Y-87360760D02*
X56576443Y-87398855D01*
X56576443Y-87398855D02*
X56728824Y-87398855D01*
X56728824Y-87398855D02*
X56805014Y-87360760D01*
X56805014Y-87360760D02*
X56843109Y-87322664D01*
X56843109Y-87322664D02*
X56881205Y-87246474D01*
X56881205Y-87246474D02*
X56881205Y-87017902D01*
X56881205Y-87017902D02*
X56843109Y-86941712D01*
X56843109Y-86941712D02*
X56805014Y-86903617D01*
X56805014Y-86903617D02*
X56728824Y-86865521D01*
X56728824Y-86865521D02*
X56576443Y-86865521D01*
X56576443Y-86865521D02*
X56500252Y-86903617D01*
X56119299Y-87398855D02*
X56119299Y-86865521D01*
X56119299Y-86598855D02*
X56157395Y-86636950D01*
X56157395Y-86636950D02*
X56119299Y-86675045D01*
X56119299Y-86675045D02*
X56081204Y-86636950D01*
X56081204Y-86636950D02*
X56119299Y-86598855D01*
X56119299Y-86598855D02*
X56119299Y-86675045D01*
X55852633Y-86865521D02*
X55547871Y-86865521D01*
X55738347Y-86598855D02*
X55738347Y-87284569D01*
X55738347Y-87284569D02*
X55700252Y-87360760D01*
X55700252Y-87360760D02*
X55624062Y-87398855D01*
X55624062Y-87398855D02*
X55547871Y-87398855D01*
X55281204Y-87398855D02*
X55281204Y-86598855D01*
X54938347Y-87398855D02*
X54938347Y-86979807D01*
X54938347Y-86979807D02*
X54976442Y-86903617D01*
X54976442Y-86903617D02*
X55052633Y-86865521D01*
X55052633Y-86865521D02*
X55166919Y-86865521D01*
X55166919Y-86865521D02*
X55243109Y-86903617D01*
X55243109Y-86903617D02*
X55281204Y-86941712D01*
X54214537Y-86865521D02*
X54214537Y-87398855D01*
X54557394Y-86865521D02*
X54557394Y-87284569D01*
X54557394Y-87284569D02*
X54519299Y-87360760D01*
X54519299Y-87360760D02*
X54443109Y-87398855D01*
X54443109Y-87398855D02*
X54328823Y-87398855D01*
X54328823Y-87398855D02*
X54252632Y-87360760D01*
X54252632Y-87360760D02*
X54214537Y-87322664D01*
X53833584Y-87398855D02*
X53833584Y-86598855D01*
X53833584Y-86903617D02*
X53757394Y-86865521D01*
X53757394Y-86865521D02*
X53605013Y-86865521D01*
X53605013Y-86865521D02*
X53528822Y-86903617D01*
X53528822Y-86903617D02*
X53490727Y-86941712D01*
X53490727Y-86941712D02*
X53452632Y-87017902D01*
X53452632Y-87017902D02*
X53452632Y-87246474D01*
X53452632Y-87246474D02*
X53490727Y-87322664D01*
X53490727Y-87322664D02*
X53528822Y-87360760D01*
X53528822Y-87360760D02*
X53605013Y-87398855D01*
X53605013Y-87398855D02*
X53757394Y-87398855D01*
X53757394Y-87398855D02*
X53833584Y-87360760D01*
X53109774Y-87322664D02*
X53071679Y-87360760D01*
X53071679Y-87360760D02*
X53109774Y-87398855D01*
X53109774Y-87398855D02*
X53147870Y-87360760D01*
X53147870Y-87360760D02*
X53109774Y-87322664D01*
X53109774Y-87322664D02*
X53109774Y-87398855D01*
X52385965Y-87360760D02*
X52462156Y-87398855D01*
X52462156Y-87398855D02*
X52614537Y-87398855D01*
X52614537Y-87398855D02*
X52690727Y-87360760D01*
X52690727Y-87360760D02*
X52728822Y-87322664D01*
X52728822Y-87322664D02*
X52766918Y-87246474D01*
X52766918Y-87246474D02*
X52766918Y-87017902D01*
X52766918Y-87017902D02*
X52728822Y-86941712D01*
X52728822Y-86941712D02*
X52690727Y-86903617D01*
X52690727Y-86903617D02*
X52614537Y-86865521D01*
X52614537Y-86865521D02*
X52462156Y-86865521D01*
X52462156Y-86865521D02*
X52385965Y-86903617D01*
X51928823Y-87398855D02*
X52005013Y-87360760D01*
X52005013Y-87360760D02*
X52043108Y-87322664D01*
X52043108Y-87322664D02*
X52081204Y-87246474D01*
X52081204Y-87246474D02*
X52081204Y-87017902D01*
X52081204Y-87017902D02*
X52043108Y-86941712D01*
X52043108Y-86941712D02*
X52005013Y-86903617D01*
X52005013Y-86903617D02*
X51928823Y-86865521D01*
X51928823Y-86865521D02*
X51814537Y-86865521D01*
X51814537Y-86865521D02*
X51738346Y-86903617D01*
X51738346Y-86903617D02*
X51700251Y-86941712D01*
X51700251Y-86941712D02*
X51662156Y-87017902D01*
X51662156Y-87017902D02*
X51662156Y-87246474D01*
X51662156Y-87246474D02*
X51700251Y-87322664D01*
X51700251Y-87322664D02*
X51738346Y-87360760D01*
X51738346Y-87360760D02*
X51814537Y-87398855D01*
X51814537Y-87398855D02*
X51928823Y-87398855D01*
X51319298Y-87398855D02*
X51319298Y-86865521D01*
X51319298Y-86941712D02*
X51281203Y-86903617D01*
X51281203Y-86903617D02*
X51205013Y-86865521D01*
X51205013Y-86865521D02*
X51090727Y-86865521D01*
X51090727Y-86865521D02*
X51014536Y-86903617D01*
X51014536Y-86903617D02*
X50976441Y-86979807D01*
X50976441Y-86979807D02*
X50976441Y-87398855D01*
X50976441Y-86979807D02*
X50938346Y-86903617D01*
X50938346Y-86903617D02*
X50862155Y-86865521D01*
X50862155Y-86865521D02*
X50747870Y-86865521D01*
X50747870Y-86865521D02*
X50671679Y-86903617D01*
X50671679Y-86903617D02*
X50633584Y-86979807D01*
X50633584Y-86979807D02*
X50633584Y-87398855D01*
X49681203Y-86560760D02*
X50366917Y-87589331D01*
X49300251Y-87398855D02*
X49376441Y-87360760D01*
X49376441Y-87360760D02*
X49414536Y-87284569D01*
X49414536Y-87284569D02*
X49414536Y-86598855D01*
X48690726Y-87360760D02*
X48766917Y-87398855D01*
X48766917Y-87398855D02*
X48919298Y-87398855D01*
X48919298Y-87398855D02*
X48995488Y-87360760D01*
X48995488Y-87360760D02*
X49033584Y-87284569D01*
X49033584Y-87284569D02*
X49033584Y-86979807D01*
X49033584Y-86979807D02*
X48995488Y-86903617D01*
X48995488Y-86903617D02*
X48919298Y-86865521D01*
X48919298Y-86865521D02*
X48766917Y-86865521D01*
X48766917Y-86865521D02*
X48690726Y-86903617D01*
X48690726Y-86903617D02*
X48652631Y-86979807D01*
X48652631Y-86979807D02*
X48652631Y-87055998D01*
X48652631Y-87055998D02*
X49033584Y-87132188D01*
X48309774Y-86865521D02*
X48309774Y-87665521D01*
X48309774Y-86903617D02*
X48233584Y-86865521D01*
X48233584Y-86865521D02*
X48081203Y-86865521D01*
X48081203Y-86865521D02*
X48005012Y-86903617D01*
X48005012Y-86903617D02*
X47966917Y-86941712D01*
X47966917Y-86941712D02*
X47928822Y-87017902D01*
X47928822Y-87017902D02*
X47928822Y-87246474D01*
X47928822Y-87246474D02*
X47966917Y-87322664D01*
X47966917Y-87322664D02*
X48005012Y-87360760D01*
X48005012Y-87360760D02*
X48081203Y-87398855D01*
X48081203Y-87398855D02*
X48233584Y-87398855D01*
X48233584Y-87398855D02*
X48309774Y-87360760D01*
X47700250Y-86865521D02*
X47395488Y-86865521D01*
X47585964Y-86598855D02*
X47585964Y-87284569D01*
X47585964Y-87284569D02*
X47547869Y-87360760D01*
X47547869Y-87360760D02*
X47471679Y-87398855D01*
X47471679Y-87398855D02*
X47395488Y-87398855D01*
X46785964Y-86865521D02*
X46785964Y-87398855D01*
X47128821Y-86865521D02*
X47128821Y-87284569D01*
X47128821Y-87284569D02*
X47090726Y-87360760D01*
X47090726Y-87360760D02*
X47014536Y-87398855D01*
X47014536Y-87398855D02*
X46900250Y-87398855D01*
X46900250Y-87398855D02*
X46824059Y-87360760D01*
X46824059Y-87360760D02*
X46785964Y-87322664D01*
X46405011Y-86865521D02*
X46405011Y-87398855D01*
X46405011Y-86941712D02*
X46366916Y-86903617D01*
X46366916Y-86903617D02*
X46290726Y-86865521D01*
X46290726Y-86865521D02*
X46176440Y-86865521D01*
X46176440Y-86865521D02*
X46100249Y-86903617D01*
X46100249Y-86903617D02*
X46062154Y-86979807D01*
X46062154Y-86979807D02*
X46062154Y-87398855D01*
D11*
X49619819Y-74549095D02*
X50429342Y-74549095D01*
X50429342Y-74549095D02*
X50524580Y-74596714D01*
X50524580Y-74596714D02*
X50572200Y-74644333D01*
X50572200Y-74644333D02*
X50619819Y-74739571D01*
X50619819Y-74739571D02*
X50619819Y-74930047D01*
X50619819Y-74930047D02*
X50572200Y-75025285D01*
X50572200Y-75025285D02*
X50524580Y-75072904D01*
X50524580Y-75072904D02*
X50429342Y-75120523D01*
X50429342Y-75120523D02*
X49619819Y-75120523D01*
X49619819Y-75501476D02*
X49619819Y-76120523D01*
X49619819Y-76120523D02*
X50000771Y-75787190D01*
X50000771Y-75787190D02*
X50000771Y-75930047D01*
X50000771Y-75930047D02*
X50048390Y-76025285D01*
X50048390Y-76025285D02*
X50096009Y-76072904D01*
X50096009Y-76072904D02*
X50191247Y-76120523D01*
X50191247Y-76120523D02*
X50429342Y-76120523D01*
X50429342Y-76120523D02*
X50524580Y-76072904D01*
X50524580Y-76072904D02*
X50572200Y-76025285D01*
X50572200Y-76025285D02*
X50619819Y-75930047D01*
X50619819Y-75930047D02*
X50619819Y-75644333D01*
X50619819Y-75644333D02*
X50572200Y-75549095D01*
X50572200Y-75549095D02*
X50524580Y-75501476D01*
X60936094Y-59763819D02*
X60936094Y-58763819D01*
X60936094Y-58763819D02*
X60697999Y-58763819D01*
X60697999Y-58763819D02*
X60555142Y-58811438D01*
X60555142Y-58811438D02*
X60459904Y-58906676D01*
X60459904Y-58906676D02*
X60412285Y-59001914D01*
X60412285Y-59001914D02*
X60364666Y-59192390D01*
X60364666Y-59192390D02*
X60364666Y-59335247D01*
X60364666Y-59335247D02*
X60412285Y-59525723D01*
X60412285Y-59525723D02*
X60459904Y-59620961D01*
X60459904Y-59620961D02*
X60555142Y-59716200D01*
X60555142Y-59716200D02*
X60697999Y-59763819D01*
X60697999Y-59763819D02*
X60936094Y-59763819D01*
X59412285Y-59763819D02*
X59983713Y-59763819D01*
X59697999Y-59763819D02*
X59697999Y-58763819D01*
X59697999Y-58763819D02*
X59793237Y-58906676D01*
X59793237Y-58906676D02*
X59888475Y-59001914D01*
X59888475Y-59001914D02*
X59983713Y-59049533D01*
X40586819Y-68946733D02*
X40110628Y-68613400D01*
X40586819Y-68375305D02*
X39586819Y-68375305D01*
X39586819Y-68375305D02*
X39586819Y-68756257D01*
X39586819Y-68756257D02*
X39634438Y-68851495D01*
X39634438Y-68851495D02*
X39682057Y-68899114D01*
X39682057Y-68899114D02*
X39777295Y-68946733D01*
X39777295Y-68946733D02*
X39920152Y-68946733D01*
X39920152Y-68946733D02*
X40015390Y-68899114D01*
X40015390Y-68899114D02*
X40063009Y-68851495D01*
X40063009Y-68851495D02*
X40110628Y-68756257D01*
X40110628Y-68756257D02*
X40110628Y-68375305D01*
X39920152Y-69803876D02*
X40586819Y-69803876D01*
X39539200Y-69565781D02*
X40253485Y-69327686D01*
X40253485Y-69327686D02*
X40253485Y-69946733D01*
X55744257Y-71964561D02*
X55696638Y-71869323D01*
X55696638Y-71869323D02*
X55601400Y-71774085D01*
X55601400Y-71774085D02*
X55458542Y-71631228D01*
X55458542Y-71631228D02*
X55410923Y-71535990D01*
X55410923Y-71535990D02*
X55410923Y-71440752D01*
X55649019Y-71488371D02*
X55601400Y-71393133D01*
X55601400Y-71393133D02*
X55506161Y-71297895D01*
X55506161Y-71297895D02*
X55315685Y-71250276D01*
X55315685Y-71250276D02*
X54982352Y-71250276D01*
X54982352Y-71250276D02*
X54791876Y-71297895D01*
X54791876Y-71297895D02*
X54696638Y-71393133D01*
X54696638Y-71393133D02*
X54649019Y-71488371D01*
X54649019Y-71488371D02*
X54649019Y-71678847D01*
X54649019Y-71678847D02*
X54696638Y-71774085D01*
X54696638Y-71774085D02*
X54791876Y-71869323D01*
X54791876Y-71869323D02*
X54982352Y-71916942D01*
X54982352Y-71916942D02*
X55315685Y-71916942D01*
X55315685Y-71916942D02*
X55506161Y-71869323D01*
X55506161Y-71869323D02*
X55601400Y-71774085D01*
X55601400Y-71774085D02*
X55649019Y-71678847D01*
X55649019Y-71678847D02*
X55649019Y-71488371D01*
X54744257Y-72297895D02*
X54696638Y-72345514D01*
X54696638Y-72345514D02*
X54649019Y-72440752D01*
X54649019Y-72440752D02*
X54649019Y-72678847D01*
X54649019Y-72678847D02*
X54696638Y-72774085D01*
X54696638Y-72774085D02*
X54744257Y-72821704D01*
X54744257Y-72821704D02*
X54839495Y-72869323D01*
X54839495Y-72869323D02*
X54934733Y-72869323D01*
X54934733Y-72869323D02*
X55077590Y-72821704D01*
X55077590Y-72821704D02*
X55649019Y-72250276D01*
X55649019Y-72250276D02*
X55649019Y-72869323D01*
X43092666Y-70082580D02*
X43140285Y-70130200D01*
X43140285Y-70130200D02*
X43283142Y-70177819D01*
X43283142Y-70177819D02*
X43378380Y-70177819D01*
X43378380Y-70177819D02*
X43521237Y-70130200D01*
X43521237Y-70130200D02*
X43616475Y-70034961D01*
X43616475Y-70034961D02*
X43664094Y-69939723D01*
X43664094Y-69939723D02*
X43711713Y-69749247D01*
X43711713Y-69749247D02*
X43711713Y-69606390D01*
X43711713Y-69606390D02*
X43664094Y-69415914D01*
X43664094Y-69415914D02*
X43616475Y-69320676D01*
X43616475Y-69320676D02*
X43521237Y-69225438D01*
X43521237Y-69225438D02*
X43378380Y-69177819D01*
X43378380Y-69177819D02*
X43283142Y-69177819D01*
X43283142Y-69177819D02*
X43140285Y-69225438D01*
X43140285Y-69225438D02*
X43092666Y-69273057D01*
X42235523Y-69177819D02*
X42425999Y-69177819D01*
X42425999Y-69177819D02*
X42521237Y-69225438D01*
X42521237Y-69225438D02*
X42568856Y-69273057D01*
X42568856Y-69273057D02*
X42664094Y-69415914D01*
X42664094Y-69415914D02*
X42711713Y-69606390D01*
X42711713Y-69606390D02*
X42711713Y-69987342D01*
X42711713Y-69987342D02*
X42664094Y-70082580D01*
X42664094Y-70082580D02*
X42616475Y-70130200D01*
X42616475Y-70130200D02*
X42521237Y-70177819D01*
X42521237Y-70177819D02*
X42330761Y-70177819D01*
X42330761Y-70177819D02*
X42235523Y-70130200D01*
X42235523Y-70130200D02*
X42187904Y-70082580D01*
X42187904Y-70082580D02*
X42140285Y-69987342D01*
X42140285Y-69987342D02*
X42140285Y-69749247D01*
X42140285Y-69749247D02*
X42187904Y-69654009D01*
X42187904Y-69654009D02*
X42235523Y-69606390D01*
X42235523Y-69606390D02*
X42330761Y-69558771D01*
X42330761Y-69558771D02*
X42521237Y-69558771D01*
X42521237Y-69558771D02*
X42616475Y-69606390D01*
X42616475Y-69606390D02*
X42664094Y-69654009D01*
X42664094Y-69654009D02*
X42711713Y-69749247D01*
X53318580Y-71461333D02*
X53366200Y-71413714D01*
X53366200Y-71413714D02*
X53413819Y-71270857D01*
X53413819Y-71270857D02*
X53413819Y-71175619D01*
X53413819Y-71175619D02*
X53366200Y-71032762D01*
X53366200Y-71032762D02*
X53270961Y-70937524D01*
X53270961Y-70937524D02*
X53175723Y-70889905D01*
X53175723Y-70889905D02*
X52985247Y-70842286D01*
X52985247Y-70842286D02*
X52842390Y-70842286D01*
X52842390Y-70842286D02*
X52651914Y-70889905D01*
X52651914Y-70889905D02*
X52556676Y-70937524D01*
X52556676Y-70937524D02*
X52461438Y-71032762D01*
X52461438Y-71032762D02*
X52413819Y-71175619D01*
X52413819Y-71175619D02*
X52413819Y-71270857D01*
X52413819Y-71270857D02*
X52461438Y-71413714D01*
X52461438Y-71413714D02*
X52509057Y-71461333D01*
X52413819Y-71794667D02*
X52413819Y-72413714D01*
X52413819Y-72413714D02*
X52794771Y-72080381D01*
X52794771Y-72080381D02*
X52794771Y-72223238D01*
X52794771Y-72223238D02*
X52842390Y-72318476D01*
X52842390Y-72318476D02*
X52890009Y-72366095D01*
X52890009Y-72366095D02*
X52985247Y-72413714D01*
X52985247Y-72413714D02*
X53223342Y-72413714D01*
X53223342Y-72413714D02*
X53318580Y-72366095D01*
X53318580Y-72366095D02*
X53366200Y-72318476D01*
X53366200Y-72318476D02*
X53413819Y-72223238D01*
X53413819Y-72223238D02*
X53413819Y-71937524D01*
X53413819Y-71937524D02*
X53366200Y-71842286D01*
X53366200Y-71842286D02*
X53318580Y-71794667D01*
X50585666Y-69066580D02*
X50633285Y-69114200D01*
X50633285Y-69114200D02*
X50776142Y-69161819D01*
X50776142Y-69161819D02*
X50871380Y-69161819D01*
X50871380Y-69161819D02*
X51014237Y-69114200D01*
X51014237Y-69114200D02*
X51109475Y-69018961D01*
X51109475Y-69018961D02*
X51157094Y-68923723D01*
X51157094Y-68923723D02*
X51204713Y-68733247D01*
X51204713Y-68733247D02*
X51204713Y-68590390D01*
X51204713Y-68590390D02*
X51157094Y-68399914D01*
X51157094Y-68399914D02*
X51109475Y-68304676D01*
X51109475Y-68304676D02*
X51014237Y-68209438D01*
X51014237Y-68209438D02*
X50871380Y-68161819D01*
X50871380Y-68161819D02*
X50776142Y-68161819D01*
X50776142Y-68161819D02*
X50633285Y-68209438D01*
X50633285Y-68209438D02*
X50585666Y-68257057D01*
X49728523Y-68495152D02*
X49728523Y-69161819D01*
X49966618Y-68114200D02*
X50204713Y-68828485D01*
X50204713Y-68828485D02*
X49585666Y-68828485D01*
X45682819Y-65405095D02*
X46492342Y-65405095D01*
X46492342Y-65405095D02*
X46587580Y-65452714D01*
X46587580Y-65452714D02*
X46635200Y-65500333D01*
X46635200Y-65500333D02*
X46682819Y-65595571D01*
X46682819Y-65595571D02*
X46682819Y-65786047D01*
X46682819Y-65786047D02*
X46635200Y-65881285D01*
X46635200Y-65881285D02*
X46587580Y-65928904D01*
X46587580Y-65928904D02*
X46492342Y-65976523D01*
X46492342Y-65976523D02*
X45682819Y-65976523D01*
X45778057Y-66405095D02*
X45730438Y-66452714D01*
X45730438Y-66452714D02*
X45682819Y-66547952D01*
X45682819Y-66547952D02*
X45682819Y-66786047D01*
X45682819Y-66786047D02*
X45730438Y-66881285D01*
X45730438Y-66881285D02*
X45778057Y-66928904D01*
X45778057Y-66928904D02*
X45873295Y-66976523D01*
X45873295Y-66976523D02*
X45968533Y-66976523D01*
X45968533Y-66976523D02*
X46111390Y-66928904D01*
X46111390Y-66928904D02*
X46682819Y-66357476D01*
X46682819Y-66357476D02*
X46682819Y-66976523D01*
X50799904Y-70955819D02*
X50799904Y-71765342D01*
X50799904Y-71765342D02*
X50752285Y-71860580D01*
X50752285Y-71860580D02*
X50704666Y-71908200D01*
X50704666Y-71908200D02*
X50609428Y-71955819D01*
X50609428Y-71955819D02*
X50418952Y-71955819D01*
X50418952Y-71955819D02*
X50323714Y-71908200D01*
X50323714Y-71908200D02*
X50276095Y-71860580D01*
X50276095Y-71860580D02*
X50228476Y-71765342D01*
X50228476Y-71765342D02*
X50228476Y-70955819D01*
X49323714Y-71289152D02*
X49323714Y-71955819D01*
X49561809Y-70908200D02*
X49799904Y-71622485D01*
X49799904Y-71622485D02*
X49180857Y-71622485D01*
X60936094Y-62176819D02*
X60936094Y-61176819D01*
X60936094Y-61176819D02*
X60697999Y-61176819D01*
X60697999Y-61176819D02*
X60555142Y-61224438D01*
X60555142Y-61224438D02*
X60459904Y-61319676D01*
X60459904Y-61319676D02*
X60412285Y-61414914D01*
X60412285Y-61414914D02*
X60364666Y-61605390D01*
X60364666Y-61605390D02*
X60364666Y-61748247D01*
X60364666Y-61748247D02*
X60412285Y-61938723D01*
X60412285Y-61938723D02*
X60459904Y-62033961D01*
X60459904Y-62033961D02*
X60555142Y-62129200D01*
X60555142Y-62129200D02*
X60697999Y-62176819D01*
X60697999Y-62176819D02*
X60936094Y-62176819D01*
X59983713Y-61272057D02*
X59936094Y-61224438D01*
X59936094Y-61224438D02*
X59840856Y-61176819D01*
X59840856Y-61176819D02*
X59602761Y-61176819D01*
X59602761Y-61176819D02*
X59507523Y-61224438D01*
X59507523Y-61224438D02*
X59459904Y-61272057D01*
X59459904Y-61272057D02*
X59412285Y-61367295D01*
X59412285Y-61367295D02*
X59412285Y-61462533D01*
X59412285Y-61462533D02*
X59459904Y-61605390D01*
X59459904Y-61605390D02*
X60031332Y-62176819D01*
X60031332Y-62176819D02*
X59412285Y-62176819D01*
X40561419Y-66000333D02*
X40085228Y-65667000D01*
X40561419Y-65428905D02*
X39561419Y-65428905D01*
X39561419Y-65428905D02*
X39561419Y-65809857D01*
X39561419Y-65809857D02*
X39609038Y-65905095D01*
X39609038Y-65905095D02*
X39656657Y-65952714D01*
X39656657Y-65952714D02*
X39751895Y-66000333D01*
X39751895Y-66000333D02*
X39894752Y-66000333D01*
X39894752Y-66000333D02*
X39989990Y-65952714D01*
X39989990Y-65952714D02*
X40037609Y-65905095D01*
X40037609Y-65905095D02*
X40085228Y-65809857D01*
X40085228Y-65809857D02*
X40085228Y-65428905D01*
X40561419Y-66952714D02*
X40561419Y-66381286D01*
X40561419Y-66667000D02*
X39561419Y-66667000D01*
X39561419Y-66667000D02*
X39704276Y-66571762D01*
X39704276Y-66571762D02*
X39799514Y-66476524D01*
X39799514Y-66476524D02*
X39847133Y-66381286D01*
X56402266Y-61541819D02*
X56735599Y-61065628D01*
X56973694Y-61541819D02*
X56973694Y-60541819D01*
X56973694Y-60541819D02*
X56592742Y-60541819D01*
X56592742Y-60541819D02*
X56497504Y-60589438D01*
X56497504Y-60589438D02*
X56449885Y-60637057D01*
X56449885Y-60637057D02*
X56402266Y-60732295D01*
X56402266Y-60732295D02*
X56402266Y-60875152D01*
X56402266Y-60875152D02*
X56449885Y-60970390D01*
X56449885Y-60970390D02*
X56497504Y-61018009D01*
X56497504Y-61018009D02*
X56592742Y-61065628D01*
X56592742Y-61065628D02*
X56973694Y-61065628D01*
X56068932Y-60541819D02*
X55402266Y-60541819D01*
X55402266Y-60541819D02*
X55830837Y-61541819D01*
X56402266Y-59636819D02*
X56735599Y-59160628D01*
X56973694Y-59636819D02*
X56973694Y-58636819D01*
X56973694Y-58636819D02*
X56592742Y-58636819D01*
X56592742Y-58636819D02*
X56497504Y-58684438D01*
X56497504Y-58684438D02*
X56449885Y-58732057D01*
X56449885Y-58732057D02*
X56402266Y-58827295D01*
X56402266Y-58827295D02*
X56402266Y-58970152D01*
X56402266Y-58970152D02*
X56449885Y-59065390D01*
X56449885Y-59065390D02*
X56497504Y-59113009D01*
X56497504Y-59113009D02*
X56592742Y-59160628D01*
X56592742Y-59160628D02*
X56973694Y-59160628D01*
X55545123Y-58636819D02*
X55735599Y-58636819D01*
X55735599Y-58636819D02*
X55830837Y-58684438D01*
X55830837Y-58684438D02*
X55878456Y-58732057D01*
X55878456Y-58732057D02*
X55973694Y-58874914D01*
X55973694Y-58874914D02*
X56021313Y-59065390D01*
X56021313Y-59065390D02*
X56021313Y-59446342D01*
X56021313Y-59446342D02*
X55973694Y-59541580D01*
X55973694Y-59541580D02*
X55926075Y-59589200D01*
X55926075Y-59589200D02*
X55830837Y-59636819D01*
X55830837Y-59636819D02*
X55640361Y-59636819D01*
X55640361Y-59636819D02*
X55545123Y-59589200D01*
X55545123Y-59589200D02*
X55497504Y-59541580D01*
X55497504Y-59541580D02*
X55449885Y-59446342D01*
X55449885Y-59446342D02*
X55449885Y-59208247D01*
X55449885Y-59208247D02*
X55497504Y-59113009D01*
X55497504Y-59113009D02*
X55545123Y-59065390D01*
X55545123Y-59065390D02*
X55640361Y-59017771D01*
X55640361Y-59017771D02*
X55830837Y-59017771D01*
X55830837Y-59017771D02*
X55926075Y-59065390D01*
X55926075Y-59065390D02*
X55973694Y-59113009D01*
X55973694Y-59113009D02*
X56021313Y-59208247D01*
X39113619Y-68946733D02*
X38637428Y-68613400D01*
X39113619Y-68375305D02*
X38113619Y-68375305D01*
X38113619Y-68375305D02*
X38113619Y-68756257D01*
X38113619Y-68756257D02*
X38161238Y-68851495D01*
X38161238Y-68851495D02*
X38208857Y-68899114D01*
X38208857Y-68899114D02*
X38304095Y-68946733D01*
X38304095Y-68946733D02*
X38446952Y-68946733D01*
X38446952Y-68946733D02*
X38542190Y-68899114D01*
X38542190Y-68899114D02*
X38589809Y-68851495D01*
X38589809Y-68851495D02*
X38637428Y-68756257D01*
X38637428Y-68756257D02*
X38637428Y-68375305D01*
X38113619Y-69280067D02*
X38113619Y-69899114D01*
X38113619Y-69899114D02*
X38494571Y-69565781D01*
X38494571Y-69565781D02*
X38494571Y-69708638D01*
X38494571Y-69708638D02*
X38542190Y-69803876D01*
X38542190Y-69803876D02*
X38589809Y-69851495D01*
X38589809Y-69851495D02*
X38685047Y-69899114D01*
X38685047Y-69899114D02*
X38923142Y-69899114D01*
X38923142Y-69899114D02*
X39018380Y-69851495D01*
X39018380Y-69851495D02*
X39066000Y-69803876D01*
X39066000Y-69803876D02*
X39113619Y-69708638D01*
X39113619Y-69708638D02*
X39113619Y-69422924D01*
X39113619Y-69422924D02*
X39066000Y-69327686D01*
X39066000Y-69327686D02*
X39018380Y-69280067D01*
X55953819Y-66635333D02*
X55477628Y-66302000D01*
X55953819Y-66063905D02*
X54953819Y-66063905D01*
X54953819Y-66063905D02*
X54953819Y-66444857D01*
X54953819Y-66444857D02*
X55001438Y-66540095D01*
X55001438Y-66540095D02*
X55049057Y-66587714D01*
X55049057Y-66587714D02*
X55144295Y-66635333D01*
X55144295Y-66635333D02*
X55287152Y-66635333D01*
X55287152Y-66635333D02*
X55382390Y-66587714D01*
X55382390Y-66587714D02*
X55430009Y-66540095D01*
X55430009Y-66540095D02*
X55477628Y-66444857D01*
X55477628Y-66444857D02*
X55477628Y-66063905D01*
X54953819Y-67540095D02*
X54953819Y-67063905D01*
X54953819Y-67063905D02*
X55430009Y-67016286D01*
X55430009Y-67016286D02*
X55382390Y-67063905D01*
X55382390Y-67063905D02*
X55334771Y-67159143D01*
X55334771Y-67159143D02*
X55334771Y-67397238D01*
X55334771Y-67397238D02*
X55382390Y-67492476D01*
X55382390Y-67492476D02*
X55430009Y-67540095D01*
X55430009Y-67540095D02*
X55525247Y-67587714D01*
X55525247Y-67587714D02*
X55763342Y-67587714D01*
X55763342Y-67587714D02*
X55858580Y-67540095D01*
X55858580Y-67540095D02*
X55906200Y-67492476D01*
X55906200Y-67492476D02*
X55953819Y-67397238D01*
X55953819Y-67397238D02*
X55953819Y-67159143D01*
X55953819Y-67159143D02*
X55906200Y-67063905D01*
X55906200Y-67063905D02*
X55858580Y-67016286D01*
X46394666Y-69980980D02*
X46442285Y-70028600D01*
X46442285Y-70028600D02*
X46585142Y-70076219D01*
X46585142Y-70076219D02*
X46680380Y-70076219D01*
X46680380Y-70076219D02*
X46823237Y-70028600D01*
X46823237Y-70028600D02*
X46918475Y-69933361D01*
X46918475Y-69933361D02*
X46966094Y-69838123D01*
X46966094Y-69838123D02*
X47013713Y-69647647D01*
X47013713Y-69647647D02*
X47013713Y-69504790D01*
X47013713Y-69504790D02*
X46966094Y-69314314D01*
X46966094Y-69314314D02*
X46918475Y-69219076D01*
X46918475Y-69219076D02*
X46823237Y-69123838D01*
X46823237Y-69123838D02*
X46680380Y-69076219D01*
X46680380Y-69076219D02*
X46585142Y-69076219D01*
X46585142Y-69076219D02*
X46442285Y-69123838D01*
X46442285Y-69123838D02*
X46394666Y-69171457D01*
X45489904Y-69076219D02*
X45966094Y-69076219D01*
X45966094Y-69076219D02*
X46013713Y-69552409D01*
X46013713Y-69552409D02*
X45966094Y-69504790D01*
X45966094Y-69504790D02*
X45870856Y-69457171D01*
X45870856Y-69457171D02*
X45632761Y-69457171D01*
X45632761Y-69457171D02*
X45537523Y-69504790D01*
X45537523Y-69504790D02*
X45489904Y-69552409D01*
X45489904Y-69552409D02*
X45442285Y-69647647D01*
X45442285Y-69647647D02*
X45442285Y-69885742D01*
X45442285Y-69885742D02*
X45489904Y-69980980D01*
X45489904Y-69980980D02*
X45537523Y-70028600D01*
X45537523Y-70028600D02*
X45632761Y-70076219D01*
X45632761Y-70076219D02*
X45870856Y-70076219D01*
X45870856Y-70076219D02*
X45966094Y-70028600D01*
X45966094Y-70028600D02*
X46013713Y-69980980D01*
X55744257Y-69551561D02*
X55696638Y-69456323D01*
X55696638Y-69456323D02*
X55601400Y-69361085D01*
X55601400Y-69361085D02*
X55458542Y-69218228D01*
X55458542Y-69218228D02*
X55410923Y-69122990D01*
X55410923Y-69122990D02*
X55410923Y-69027752D01*
X55649019Y-69075371D02*
X55601400Y-68980133D01*
X55601400Y-68980133D02*
X55506161Y-68884895D01*
X55506161Y-68884895D02*
X55315685Y-68837276D01*
X55315685Y-68837276D02*
X54982352Y-68837276D01*
X54982352Y-68837276D02*
X54791876Y-68884895D01*
X54791876Y-68884895D02*
X54696638Y-68980133D01*
X54696638Y-68980133D02*
X54649019Y-69075371D01*
X54649019Y-69075371D02*
X54649019Y-69265847D01*
X54649019Y-69265847D02*
X54696638Y-69361085D01*
X54696638Y-69361085D02*
X54791876Y-69456323D01*
X54791876Y-69456323D02*
X54982352Y-69503942D01*
X54982352Y-69503942D02*
X55315685Y-69503942D01*
X55315685Y-69503942D02*
X55506161Y-69456323D01*
X55506161Y-69456323D02*
X55601400Y-69361085D01*
X55601400Y-69361085D02*
X55649019Y-69265847D01*
X55649019Y-69265847D02*
X55649019Y-69075371D01*
X55649019Y-70456323D02*
X55649019Y-69884895D01*
X55649019Y-70170609D02*
X54649019Y-70170609D01*
X54649019Y-70170609D02*
X54791876Y-70075371D01*
X54791876Y-70075371D02*
X54887114Y-69980133D01*
X54887114Y-69980133D02*
X54934733Y-69884895D01*
X59856666Y-76178580D02*
X59904285Y-76226200D01*
X59904285Y-76226200D02*
X60047142Y-76273819D01*
X60047142Y-76273819D02*
X60142380Y-76273819D01*
X60142380Y-76273819D02*
X60285237Y-76226200D01*
X60285237Y-76226200D02*
X60380475Y-76130961D01*
X60380475Y-76130961D02*
X60428094Y-76035723D01*
X60428094Y-76035723D02*
X60475713Y-75845247D01*
X60475713Y-75845247D02*
X60475713Y-75702390D01*
X60475713Y-75702390D02*
X60428094Y-75511914D01*
X60428094Y-75511914D02*
X60380475Y-75416676D01*
X60380475Y-75416676D02*
X60285237Y-75321438D01*
X60285237Y-75321438D02*
X60142380Y-75273819D01*
X60142380Y-75273819D02*
X60047142Y-75273819D01*
X60047142Y-75273819D02*
X59904285Y-75321438D01*
X59904285Y-75321438D02*
X59856666Y-75369057D01*
X58904285Y-76273819D02*
X59475713Y-76273819D01*
X59189999Y-76273819D02*
X59189999Y-75273819D01*
X59189999Y-75273819D02*
X59285237Y-75416676D01*
X59285237Y-75416676D02*
X59380475Y-75511914D01*
X59380475Y-75511914D02*
X59475713Y-75559533D01*
X39113619Y-65974933D02*
X38637428Y-65641600D01*
X39113619Y-65403505D02*
X38113619Y-65403505D01*
X38113619Y-65403505D02*
X38113619Y-65784457D01*
X38113619Y-65784457D02*
X38161238Y-65879695D01*
X38161238Y-65879695D02*
X38208857Y-65927314D01*
X38208857Y-65927314D02*
X38304095Y-65974933D01*
X38304095Y-65974933D02*
X38446952Y-65974933D01*
X38446952Y-65974933D02*
X38542190Y-65927314D01*
X38542190Y-65927314D02*
X38589809Y-65879695D01*
X38589809Y-65879695D02*
X38637428Y-65784457D01*
X38637428Y-65784457D02*
X38637428Y-65403505D01*
X38208857Y-66355886D02*
X38161238Y-66403505D01*
X38161238Y-66403505D02*
X38113619Y-66498743D01*
X38113619Y-66498743D02*
X38113619Y-66736838D01*
X38113619Y-66736838D02*
X38161238Y-66832076D01*
X38161238Y-66832076D02*
X38208857Y-66879695D01*
X38208857Y-66879695D02*
X38304095Y-66927314D01*
X38304095Y-66927314D02*
X38399333Y-66927314D01*
X38399333Y-66927314D02*
X38542190Y-66879695D01*
X38542190Y-66879695D02*
X39113619Y-66308267D01*
X39113619Y-66308267D02*
X39113619Y-66927314D01*
X57001580Y-75779333D02*
X57049200Y-75731714D01*
X57049200Y-75731714D02*
X57096819Y-75588857D01*
X57096819Y-75588857D02*
X57096819Y-75493619D01*
X57096819Y-75493619D02*
X57049200Y-75350762D01*
X57049200Y-75350762D02*
X56953961Y-75255524D01*
X56953961Y-75255524D02*
X56858723Y-75207905D01*
X56858723Y-75207905D02*
X56668247Y-75160286D01*
X56668247Y-75160286D02*
X56525390Y-75160286D01*
X56525390Y-75160286D02*
X56334914Y-75207905D01*
X56334914Y-75207905D02*
X56239676Y-75255524D01*
X56239676Y-75255524D02*
X56144438Y-75350762D01*
X56144438Y-75350762D02*
X56096819Y-75493619D01*
X56096819Y-75493619D02*
X56096819Y-75588857D01*
X56096819Y-75588857D02*
X56144438Y-75731714D01*
X56144438Y-75731714D02*
X56192057Y-75779333D01*
X56192057Y-76160286D02*
X56144438Y-76207905D01*
X56144438Y-76207905D02*
X56096819Y-76303143D01*
X56096819Y-76303143D02*
X56096819Y-76541238D01*
X56096819Y-76541238D02*
X56144438Y-76636476D01*
X56144438Y-76636476D02*
X56192057Y-76684095D01*
X56192057Y-76684095D02*
X56287295Y-76731714D01*
X56287295Y-76731714D02*
X56382533Y-76731714D01*
X56382533Y-76731714D02*
X56525390Y-76684095D01*
X56525390Y-76684095D02*
X57096819Y-76112667D01*
X57096819Y-76112667D02*
X57096819Y-76731714D01*
X53556819Y-74549095D02*
X54366342Y-74549095D01*
X54366342Y-74549095D02*
X54461580Y-74596714D01*
X54461580Y-74596714D02*
X54509200Y-74644333D01*
X54509200Y-74644333D02*
X54556819Y-74739571D01*
X54556819Y-74739571D02*
X54556819Y-74930047D01*
X54556819Y-74930047D02*
X54509200Y-75025285D01*
X54509200Y-75025285D02*
X54461580Y-75072904D01*
X54461580Y-75072904D02*
X54366342Y-75120523D01*
X54366342Y-75120523D02*
X53556819Y-75120523D01*
X54556819Y-76120523D02*
X54556819Y-75549095D01*
X54556819Y-75834809D02*
X53556819Y-75834809D01*
X53556819Y-75834809D02*
X53699676Y-75739571D01*
X53699676Y-75739571D02*
X53794914Y-75644333D01*
X53794914Y-75644333D02*
X53842533Y-75549095D01*
D12*
X29915639Y-85132845D02*
X30012668Y-85366986D01*
X30154323Y-85583494D01*
X30335267Y-85782886D01*
X30550167Y-85965679D01*
X30793687Y-86132392D01*
X31060493Y-86283540D01*
X31345250Y-86419643D01*
X31642623Y-86541216D01*
X31947278Y-86648778D01*
X32253881Y-86742845D01*
X32557095Y-86823936D01*
X32851588Y-86892567D01*
X33132023Y-86949256D01*
X33393066Y-86994520D01*
X33629383Y-87028877D01*
X33835639Y-87052845D01*
X33835639Y-87052845D02*
X34120169Y-87080697D01*
X34404820Y-87107376D01*
X34689583Y-87132904D01*
X34974450Y-87157305D01*
X35259413Y-87180601D01*
X35544464Y-87202814D01*
X35829596Y-87223969D01*
X36114800Y-87244087D01*
X36400069Y-87263193D01*
X36685394Y-87281307D01*
X36875639Y-87292845D01*
X36875639Y-87292845D02*
X37105459Y-87306664D01*
X37335301Y-87320666D01*
X37565164Y-87334701D01*
X37795050Y-87348623D01*
X38024958Y-87362282D01*
X38254889Y-87375530D01*
X38484845Y-87388220D01*
X38714826Y-87400203D01*
X38944831Y-87411331D01*
X39174863Y-87421456D01*
X39404922Y-87430430D01*
X39635008Y-87438104D01*
X39865122Y-87444331D01*
X40095265Y-87448962D01*
X40325437Y-87451849D01*
X40555639Y-87452845D01*
X31068094Y-83153172D02*
X31075502Y-83372007D01*
X31095641Y-83589087D01*
X31127655Y-83802701D01*
X31170689Y-84011141D01*
X31223888Y-84212698D01*
X31286398Y-84405662D01*
X31395749Y-84675258D01*
X31521239Y-84915906D01*
X31659981Y-85121839D01*
X31809092Y-85287288D01*
X32019045Y-85434943D01*
X32235459Y-85486698D01*
X32219284Y-80811624D02*
X32003233Y-80864875D01*
X31794306Y-81013978D01*
X31646344Y-81180455D01*
X31509030Y-81387343D01*
X31385208Y-81628854D01*
X31277726Y-81899201D01*
X31216553Y-82092592D01*
X31164749Y-82294512D01*
X31123158Y-82503245D01*
X31092623Y-82717076D01*
X31073987Y-82934290D01*
X31068094Y-83153172D01*
X32235459Y-85486698D02*
X32451509Y-85433446D01*
X32660436Y-85284343D01*
X32808398Y-85117866D01*
X32945712Y-84910978D01*
X33069534Y-84669467D01*
X33177016Y-84399120D01*
X33238189Y-84205729D01*
X33289993Y-84003809D01*
X33331584Y-83795076D01*
X33362119Y-83581245D01*
X33380755Y-83364031D01*
X33386649Y-83145150D01*
X40555639Y-87452845D02*
X40920963Y-87452567D01*
X41254783Y-87449808D01*
X41558841Y-87441678D01*
X41834877Y-87425289D01*
X42084635Y-87397753D01*
X42309855Y-87356179D01*
X42512279Y-87297679D01*
X42776982Y-87171874D01*
X43000190Y-86991735D01*
X43128846Y-86836642D01*
X43243414Y-86650179D01*
X43345636Y-86429457D01*
X43437253Y-86171586D01*
X43520006Y-85873678D01*
X43595639Y-85532845D01*
X33386649Y-83145150D02*
X33379240Y-82926314D01*
X33359101Y-82709234D01*
X33327088Y-82495620D01*
X33284053Y-82287180D01*
X33230854Y-82085623D01*
X33168344Y-81892659D01*
X33058993Y-81623063D01*
X32933504Y-81382415D01*
X32794761Y-81176482D01*
X32645651Y-81011033D01*
X32435698Y-80863378D01*
X32219284Y-80811624D01*
X38715639Y-83532845D02*
X38657132Y-82998008D01*
X38622678Y-82526532D01*
X38610957Y-82114662D01*
X38620652Y-81758639D01*
X38650444Y-81454709D01*
X38699016Y-81199114D01*
X38765049Y-80988097D01*
X38944228Y-80684773D01*
X39177436Y-80514686D01*
X39454130Y-80447782D01*
X39763765Y-80454010D01*
X40095797Y-80503316D01*
X40439682Y-80565649D01*
X40784876Y-80610957D01*
X41120834Y-80609186D01*
X41437012Y-80530284D01*
X41722866Y-80344200D01*
X41967852Y-80020880D01*
X42071725Y-79798365D01*
X42161426Y-79530272D01*
X42235639Y-79212845D01*
X39035639Y-84172845D02*
X38919366Y-84004643D01*
X38813901Y-83828330D01*
X38738054Y-83641741D01*
X38715639Y-83532845D01*
X43115639Y-82252845D02*
X42847800Y-82250884D01*
X42630442Y-82290609D01*
X42387446Y-82416750D01*
X42228176Y-82606840D01*
X42134720Y-82842977D01*
X42089163Y-83107254D01*
X42073593Y-83381768D01*
X42070096Y-83648615D01*
X42060759Y-83889890D01*
X42027669Y-84087688D01*
X41915639Y-84252845D01*
X43755639Y-84572845D02*
X43762390Y-84308995D01*
X43761783Y-84071488D01*
X43752277Y-83790014D01*
X43738681Y-83587723D01*
X43717661Y-83380570D01*
X43687827Y-83174425D01*
X43647792Y-82975160D01*
X43565577Y-82702006D01*
X43452602Y-82477359D01*
X43304184Y-82321033D01*
X43115639Y-82252845D01*
X29595639Y-81532845D02*
X29580457Y-81849102D01*
X29568171Y-82139732D01*
X29559166Y-82407617D01*
X29553827Y-82655643D01*
X29552537Y-82886694D01*
X29555682Y-83103654D01*
X29563646Y-83309407D01*
X29585469Y-83603336D01*
X29620298Y-83888276D01*
X29669432Y-84173961D01*
X29734168Y-84470128D01*
X29786634Y-84678203D01*
X29846996Y-84898147D01*
X29915639Y-85132845D01*
X41915639Y-84252845D02*
X41721215Y-84329259D01*
X41489160Y-84390522D01*
X41202108Y-84448263D01*
X40988598Y-84481729D01*
X40763261Y-84509022D01*
X40531143Y-84528300D01*
X40297290Y-84537720D01*
X40066749Y-84535440D01*
X39844567Y-84519615D01*
X39635788Y-84488405D01*
X39358791Y-84408709D01*
X39140339Y-84284028D01*
X39035639Y-84172845D01*
X32795639Y-79852845D02*
X32600455Y-79904760D01*
X32316232Y-79974186D01*
X32088797Y-80030938D01*
X31839058Y-80096584D01*
X31573924Y-80171569D01*
X31300303Y-80256336D01*
X31025104Y-80351331D01*
X30755233Y-80456998D01*
X30497600Y-80573782D01*
X30259112Y-80702128D01*
X30046678Y-80842480D01*
X29867205Y-80995283D01*
X29727603Y-81160982D01*
X29634778Y-81340021D01*
X29595639Y-81532845D01*
X37275639Y-78812845D02*
X36990771Y-78860020D01*
X36706729Y-78909523D01*
X36423475Y-78961365D01*
X36140970Y-79015555D01*
X35859177Y-79072105D01*
X35578058Y-79131024D01*
X35297575Y-79192323D01*
X35017691Y-79256013D01*
X34738368Y-79322104D01*
X34459568Y-79390606D01*
X34181254Y-79461530D01*
X33903386Y-79534887D01*
X33625929Y-79610686D01*
X33348844Y-79688938D01*
X33072093Y-79769654D01*
X32795639Y-79852845D01*
X43595639Y-85532845D02*
X43639568Y-85324076D01*
X43683760Y-85114999D01*
X43722074Y-84905169D01*
X43748370Y-84694141D01*
X43755639Y-84572845D01*
X40875639Y-78092845D02*
X40679090Y-78183179D01*
X40473581Y-78263105D01*
X40260218Y-78333559D01*
X40040109Y-78395475D01*
X39814362Y-78449788D01*
X39584083Y-78497434D01*
X39350379Y-78539346D01*
X39114358Y-78576461D01*
X38877127Y-78609712D01*
X38639793Y-78640035D01*
X38403464Y-78668366D01*
X38169247Y-78695638D01*
X37938248Y-78722787D01*
X37711576Y-78750748D01*
X37490337Y-78780455D01*
X37275639Y-78812845D01*
X42235639Y-79212845D02*
X42297247Y-78846824D01*
X42338503Y-78500173D01*
X42360772Y-78173088D01*
X42365417Y-77865770D01*
X42353801Y-77578416D01*
X42327288Y-77311226D01*
X42287240Y-77064398D01*
X42235023Y-76838130D01*
X42171998Y-76632623D01*
X42018981Y-76284683D01*
X41839098Y-76022168D01*
X41643255Y-75846667D01*
X41442361Y-75759771D01*
X41155410Y-75799040D01*
X40989609Y-75940614D01*
X40856934Y-76176358D01*
X40768291Y-76507863D01*
X40743891Y-76710023D01*
X40734589Y-76936719D01*
X40741750Y-77188150D01*
X40766736Y-77464516D01*
X40810911Y-77766014D01*
X40875639Y-78092845D01*
%LPC*%
D13*
X36111301Y-66265699D03*
D14*
X33571301Y-66265699D03*
X31031301Y-66265699D03*
D15*
X52355000Y-80582000D03*
X58135000Y-80582000D03*
D13*
X36111301Y-63725699D03*
D14*
X33571301Y-63725699D03*
X31031301Y-63725699D03*
D13*
X31115000Y-59944000D03*
D14*
X33655000Y-59944000D03*
X36195000Y-59944000D03*
X38735000Y-59944000D03*
D16*
X35108000Y-73888000D03*
X37608000Y-73888000D03*
X39608000Y-73888000D03*
X42108000Y-73888000D03*
D17*
X32038000Y-76598000D03*
X45178000Y-76598000D03*
D13*
X36111301Y-68805699D03*
D14*
X33571301Y-68805699D03*
X31031301Y-68805699D03*
D13*
X58166000Y-64653000D03*
D14*
X60706000Y-64653000D03*
X58166000Y-67193000D03*
X60706000Y-67193000D03*
X58166000Y-69733000D03*
X60706000Y-69733000D03*
X58166000Y-72273000D03*
X60706000Y-72273000D03*
D13*
X42423000Y-62616000D03*
D14*
X42423000Y-60076000D03*
X44963000Y-62616000D03*
X44963000Y-60076000D03*
X47503000Y-62616000D03*
X47503000Y-60076000D03*
X50043000Y-62616000D03*
X50043000Y-60076000D03*
X52583000Y-62616000D03*
X52583000Y-60076000D03*
%LPD*%
M02*
