G04 #@! TF.GenerationSoftware,KiCad,Pcbnew,7.0.9*
G04 #@! TF.CreationDate,2024-02-15T19:09:08+01:00*
G04 #@! TF.ProjectId,USBussy_Current_Probe,55534275-7373-4795-9f43-757272656e74,1.0*
G04 #@! TF.SameCoordinates,Original*
G04 #@! TF.FileFunction,Legend,Top*
G04 #@! TF.FilePolarity,Positive*
%FSLAX46Y46*%
G04 Gerber Fmt 4.6, Leading zero omitted, Abs format (unit mm)*
G04 Created by KiCad (PCBNEW 7.0.9) date 2024-02-15 19:09:08*
%MOMM*%
%LPD*%
G01*
G04 APERTURE LIST*
G04 Aperture macros list*
%AMRoundRect*
0 Rectangle with rounded corners*
0 $1 Rounding radius*
0 $2 $3 $4 $5 $6 $7 $8 $9 X,Y pos of 4 corners*
0 Add a 4 corners polygon primitive as box body*
4,1,4,$2,$3,$4,$5,$6,$7,$8,$9,$2,$3,0*
0 Add four circle primitives for the rounded corners*
1,1,$1+$1,$2,$3*
1,1,$1+$1,$4,$5*
1,1,$1+$1,$6,$7*
1,1,$1+$1,$8,$9*
0 Add four rect primitives between the rounded corners*
20,1,$1+$1,$2,$3,$4,$5,0*
20,1,$1+$1,$4,$5,$6,$7,0*
20,1,$1+$1,$6,$7,$8,$9,0*
20,1,$1+$1,$8,$9,$2,$3,0*%
%AMRotRect*
0 Rectangle, with rotation*
0 The origin of the aperture is its center*
0 $1 length*
0 $2 width*
0 $3 Rotation angle, in degrees counterclockwise*
0 Add horizontal line*
21,1,$1,$2,0,0,$3*%
G04 Aperture macros list end*
%ADD10C,0.150000*%
%ADD11C,0.254000*%
%ADD12C,0.120000*%
%ADD13C,0.100000*%
%ADD14C,0.200000*%
%ADD15C,0.300000*%
%ADD16R,0.800000X1.070000*%
%ADD17RotRect,0.282800X0.282800X135.000000*%
%ADD18R,0.600000X0.200000*%
%ADD19R,0.850000X0.300000*%
%ADD20R,0.300000X0.850000*%
%ADD21RoundRect,0.250000X0.375000X0.625000X-0.375000X0.625000X-0.375000X-0.625000X0.375000X-0.625000X0*%
%ADD22RoundRect,0.200000X0.275000X-0.200000X0.275000X0.200000X-0.275000X0.200000X-0.275000X-0.200000X0*%
%ADD23R,1.700000X1.700000*%
%ADD24O,1.700000X1.700000*%
%ADD25C,0.650000*%
%ADD26R,0.300000X1.150000*%
%ADD27R,2.180000X2.000000*%
%ADD28R,0.500000X0.600000*%
%ADD29RoundRect,0.225000X0.225000X0.250000X-0.225000X0.250000X-0.225000X-0.250000X0.225000X-0.250000X0*%
%ADD30RoundRect,0.225000X-0.250000X0.225000X-0.250000X-0.225000X0.250000X-0.225000X0.250000X0.225000X0*%
%ADD31RoundRect,0.250000X0.250000X0.475000X-0.250000X0.475000X-0.250000X-0.475000X0.250000X-0.475000X0*%
%ADD32RoundRect,0.150000X0.512500X0.150000X-0.512500X0.150000X-0.512500X-0.150000X0.512500X-0.150000X0*%
%ADD33RoundRect,0.200000X-0.275000X0.200000X-0.275000X-0.200000X0.275000X-0.200000X0.275000X0.200000X0*%
%ADD34RoundRect,0.250000X0.262500X0.450000X-0.262500X0.450000X-0.262500X-0.450000X0.262500X-0.450000X0*%
%ADD35C,1.545000*%
%ADD36C,3.570000*%
%ADD37RoundRect,0.250000X0.325000X1.100000X-0.325000X1.100000X-0.325000X-1.100000X0.325000X-1.100000X0*%
%ADD38RoundRect,0.150000X0.150000X-0.512500X0.150000X0.512500X-0.150000X0.512500X-0.150000X-0.512500X0*%
G04 APERTURE END LIST*
D10*
X37995266Y-62650019D02*
X37995266Y-63364304D01*
X37995266Y-63364304D02*
X37947647Y-63507161D01*
X37947647Y-63507161D02*
X37852409Y-63602400D01*
X37852409Y-63602400D02*
X37709552Y-63650019D01*
X37709552Y-63650019D02*
X37614314Y-63650019D01*
X38900028Y-62983352D02*
X38900028Y-63650019D01*
X38661933Y-62602400D02*
X38423838Y-63316685D01*
X38423838Y-63316685D02*
X39042885Y-63316685D01*
D11*
X54821667Y-81953318D02*
X54821667Y-82860461D01*
X54821667Y-82860461D02*
X54761190Y-83041889D01*
X54761190Y-83041889D02*
X54640238Y-83162842D01*
X54640238Y-83162842D02*
X54458809Y-83223318D01*
X54458809Y-83223318D02*
X54337857Y-83223318D01*
X56091667Y-83223318D02*
X55365952Y-83223318D01*
X55728809Y-83223318D02*
X55728809Y-81953318D01*
X55728809Y-81953318D02*
X55607857Y-82134746D01*
X55607857Y-82134746D02*
X55486905Y-82255699D01*
X55486905Y-82255699D02*
X55365952Y-82316175D01*
D10*
X37980266Y-61430819D02*
X37980266Y-62145104D01*
X37980266Y-62145104D02*
X37932647Y-62287961D01*
X37932647Y-62287961D02*
X37837409Y-62383200D01*
X37837409Y-62383200D02*
X37694552Y-62430819D01*
X37694552Y-62430819D02*
X37599314Y-62430819D01*
X38361219Y-61430819D02*
X38980266Y-61430819D01*
X38980266Y-61430819D02*
X38646933Y-61811771D01*
X38646933Y-61811771D02*
X38789790Y-61811771D01*
X38789790Y-61811771D02*
X38885028Y-61859390D01*
X38885028Y-61859390D02*
X38932647Y-61907009D01*
X38932647Y-61907009D02*
X38980266Y-62002247D01*
X38980266Y-62002247D02*
X38980266Y-62240342D01*
X38980266Y-62240342D02*
X38932647Y-62335580D01*
X38932647Y-62335580D02*
X38885028Y-62383200D01*
X38885028Y-62383200D02*
X38789790Y-62430819D01*
X38789790Y-62430819D02*
X38504076Y-62430819D01*
X38504076Y-62430819D02*
X38408838Y-62383200D01*
X38408838Y-62383200D02*
X38361219Y-62335580D01*
D11*
X38184667Y-78552318D02*
X38184667Y-79459461D01*
X38184667Y-79459461D02*
X38124190Y-79640889D01*
X38124190Y-79640889D02*
X38003238Y-79761842D01*
X38003238Y-79761842D02*
X37821809Y-79822318D01*
X37821809Y-79822318D02*
X37700857Y-79822318D01*
X39333714Y-78552318D02*
X39091809Y-78552318D01*
X39091809Y-78552318D02*
X38970857Y-78612794D01*
X38970857Y-78612794D02*
X38910381Y-78673270D01*
X38910381Y-78673270D02*
X38789428Y-78854699D01*
X38789428Y-78854699D02*
X38728952Y-79096603D01*
X38728952Y-79096603D02*
X38728952Y-79580413D01*
X38728952Y-79580413D02*
X38789428Y-79701365D01*
X38789428Y-79701365D02*
X38849905Y-79761842D01*
X38849905Y-79761842D02*
X38970857Y-79822318D01*
X38970857Y-79822318D02*
X39212762Y-79822318D01*
X39212762Y-79822318D02*
X39333714Y-79761842D01*
X39333714Y-79761842D02*
X39394190Y-79701365D01*
X39394190Y-79701365D02*
X39454667Y-79580413D01*
X39454667Y-79580413D02*
X39454667Y-79278032D01*
X39454667Y-79278032D02*
X39394190Y-79157080D01*
X39394190Y-79157080D02*
X39333714Y-79096603D01*
X39333714Y-79096603D02*
X39212762Y-79036127D01*
X39212762Y-79036127D02*
X38970857Y-79036127D01*
X38970857Y-79036127D02*
X38849905Y-79096603D01*
X38849905Y-79096603D02*
X38789428Y-79157080D01*
X38789428Y-79157080D02*
X38728952Y-79278032D01*
D10*
X37954866Y-63818419D02*
X37954866Y-64532704D01*
X37954866Y-64532704D02*
X37907247Y-64675561D01*
X37907247Y-64675561D02*
X37812009Y-64770800D01*
X37812009Y-64770800D02*
X37669152Y-64818419D01*
X37669152Y-64818419D02*
X37573914Y-64818419D01*
X38907247Y-63818419D02*
X38431057Y-63818419D01*
X38431057Y-63818419D02*
X38383438Y-64294609D01*
X38383438Y-64294609D02*
X38431057Y-64246990D01*
X38431057Y-64246990D02*
X38526295Y-64199371D01*
X38526295Y-64199371D02*
X38764390Y-64199371D01*
X38764390Y-64199371D02*
X38859628Y-64246990D01*
X38859628Y-64246990D02*
X38907247Y-64294609D01*
X38907247Y-64294609D02*
X38954866Y-64389847D01*
X38954866Y-64389847D02*
X38954866Y-64627942D01*
X38954866Y-64627942D02*
X38907247Y-64723180D01*
X38907247Y-64723180D02*
X38859628Y-64770800D01*
X38859628Y-64770800D02*
X38764390Y-64818419D01*
X38764390Y-64818419D02*
X38526295Y-64818419D01*
X38526295Y-64818419D02*
X38431057Y-64770800D01*
X38431057Y-64770800D02*
X38383438Y-64723180D01*
X55622866Y-63691419D02*
X55622866Y-64405704D01*
X55622866Y-64405704D02*
X55575247Y-64548561D01*
X55575247Y-64548561D02*
X55480009Y-64643800D01*
X55480009Y-64643800D02*
X55337152Y-64691419D01*
X55337152Y-64691419D02*
X55241914Y-64691419D01*
X56241914Y-64119990D02*
X56146676Y-64072371D01*
X56146676Y-64072371D02*
X56099057Y-64024752D01*
X56099057Y-64024752D02*
X56051438Y-63929514D01*
X56051438Y-63929514D02*
X56051438Y-63881895D01*
X56051438Y-63881895D02*
X56099057Y-63786657D01*
X56099057Y-63786657D02*
X56146676Y-63739038D01*
X56146676Y-63739038D02*
X56241914Y-63691419D01*
X56241914Y-63691419D02*
X56432390Y-63691419D01*
X56432390Y-63691419D02*
X56527628Y-63739038D01*
X56527628Y-63739038D02*
X56575247Y-63786657D01*
X56575247Y-63786657D02*
X56622866Y-63881895D01*
X56622866Y-63881895D02*
X56622866Y-63929514D01*
X56622866Y-63929514D02*
X56575247Y-64024752D01*
X56575247Y-64024752D02*
X56527628Y-64072371D01*
X56527628Y-64072371D02*
X56432390Y-64119990D01*
X56432390Y-64119990D02*
X56241914Y-64119990D01*
X56241914Y-64119990D02*
X56146676Y-64167609D01*
X56146676Y-64167609D02*
X56099057Y-64215228D01*
X56099057Y-64215228D02*
X56051438Y-64310466D01*
X56051438Y-64310466D02*
X56051438Y-64500942D01*
X56051438Y-64500942D02*
X56099057Y-64596180D01*
X56099057Y-64596180D02*
X56146676Y-64643800D01*
X56146676Y-64643800D02*
X56241914Y-64691419D01*
X56241914Y-64691419D02*
X56432390Y-64691419D01*
X56432390Y-64691419D02*
X56527628Y-64643800D01*
X56527628Y-64643800D02*
X56575247Y-64596180D01*
X56575247Y-64596180D02*
X56622866Y-64500942D01*
X56622866Y-64500942D02*
X56622866Y-64310466D01*
X56622866Y-64310466D02*
X56575247Y-64215228D01*
X56575247Y-64215228D02*
X56527628Y-64167609D01*
X56527628Y-64167609D02*
X56432390Y-64119990D01*
X52905066Y-64123219D02*
X52905066Y-64837504D01*
X52905066Y-64837504D02*
X52857447Y-64980361D01*
X52857447Y-64980361D02*
X52762209Y-65075600D01*
X52762209Y-65075600D02*
X52619352Y-65123219D01*
X52619352Y-65123219D02*
X52524114Y-65123219D01*
X53333638Y-64218457D02*
X53381257Y-64170838D01*
X53381257Y-64170838D02*
X53476495Y-64123219D01*
X53476495Y-64123219D02*
X53714590Y-64123219D01*
X53714590Y-64123219D02*
X53809828Y-64170838D01*
X53809828Y-64170838D02*
X53857447Y-64218457D01*
X53857447Y-64218457D02*
X53905066Y-64313695D01*
X53905066Y-64313695D02*
X53905066Y-64408933D01*
X53905066Y-64408933D02*
X53857447Y-64551790D01*
X53857447Y-64551790D02*
X53286019Y-65123219D01*
X53286019Y-65123219D02*
X53905066Y-65123219D01*
D12*
X48545000Y-76851000D02*
X48915000Y-76851000D01*
X48545000Y-76851000D02*
X48545000Y-75561000D01*
X48915000Y-76851000D02*
X48915000Y-77111000D01*
X51415000Y-76851000D02*
X51785000Y-76851000D01*
X51785000Y-76851000D02*
X51785000Y-75561000D01*
X48545000Y-73611000D02*
X48545000Y-74111000D01*
X48545000Y-73611000D02*
X48915000Y-73611000D01*
X51415000Y-73611000D02*
X51785000Y-73611000D01*
X51785000Y-73611000D02*
X51785000Y-74111000D01*
X62483000Y-60444000D02*
X62483000Y-58174000D01*
X62483000Y-58174000D02*
X58598000Y-58174000D01*
X58598000Y-60444000D02*
X62483000Y-60444000D01*
X39609500Y-69350658D02*
X39609500Y-68876142D01*
X40654500Y-69350658D02*
X40654500Y-68876142D01*
X37441301Y-64935699D02*
X37441301Y-66265699D01*
X36111301Y-64935699D02*
X37441301Y-64935699D01*
X34841301Y-64935699D02*
X29701301Y-64935699D01*
X34841301Y-64935699D02*
X34841301Y-67595699D01*
X29701301Y-64935699D02*
X29701301Y-67595699D01*
X34841301Y-67595699D02*
X29701301Y-67595699D01*
D13*
X50745000Y-81685000D02*
X50745000Y-82435000D01*
X50745000Y-82435000D02*
X50775000Y-82435000D01*
X50775000Y-81685000D02*
X50745000Y-81685000D01*
X50775000Y-82435000D02*
X50775000Y-81685000D01*
X50775000Y-85685000D02*
X50775000Y-85685000D01*
X50775000Y-85685000D02*
X50775000Y-86862000D01*
X50775000Y-86862000D02*
X50775000Y-85685000D01*
X50775000Y-86862000D02*
X50775000Y-86862000D01*
X50775000Y-86862000D02*
X50775000Y-86862000D01*
X50775000Y-86862000D02*
X59715000Y-86862000D01*
D14*
X51845000Y-78485000D02*
X51845000Y-78485000D01*
X51845000Y-78485000D02*
X51845000Y-78485000D01*
X51945000Y-78485000D02*
X51945000Y-78485000D01*
D13*
X59715000Y-81435000D02*
X59715000Y-81435000D01*
X59715000Y-81435000D02*
X59715000Y-82435000D01*
X59715000Y-82435000D02*
X59715000Y-81435000D01*
X59715000Y-82435000D02*
X59715000Y-82435000D01*
X59715000Y-85435000D02*
X59715000Y-85435000D01*
X59715000Y-85435000D02*
X59715000Y-86862000D01*
X59715000Y-86862000D02*
X50775000Y-86862000D01*
X59715000Y-86862000D02*
X59715000Y-85435000D01*
X59715000Y-86862000D02*
X59715000Y-86862000D01*
X59715000Y-86862000D02*
X59715000Y-86862000D01*
D14*
X51945000Y-78485000D02*
G75*
G03*
X51845000Y-78485000I-50000J0D01*
G01*
X51845000Y-78485000D02*
G75*
G03*
X51945000Y-78485000I50000J0D01*
G01*
X51845000Y-78485000D02*
G75*
G03*
X51945000Y-78485000I50000J0D01*
G01*
D12*
X54234200Y-71524400D02*
X54234200Y-72934400D01*
X54234200Y-71524400D02*
X54544200Y-71524400D01*
X56154200Y-71524400D02*
X56154200Y-72684400D01*
X56154200Y-71524400D02*
X55844200Y-71524400D01*
X43066580Y-70233000D02*
X42785420Y-70233000D01*
X43066580Y-69213000D02*
X42785420Y-69213000D01*
X53469000Y-71487420D02*
X53469000Y-71768580D01*
X52449000Y-71487420D02*
X52449000Y-71768580D01*
X50680252Y-69442000D02*
X50157748Y-69442000D01*
X50680252Y-67972000D02*
X50157748Y-67972000D01*
X46228000Y-67727000D02*
X48028000Y-67727000D01*
X46228000Y-67727000D02*
X45428000Y-67727000D01*
X46228000Y-64607000D02*
X47028000Y-64607000D01*
X46228000Y-64607000D02*
X45428000Y-64607000D01*
X50038000Y-73061000D02*
X51838000Y-73061000D01*
X50038000Y-73061000D02*
X49238000Y-73061000D01*
X50038000Y-69941000D02*
X50838000Y-69941000D01*
X50038000Y-69941000D02*
X49238000Y-69941000D01*
X62483000Y-62857000D02*
X62483000Y-60587000D01*
X62483000Y-60587000D02*
X58598000Y-60587000D01*
X58598000Y-62857000D02*
X62483000Y-62857000D01*
X37441301Y-62395699D02*
X37441301Y-63725699D01*
X36111301Y-62395699D02*
X37441301Y-62395699D01*
X34841301Y-62395699D02*
X29701301Y-62395699D01*
X34841301Y-62395699D02*
X34841301Y-65055699D01*
X29701301Y-62395699D02*
X29701301Y-65055699D01*
X34841301Y-65055699D02*
X29701301Y-65055699D01*
X29785000Y-61274000D02*
X29785000Y-59944000D01*
X31115000Y-61274000D02*
X29785000Y-61274000D01*
X32385000Y-61274000D02*
X40065000Y-61274000D01*
X32385000Y-61274000D02*
X32385000Y-58614000D01*
X40065000Y-61274000D02*
X40065000Y-58614000D01*
X32385000Y-58614000D02*
X40065000Y-58614000D01*
X40654500Y-65904342D02*
X40654500Y-66378858D01*
X39609500Y-65904342D02*
X39609500Y-66378858D01*
X56462664Y-61847400D02*
X56008536Y-61847400D01*
X56462664Y-60377400D02*
X56008536Y-60377400D01*
X56462664Y-59917000D02*
X56008536Y-59917000D01*
X56462664Y-58447000D02*
X56008536Y-58447000D01*
D15*
X30508000Y-73888000D02*
X30508000Y-73888000D01*
X30608000Y-73888000D02*
X30608000Y-73888000D01*
D13*
X31408000Y-71618000D02*
X45808000Y-71618000D01*
X31408000Y-74388000D02*
X31408000Y-71618000D01*
X31408000Y-78888000D02*
X31408000Y-86878000D01*
X31408000Y-86878000D02*
X45808000Y-86878000D01*
X45808000Y-71618000D02*
X45808000Y-74388000D01*
X45808000Y-86878000D02*
X45808000Y-78888000D01*
D15*
X30608000Y-73888000D02*
G75*
G03*
X30508000Y-73888000I-50000J0D01*
G01*
X30508000Y-73888000D02*
G75*
G03*
X30608000Y-73888000I50000J0D01*
G01*
D12*
X39181300Y-68876142D02*
X39181300Y-69350658D01*
X38136300Y-68876142D02*
X38136300Y-69350658D01*
X37441301Y-67475699D02*
X37441301Y-68805699D01*
X36111301Y-67475699D02*
X37441301Y-67475699D01*
X34841301Y-67475699D02*
X29701301Y-67475699D01*
X34841301Y-67475699D02*
X34841301Y-70135699D01*
X29701301Y-67475699D02*
X29701301Y-70135699D01*
X34841301Y-70135699D02*
X29701301Y-70135699D01*
X56021500Y-66564742D02*
X56021500Y-67039258D01*
X54976500Y-66564742D02*
X54976500Y-67039258D01*
X56836000Y-63323000D02*
X58166000Y-63323000D01*
X56836000Y-64653000D02*
X56836000Y-63323000D01*
X56836000Y-65923000D02*
X56836000Y-73603000D01*
X56836000Y-65923000D02*
X59436000Y-65923000D01*
X56836000Y-73603000D02*
X62036000Y-73603000D01*
X59436000Y-63323000D02*
X62036000Y-63323000D01*
X59436000Y-65923000D02*
X59436000Y-63323000D01*
X62036000Y-63323000D02*
X62036000Y-73603000D01*
X46489252Y-70331000D02*
X45966748Y-70331000D01*
X46489252Y-68861000D02*
X45966748Y-68861000D01*
X54234200Y-69111400D02*
X54234200Y-70521400D01*
X54234200Y-69111400D02*
X54544200Y-69111400D01*
X56154200Y-69111400D02*
X56154200Y-70271400D01*
X56154200Y-69111400D02*
X55844200Y-69111400D01*
X60401252Y-77179000D02*
X58978748Y-77179000D01*
X60401252Y-74459000D02*
X58978748Y-74459000D01*
X39181300Y-65904342D02*
X39181300Y-66378858D01*
X38136300Y-65904342D02*
X38136300Y-66378858D01*
X41093000Y-63946000D02*
X41093000Y-62616000D01*
X42423000Y-63946000D02*
X41093000Y-63946000D01*
X43693000Y-63946000D02*
X53913000Y-63946000D01*
X43693000Y-63946000D02*
X43693000Y-61346000D01*
X53913000Y-63946000D02*
X53913000Y-58746000D01*
X41093000Y-61346000D02*
X41093000Y-58746000D01*
X43693000Y-61346000D02*
X41093000Y-61346000D01*
X41093000Y-58746000D02*
X53913000Y-58746000D01*
X57152000Y-75805420D02*
X57152000Y-76086580D01*
X56132000Y-75805420D02*
X56132000Y-76086580D01*
X52542000Y-75311000D02*
X52542000Y-77111000D01*
X52542000Y-75311000D02*
X52542000Y-74511000D01*
X55662000Y-75311000D02*
X55662000Y-76111000D01*
X55662000Y-75311000D02*
X55662000Y-74511000D01*
%LPC*%
D16*
X49665000Y-76631000D03*
D17*
X49465000Y-76096000D03*
D18*
X49765000Y-75996000D03*
D16*
X50665000Y-76631000D03*
D17*
X50865000Y-76096000D03*
D18*
X50565000Y-75996000D03*
D19*
X51615000Y-75081000D03*
X51615000Y-74581000D03*
D20*
X50915000Y-73881000D03*
X50415000Y-73881000D03*
X49915000Y-73881000D03*
X49415000Y-73881000D03*
D19*
X48715000Y-74581000D03*
X48715000Y-75081000D03*
D21*
X61598000Y-59309000D03*
X58798000Y-59309000D03*
D22*
X40132000Y-69938400D03*
X40132000Y-68288400D03*
D23*
X36111301Y-66265699D03*
D24*
X33571301Y-66265699D03*
X31031301Y-66265699D03*
D25*
X52355000Y-80582000D03*
X58135000Y-80582000D03*
D26*
X51895000Y-79507000D03*
X52695000Y-79507000D03*
X53995000Y-79507000D03*
X54995000Y-79507000D03*
X55495000Y-79507000D03*
X56495000Y-79507000D03*
X57795000Y-79507000D03*
X58595000Y-79507000D03*
X58295000Y-79507000D03*
X57495000Y-79507000D03*
X56995000Y-79507000D03*
X55995000Y-79507000D03*
X54495000Y-79507000D03*
X53495000Y-79507000D03*
X52995000Y-79507000D03*
X52195000Y-79507000D03*
D27*
X50135000Y-80082000D03*
X50135000Y-84012000D03*
X60355000Y-80082000D03*
X60355000Y-84012000D03*
D28*
X54694200Y-72684400D03*
X55694200Y-72684400D03*
X55194200Y-71384400D03*
D29*
X43701000Y-69723000D03*
X42151000Y-69723000D03*
D30*
X52959000Y-70853000D03*
X52959000Y-72403000D03*
D31*
X51369000Y-68707000D03*
X49469000Y-68707000D03*
D32*
X47365500Y-67117000D03*
X47365500Y-66167000D03*
X47365500Y-65217000D03*
X45090500Y-65217000D03*
X45090500Y-66167000D03*
X45090500Y-67117000D03*
X51175500Y-72451000D03*
X51175500Y-71501000D03*
X51175500Y-70551000D03*
X48900500Y-70551000D03*
X48900500Y-72451000D03*
D21*
X61598000Y-61722000D03*
X58798000Y-61722000D03*
D23*
X36111301Y-63725699D03*
D24*
X33571301Y-63725699D03*
X31031301Y-63725699D03*
D23*
X31115000Y-59944000D03*
D24*
X33655000Y-59944000D03*
X36195000Y-59944000D03*
X38735000Y-59944000D03*
D33*
X40132000Y-65316600D03*
X40132000Y-66966600D03*
D34*
X57148100Y-61112400D03*
X55323100Y-61112400D03*
X57148100Y-59182000D03*
X55323100Y-59182000D03*
D35*
X35108000Y-73888000D03*
X37608000Y-73888000D03*
X39608000Y-73888000D03*
X42108000Y-73888000D03*
D36*
X32038000Y-76598000D03*
X45178000Y-76598000D03*
D33*
X38658800Y-68288400D03*
X38658800Y-69938400D03*
D23*
X36111301Y-68805699D03*
D24*
X33571301Y-68805699D03*
X31031301Y-68805699D03*
D33*
X55499000Y-65977000D03*
X55499000Y-67627000D03*
D23*
X58166000Y-64653000D03*
D24*
X60706000Y-64653000D03*
X58166000Y-67193000D03*
X60706000Y-67193000D03*
X58166000Y-69733000D03*
X60706000Y-69733000D03*
X58166000Y-72273000D03*
X60706000Y-72273000D03*
D31*
X47178000Y-69596000D03*
X45278000Y-69596000D03*
D28*
X54694200Y-70271400D03*
X55694200Y-70271400D03*
X55194200Y-68971400D03*
D37*
X61165000Y-75819000D03*
X58215000Y-75819000D03*
D33*
X38658800Y-65316600D03*
X38658800Y-66966600D03*
D23*
X42423000Y-62616000D03*
D24*
X42423000Y-60076000D03*
X44963000Y-62616000D03*
X44963000Y-60076000D03*
X47503000Y-62616000D03*
X47503000Y-60076000D03*
X50043000Y-62616000D03*
X50043000Y-60076000D03*
X52583000Y-62616000D03*
X52583000Y-60076000D03*
D30*
X56642000Y-75171000D03*
X56642000Y-76721000D03*
D38*
X53152000Y-76448500D03*
X54102000Y-76448500D03*
X55052000Y-76448500D03*
X55052000Y-74173500D03*
X53152000Y-74173500D03*
%LPD*%
M02*
