G04 #@! TF.GenerationSoftware,KiCad,Pcbnew,7.0.9*
G04 #@! TF.CreationDate,2024-02-15T19:09:08+01:00*
G04 #@! TF.ProjectId,USBussy_Current_Probe,55534275-7373-4795-9f43-757272656e74,1.0*
G04 #@! TF.SameCoordinates,Original*
G04 #@! TF.FileFunction,Copper,L3,Inr*
G04 #@! TF.FilePolarity,Positive*
%FSLAX46Y46*%
G04 Gerber Fmt 4.6, Leading zero omitted, Abs format (unit mm)*
G04 Created by KiCad (PCBNEW 7.0.9) date 2024-02-15 19:09:08*
%MOMM*%
%LPD*%
G01*
G04 APERTURE LIST*
G04 #@! TA.AperFunction,ComponentPad*
%ADD10R,1.700000X1.700000*%
G04 #@! TD*
G04 #@! TA.AperFunction,ComponentPad*
%ADD11O,1.700000X1.700000*%
G04 #@! TD*
G04 #@! TA.AperFunction,ComponentPad*
%ADD12C,1.545000*%
G04 #@! TD*
G04 #@! TA.AperFunction,ComponentPad*
%ADD13C,3.570000*%
G04 #@! TD*
G04 #@! TA.AperFunction,ViaPad*
%ADD14C,0.700000*%
G04 #@! TD*
G04 #@! TA.AperFunction,ViaPad*
%ADD15C,0.800000*%
G04 #@! TD*
G04 #@! TA.AperFunction,Conductor*
%ADD16C,0.261112*%
G04 #@! TD*
G04 APERTURE END LIST*
D10*
X36111301Y-66265699D03*
D11*
X33571301Y-66265699D03*
X31031301Y-66265699D03*
D10*
X36111301Y-63725699D03*
D11*
X33571301Y-63725699D03*
X31031301Y-63725699D03*
D10*
X31115000Y-59944000D03*
D11*
X33655000Y-59944000D03*
X36195000Y-59944000D03*
X38735000Y-59944000D03*
D12*
X35108000Y-73888000D03*
X37608000Y-73888000D03*
X39608000Y-73888000D03*
X42108000Y-73888000D03*
D13*
X32038000Y-76598000D03*
X45178000Y-76598000D03*
D10*
X36111301Y-68805699D03*
D11*
X33571301Y-68805699D03*
X31031301Y-68805699D03*
D10*
X58166000Y-64653000D03*
D11*
X60706000Y-64653000D03*
X58166000Y-67193000D03*
X60706000Y-67193000D03*
X58166000Y-69733000D03*
X60706000Y-69733000D03*
X58166000Y-72273000D03*
X60706000Y-72273000D03*
D10*
X42423000Y-62616000D03*
D11*
X42423000Y-60076000D03*
X44963000Y-62616000D03*
X44963000Y-60076000D03*
X47503000Y-62616000D03*
X47503000Y-60076000D03*
X50043000Y-62616000D03*
X50043000Y-60076000D03*
X52583000Y-62616000D03*
X52583000Y-60076000D03*
D14*
X46228215Y-65685861D03*
D15*
X49530000Y-64820800D03*
X47955200Y-68199000D03*
X42849800Y-67741800D03*
X52679600Y-81940400D03*
X51612800Y-81432400D03*
D14*
X46228000Y-66548000D03*
D15*
X46228000Y-72186800D03*
X40055800Y-63677800D03*
X55956200Y-71018400D03*
X32308800Y-65049400D03*
X42900600Y-66014600D03*
X39420800Y-69113400D03*
X51536600Y-75768200D03*
X54127400Y-75285600D03*
X59029600Y-78181200D03*
X53086000Y-68326000D03*
X49479200Y-66954400D03*
X56235600Y-68961000D03*
X57759600Y-73812400D03*
X60198000Y-60528200D03*
X58267600Y-81889600D03*
X47983723Y-72977323D03*
X49784000Y-75234800D03*
X52298600Y-73456800D03*
X54388048Y-69369376D03*
X55996497Y-78232000D03*
X56411490Y-81924608D03*
X54743400Y-81178333D03*
X46705654Y-68247759D03*
X55746600Y-81178333D03*
X45567600Y-68249800D03*
X53975000Y-81915000D03*
X56896000Y-78232000D03*
X54316844Y-73373367D03*
X45085000Y-64414400D03*
X47371000Y-64414400D03*
X50632652Y-74800899D03*
D16*
X55039896Y-81915000D02*
X55746600Y-81208296D01*
X53975000Y-81915000D02*
X55039896Y-81915000D01*
X55746600Y-81208296D02*
X55746600Y-81178333D01*
G04 #@! TA.AperFunction,Conductor*
G36*
X60956000Y-71837498D02*
G01*
X60848315Y-71788320D01*
X60741763Y-71773000D01*
X60670237Y-71773000D01*
X60563685Y-71788320D01*
X60456000Y-71837498D01*
X60456000Y-70168501D01*
X60563685Y-70217680D01*
X60670237Y-70233000D01*
X60741763Y-70233000D01*
X60848315Y-70217680D01*
X60956000Y-70168501D01*
X60956000Y-71837498D01*
G37*
G04 #@! TD.AperFunction*
G04 #@! TA.AperFunction,Conductor*
G36*
X60956000Y-69297498D02*
G01*
X60848315Y-69248320D01*
X60741763Y-69233000D01*
X60670237Y-69233000D01*
X60563685Y-69248320D01*
X60456000Y-69297498D01*
X60456000Y-67628501D01*
X60563685Y-67677680D01*
X60670237Y-67693000D01*
X60741763Y-67693000D01*
X60848315Y-67677680D01*
X60956000Y-67628501D01*
X60956000Y-69297498D01*
G37*
G04 #@! TD.AperFunction*
G04 #@! TA.AperFunction,Conductor*
G36*
X60956000Y-66757498D02*
G01*
X60848315Y-66708320D01*
X60741763Y-66693000D01*
X60670237Y-66693000D01*
X60563685Y-66708320D01*
X60456000Y-66757498D01*
X60456000Y-65088501D01*
X60563685Y-65137680D01*
X60670237Y-65153000D01*
X60741763Y-65153000D01*
X60848315Y-65137680D01*
X60956000Y-65088501D01*
X60956000Y-66757498D01*
G37*
G04 #@! TD.AperFunction*
G04 #@! TA.AperFunction,Conductor*
G36*
X50293000Y-62180498D02*
G01*
X50185315Y-62131320D01*
X50078763Y-62116000D01*
X50007237Y-62116000D01*
X49900685Y-62131320D01*
X49793000Y-62180498D01*
X49793000Y-60511501D01*
X49900685Y-60560680D01*
X50007237Y-60576000D01*
X50078763Y-60576000D01*
X50185315Y-60560680D01*
X50293000Y-60511501D01*
X50293000Y-62180498D01*
G37*
G04 #@! TD.AperFunction*
G04 #@! TA.AperFunction,Conductor*
G36*
X62253539Y-58359185D02*
G01*
X62299294Y-58411989D01*
X62310500Y-58463500D01*
X62310500Y-87586500D01*
X62290815Y-87653539D01*
X62238011Y-87699294D01*
X62186500Y-87710500D01*
X29507500Y-87710500D01*
X29440461Y-87690815D01*
X29394706Y-87638011D01*
X29383500Y-87586500D01*
X29383500Y-81915000D01*
X53269355Y-81915000D01*
X53289859Y-82083869D01*
X53289860Y-82083874D01*
X53350182Y-82242931D01*
X53407840Y-82326462D01*
X53446817Y-82382929D01*
X53552505Y-82476560D01*
X53574150Y-82495736D01*
X53724773Y-82574789D01*
X53724775Y-82574790D01*
X53889944Y-82615500D01*
X54060056Y-82615500D01*
X54225225Y-82574790D01*
X54357546Y-82505342D01*
X54375849Y-82495736D01*
X54375850Y-82495734D01*
X54375852Y-82495734D01*
X54503183Y-82382929D01*
X54503183Y-82382927D01*
X54508797Y-82377955D01*
X54510868Y-82380293D01*
X54557990Y-82350714D01*
X54591657Y-82346056D01*
X55012208Y-82346056D01*
X55019144Y-82346445D01*
X55050601Y-82349989D01*
X55056195Y-82350620D01*
X55056195Y-82350619D01*
X55056196Y-82350620D01*
X55112119Y-82340039D01*
X55168387Y-82331558D01*
X55168392Y-82331555D01*
X55176210Y-82329143D01*
X55183868Y-82326463D01*
X55183873Y-82326463D01*
X55234197Y-82299865D01*
X55285461Y-82275178D01*
X55285461Y-82275177D01*
X55285465Y-82275176D01*
X55292166Y-82270606D01*
X55298750Y-82265747D01*
X55298757Y-82265744D01*
X55338994Y-82225506D01*
X55380716Y-82186795D01*
X55380717Y-82186792D01*
X55380720Y-82186790D01*
X55386515Y-82179524D01*
X55387208Y-82180077D01*
X55396369Y-82168130D01*
X55520531Y-82043969D01*
X55581851Y-82010487D01*
X55651543Y-82015471D01*
X55707476Y-82057343D01*
X55724151Y-82087682D01*
X55786672Y-82252538D01*
X55786672Y-82252539D01*
X55837698Y-82326462D01*
X55883307Y-82392537D01*
X55988995Y-82486168D01*
X56010640Y-82505344D01*
X56161263Y-82584397D01*
X56161265Y-82584398D01*
X56326434Y-82625108D01*
X56496546Y-82625108D01*
X56661715Y-82584398D01*
X56741182Y-82542689D01*
X56812339Y-82505344D01*
X56812340Y-82505342D01*
X56812342Y-82505342D01*
X56939673Y-82392537D01*
X57036308Y-82252538D01*
X57096630Y-82093480D01*
X57117135Y-81924608D01*
X57096630Y-81755736D01*
X57036308Y-81596678D01*
X56939673Y-81456679D01*
X56812342Y-81343874D01*
X56812339Y-81343871D01*
X56661716Y-81264818D01*
X56539711Y-81234747D01*
X56479331Y-81199591D01*
X56447542Y-81137372D01*
X56446293Y-81129318D01*
X56431740Y-81009461D01*
X56371418Y-80850403D01*
X56274783Y-80710404D01*
X56147452Y-80597599D01*
X56147449Y-80597596D01*
X56117733Y-80582000D01*
X57554534Y-80582000D01*
X57574312Y-80732234D01*
X57574313Y-80732236D01*
X57623259Y-80850403D01*
X57632302Y-80872233D01*
X57724549Y-80992451D01*
X57844767Y-81084698D01*
X57984764Y-81142687D01*
X58097280Y-81157500D01*
X58097287Y-81157500D01*
X58172713Y-81157500D01*
X58172720Y-81157500D01*
X58285236Y-81142687D01*
X58425233Y-81084698D01*
X58545451Y-80992451D01*
X58637698Y-80872233D01*
X58695687Y-80732236D01*
X58715466Y-80582000D01*
X58695687Y-80431764D01*
X58637698Y-80291767D01*
X58545451Y-80171549D01*
X58425233Y-80079302D01*
X58425229Y-80079300D01*
X58361801Y-80053027D01*
X58285236Y-80021313D01*
X58271171Y-80019461D01*
X58172727Y-80006500D01*
X58172720Y-80006500D01*
X58097280Y-80006500D01*
X58097272Y-80006500D01*
X57984764Y-80021313D01*
X57984763Y-80021313D01*
X57844770Y-80079300D01*
X57724549Y-80171549D01*
X57632300Y-80291770D01*
X57574313Y-80431763D01*
X57574312Y-80431765D01*
X57554534Y-80581999D01*
X57554534Y-80582000D01*
X56117733Y-80582000D01*
X55996826Y-80518543D01*
X55831656Y-80477833D01*
X55661544Y-80477833D01*
X55496373Y-80518543D01*
X55345750Y-80597597D01*
X55327226Y-80614008D01*
X55263992Y-80643728D01*
X55194729Y-80634544D01*
X55162774Y-80614008D01*
X55144252Y-80597599D01*
X55144250Y-80597598D01*
X55144249Y-80597597D01*
X54993626Y-80518543D01*
X54828456Y-80477833D01*
X54658344Y-80477833D01*
X54493173Y-80518543D01*
X54342550Y-80597596D01*
X54215216Y-80710405D01*
X54118582Y-80850401D01*
X54058260Y-81009458D01*
X54058259Y-81009463D01*
X54046605Y-81105447D01*
X54018983Y-81169625D01*
X53961049Y-81208681D01*
X53923509Y-81214500D01*
X53889944Y-81214500D01*
X53724773Y-81255210D01*
X53574150Y-81334263D01*
X53446816Y-81447072D01*
X53350182Y-81587068D01*
X53289860Y-81746125D01*
X53289859Y-81746130D01*
X53269355Y-81915000D01*
X29383500Y-81915000D01*
X29383500Y-80582000D01*
X51774534Y-80582000D01*
X51794312Y-80732234D01*
X51794313Y-80732236D01*
X51843259Y-80850403D01*
X51852302Y-80872233D01*
X51944549Y-80992451D01*
X52064767Y-81084698D01*
X52204764Y-81142687D01*
X52317280Y-81157500D01*
X52317287Y-81157500D01*
X52392713Y-81157500D01*
X52392720Y-81157500D01*
X52505236Y-81142687D01*
X52645233Y-81084698D01*
X52765451Y-80992451D01*
X52857698Y-80872233D01*
X52915687Y-80732236D01*
X52935466Y-80582000D01*
X52915687Y-80431764D01*
X52857698Y-80291767D01*
X52765451Y-80171549D01*
X52645233Y-80079302D01*
X52645229Y-80079300D01*
X52581801Y-80053027D01*
X52505236Y-80021313D01*
X52491171Y-80019461D01*
X52392727Y-80006500D01*
X52392720Y-80006500D01*
X52317280Y-80006500D01*
X52317272Y-80006500D01*
X52204764Y-80021313D01*
X52204763Y-80021313D01*
X52064770Y-80079300D01*
X51944549Y-80171549D01*
X51852300Y-80291770D01*
X51794313Y-80431763D01*
X51794312Y-80431765D01*
X51774534Y-80581999D01*
X51774534Y-80582000D01*
X29383500Y-80582000D01*
X29383500Y-76598000D01*
X29947627Y-76598000D01*
X29967096Y-76882639D01*
X29967097Y-76882641D01*
X30025140Y-77161965D01*
X30025145Y-77161981D01*
X30120685Y-77430805D01*
X30251945Y-77684125D01*
X30251949Y-77684131D01*
X30416468Y-77917202D01*
X30416472Y-77917206D01*
X30416474Y-77917209D01*
X30611209Y-78125720D01*
X30611214Y-78125724D01*
X30611216Y-78125726D01*
X30832516Y-78305767D01*
X30832519Y-78305769D01*
X30832523Y-78305772D01*
X30960407Y-78383540D01*
X31076293Y-78454012D01*
X31288682Y-78546265D01*
X31337977Y-78567677D01*
X31612701Y-78644651D01*
X31861192Y-78678805D01*
X31895347Y-78683500D01*
X31895348Y-78683500D01*
X32180653Y-78683500D01*
X32211125Y-78679311D01*
X32463299Y-78644651D01*
X32738023Y-78567677D01*
X32999708Y-78454011D01*
X33243477Y-78305772D01*
X33464791Y-78125720D01*
X33659526Y-77917209D01*
X33668801Y-77904070D01*
X33824050Y-77684131D01*
X33824054Y-77684125D01*
X33836342Y-77660411D01*
X33955314Y-77430807D01*
X34050856Y-77161976D01*
X34050856Y-77161971D01*
X34050859Y-77161965D01*
X34082780Y-77008345D01*
X34108903Y-76882639D01*
X34128373Y-76598000D01*
X43087627Y-76598000D01*
X43107096Y-76882639D01*
X43107097Y-76882641D01*
X43165140Y-77161965D01*
X43165145Y-77161981D01*
X43260685Y-77430805D01*
X43391945Y-77684125D01*
X43391949Y-77684131D01*
X43556468Y-77917202D01*
X43556472Y-77917206D01*
X43556474Y-77917209D01*
X43751209Y-78125720D01*
X43751214Y-78125724D01*
X43751216Y-78125726D01*
X43972516Y-78305767D01*
X43972519Y-78305769D01*
X43972523Y-78305772D01*
X44100407Y-78383540D01*
X44216293Y-78454012D01*
X44428682Y-78546265D01*
X44477977Y-78567677D01*
X44752701Y-78644651D01*
X45001192Y-78678805D01*
X45035347Y-78683500D01*
X45035348Y-78683500D01*
X45320653Y-78683500D01*
X45351125Y-78679311D01*
X45603299Y-78644651D01*
X45878023Y-78567677D01*
X46139708Y-78454011D01*
X46383477Y-78305772D01*
X46474155Y-78232000D01*
X55290852Y-78232000D01*
X55311356Y-78400869D01*
X55311357Y-78400874D01*
X55371679Y-78559931D01*
X55377026Y-78567677D01*
X55468314Y-78699929D01*
X55574002Y-78793560D01*
X55595647Y-78812736D01*
X55746270Y-78891789D01*
X55746272Y-78891790D01*
X55911441Y-78932500D01*
X56081553Y-78932500D01*
X56246722Y-78891790D01*
X56388624Y-78817313D01*
X56457128Y-78803588D01*
X56503873Y-78817314D01*
X56645773Y-78891789D01*
X56645775Y-78891790D01*
X56810944Y-78932500D01*
X56981056Y-78932500D01*
X57146225Y-78891790D01*
X57288126Y-78817314D01*
X57296849Y-78812736D01*
X57296850Y-78812734D01*
X57296852Y-78812734D01*
X57424183Y-78699929D01*
X57520818Y-78559930D01*
X57581140Y-78400872D01*
X57601645Y-78232000D01*
X57581140Y-78063128D01*
X57520818Y-77904070D01*
X57424183Y-77764071D01*
X57296852Y-77651266D01*
X57296849Y-77651263D01*
X57146226Y-77572210D01*
X56981056Y-77531500D01*
X56810944Y-77531500D01*
X56645776Y-77572209D01*
X56503874Y-77646686D01*
X56435365Y-77660411D01*
X56388622Y-77646685D01*
X56246723Y-77572210D01*
X56081553Y-77531500D01*
X55911441Y-77531500D01*
X55746270Y-77572210D01*
X55595647Y-77651263D01*
X55468313Y-77764072D01*
X55371679Y-77904068D01*
X55311357Y-78063125D01*
X55311356Y-78063130D01*
X55290852Y-78232000D01*
X46474155Y-78232000D01*
X46604791Y-78125720D01*
X46799526Y-77917209D01*
X46808801Y-77904070D01*
X46964050Y-77684131D01*
X46964054Y-77684125D01*
X46976342Y-77660411D01*
X47095314Y-77430807D01*
X47190856Y-77161976D01*
X47190856Y-77161971D01*
X47190859Y-77161965D01*
X47222780Y-77008345D01*
X47248903Y-76882639D01*
X47268373Y-76598000D01*
X47248903Y-76313361D01*
X47232069Y-76232352D01*
X47190859Y-76034034D01*
X47190854Y-76034018D01*
X47095314Y-75765194D01*
X47095314Y-75765193D01*
X46964055Y-75511876D01*
X46964054Y-75511874D01*
X46964050Y-75511868D01*
X46799531Y-75278797D01*
X46799527Y-75278793D01*
X46799526Y-75278791D01*
X46758441Y-75234800D01*
X49078355Y-75234800D01*
X49098859Y-75403669D01*
X49098860Y-75403674D01*
X49159182Y-75562731D01*
X49221475Y-75652977D01*
X49255817Y-75702729D01*
X49326325Y-75765193D01*
X49383150Y-75815536D01*
X49533773Y-75894589D01*
X49533775Y-75894590D01*
X49698944Y-75935300D01*
X49869056Y-75935300D01*
X50034225Y-75894590D01*
X50113692Y-75852881D01*
X50184849Y-75815536D01*
X50184850Y-75815534D01*
X50184852Y-75815534D01*
X50312183Y-75702729D01*
X50408818Y-75562730D01*
X50408818Y-75562729D01*
X50413079Y-75556557D01*
X50414486Y-75557528D01*
X50456636Y-75513953D01*
X50524653Y-75497968D01*
X50547545Y-75501387D01*
X50547577Y-75501394D01*
X50547593Y-75501398D01*
X50547594Y-75501399D01*
X50547596Y-75501399D01*
X50717708Y-75501399D01*
X50882877Y-75460689D01*
X50991513Y-75403672D01*
X51033501Y-75381635D01*
X51033502Y-75381633D01*
X51033504Y-75381633D01*
X51160835Y-75268828D01*
X51257470Y-75128829D01*
X51317792Y-74969771D01*
X51338297Y-74800899D01*
X51317792Y-74632027D01*
X51310945Y-74613974D01*
X51280729Y-74534300D01*
X51257470Y-74472969D01*
X51245261Y-74455282D01*
X51223128Y-74423217D01*
X51160835Y-74332970D01*
X51033504Y-74220165D01*
X51033501Y-74220162D01*
X50882878Y-74141109D01*
X50717708Y-74100399D01*
X50547596Y-74100399D01*
X50382425Y-74141109D01*
X50231802Y-74220162D01*
X50104468Y-74332971D01*
X50003573Y-74479142D01*
X50002168Y-74478172D01*
X49959990Y-74521759D01*
X49891970Y-74537729D01*
X49869121Y-74534315D01*
X49869063Y-74534300D01*
X49869056Y-74534300D01*
X49698944Y-74534300D01*
X49533773Y-74575010D01*
X49383150Y-74654063D01*
X49255816Y-74766872D01*
X49159182Y-74906868D01*
X49098860Y-75065925D01*
X49098859Y-75065930D01*
X49078355Y-75234800D01*
X46758441Y-75234800D01*
X46604791Y-75070280D01*
X46604784Y-75070275D01*
X46604783Y-75070273D01*
X46383483Y-74890232D01*
X46383472Y-74890225D01*
X46139706Y-74741987D01*
X45878024Y-74628323D01*
X45603304Y-74551350D01*
X45603300Y-74551349D01*
X45603299Y-74551349D01*
X45461975Y-74531924D01*
X45320653Y-74512500D01*
X45320652Y-74512500D01*
X45035348Y-74512500D01*
X45035347Y-74512500D01*
X44752701Y-74551349D01*
X44752695Y-74551350D01*
X44477975Y-74628323D01*
X44216293Y-74741987D01*
X43972527Y-74890225D01*
X43972516Y-74890232D01*
X43751216Y-75070273D01*
X43751210Y-75070278D01*
X43751209Y-75070280D01*
X43680536Y-75145953D01*
X43556468Y-75278797D01*
X43391949Y-75511868D01*
X43391945Y-75511874D01*
X43260685Y-75765194D01*
X43165145Y-76034018D01*
X43165140Y-76034034D01*
X43107097Y-76313358D01*
X43107096Y-76313360D01*
X43087627Y-76598000D01*
X34128373Y-76598000D01*
X34108903Y-76313361D01*
X34092069Y-76232352D01*
X34050859Y-76034034D01*
X34050854Y-76034018D01*
X33955314Y-75765194D01*
X33955314Y-75765193D01*
X33824055Y-75511876D01*
X33824054Y-75511874D01*
X33824050Y-75511868D01*
X33659531Y-75278797D01*
X33659527Y-75278793D01*
X33659526Y-75278791D01*
X33464791Y-75070280D01*
X33464784Y-75070275D01*
X33464783Y-75070273D01*
X33243483Y-74890232D01*
X33243472Y-74890225D01*
X32999706Y-74741987D01*
X32738024Y-74628323D01*
X32463304Y-74551350D01*
X32463300Y-74551349D01*
X32463299Y-74551349D01*
X32321975Y-74531924D01*
X32180653Y-74512500D01*
X32180652Y-74512500D01*
X31895348Y-74512500D01*
X31895347Y-74512500D01*
X31612701Y-74551349D01*
X31612695Y-74551350D01*
X31337975Y-74628323D01*
X31076293Y-74741987D01*
X30832527Y-74890225D01*
X30832516Y-74890232D01*
X30611216Y-75070273D01*
X30611210Y-75070278D01*
X30611209Y-75070280D01*
X30540536Y-75145953D01*
X30416468Y-75278797D01*
X30251949Y-75511868D01*
X30251945Y-75511874D01*
X30120685Y-75765194D01*
X30025145Y-76034018D01*
X30025140Y-76034034D01*
X29967097Y-76313358D01*
X29967096Y-76313360D01*
X29947627Y-76598000D01*
X29383500Y-76598000D01*
X29383500Y-73888000D01*
X34030403Y-73888000D01*
X34048750Y-74086007D01*
X34103170Y-74277270D01*
X34103175Y-74277283D01*
X34191809Y-74455282D01*
X34311647Y-74613974D01*
X34458602Y-74747940D01*
X34458604Y-74747942D01*
X34627670Y-74852623D01*
X34627676Y-74852626D01*
X34666958Y-74867843D01*
X34813102Y-74924460D01*
X35008572Y-74961000D01*
X35008574Y-74961000D01*
X35207426Y-74961000D01*
X35207428Y-74961000D01*
X35402898Y-74924460D01*
X35588326Y-74852625D01*
X35757397Y-74747941D01*
X35904354Y-74613972D01*
X36024191Y-74455282D01*
X36112829Y-74277273D01*
X36167249Y-74086008D01*
X36185597Y-73888000D01*
X36530403Y-73888000D01*
X36548750Y-74086007D01*
X36603170Y-74277270D01*
X36603175Y-74277283D01*
X36691809Y-74455282D01*
X36811647Y-74613974D01*
X36958602Y-74747940D01*
X36958604Y-74747942D01*
X37127670Y-74852623D01*
X37127676Y-74852626D01*
X37166958Y-74867843D01*
X37313102Y-74924460D01*
X37508572Y-74961000D01*
X37508574Y-74961000D01*
X37707426Y-74961000D01*
X37707428Y-74961000D01*
X37902898Y-74924460D01*
X38088326Y-74852625D01*
X38257397Y-74747941D01*
X38404354Y-74613972D01*
X38509046Y-74475336D01*
X38565155Y-74433701D01*
X38634867Y-74429010D01*
X38696049Y-74462752D01*
X38706954Y-74475337D01*
X38811647Y-74613974D01*
X38958602Y-74747940D01*
X38958604Y-74747942D01*
X39127670Y-74852623D01*
X39127676Y-74852626D01*
X39166958Y-74867843D01*
X39313102Y-74924460D01*
X39508572Y-74961000D01*
X39508574Y-74961000D01*
X39707426Y-74961000D01*
X39707428Y-74961000D01*
X39902898Y-74924460D01*
X40088326Y-74852625D01*
X40257397Y-74747941D01*
X40404354Y-74613972D01*
X40524191Y-74455282D01*
X40612829Y-74277273D01*
X40635253Y-74198461D01*
X40672529Y-74139372D01*
X40735839Y-74109814D01*
X40805078Y-74119176D01*
X40858265Y-74164485D01*
X40874292Y-74200305D01*
X40907671Y-74324877D01*
X40907674Y-74324884D01*
X41001773Y-74526681D01*
X41001775Y-74526685D01*
X41048718Y-74593727D01*
X41048719Y-74593727D01*
X41611667Y-74030778D01*
X41618173Y-74062084D01*
X41683305Y-74187783D01*
X41779934Y-74291247D01*
X41900894Y-74364805D01*
X41966395Y-74383157D01*
X41402271Y-74947279D01*
X41469319Y-74994227D01*
X41671115Y-75088325D01*
X41671124Y-75088329D01*
X41886183Y-75145953D01*
X41886194Y-75145955D01*
X42107998Y-75165361D01*
X42108002Y-75165361D01*
X42329805Y-75145955D01*
X42329816Y-75145953D01*
X42544875Y-75088329D01*
X42544884Y-75088325D01*
X42746680Y-74994227D01*
X42746684Y-74994225D01*
X42813727Y-74947280D01*
X42252964Y-74386517D01*
X42378102Y-74332163D01*
X42487919Y-74242820D01*
X42569560Y-74127161D01*
X42603949Y-74030396D01*
X43167280Y-74593727D01*
X43214225Y-74526684D01*
X43214227Y-74526680D01*
X43308325Y-74324884D01*
X43308329Y-74324875D01*
X43365954Y-74109814D01*
X43365955Y-74109805D01*
X43385361Y-73888001D01*
X43385361Y-73887998D01*
X43365955Y-73666194D01*
X43365953Y-73666183D01*
X43308329Y-73451124D01*
X43308325Y-73451115D01*
X43214227Y-73249321D01*
X43214226Y-73249319D01*
X43167279Y-73182272D01*
X43167279Y-73182271D01*
X42604331Y-73745219D01*
X42597827Y-73713916D01*
X42532695Y-73588217D01*
X42436066Y-73484753D01*
X42315106Y-73411195D01*
X42249604Y-73392842D01*
X42665123Y-72977323D01*
X47278078Y-72977323D01*
X47298582Y-73146192D01*
X47298583Y-73146197D01*
X47358905Y-73305254D01*
X47421198Y-73395500D01*
X47455540Y-73445252D01*
X47554791Y-73533180D01*
X47582873Y-73558059D01*
X47733496Y-73637112D01*
X47733498Y-73637113D01*
X47898667Y-73677823D01*
X48068779Y-73677823D01*
X48233948Y-73637113D01*
X48350971Y-73575694D01*
X48384572Y-73558059D01*
X48384573Y-73558057D01*
X48384575Y-73558057D01*
X48498871Y-73456800D01*
X51592955Y-73456800D01*
X51613459Y-73625669D01*
X51613460Y-73625674D01*
X51673782Y-73784731D01*
X51712827Y-73841296D01*
X51770417Y-73924729D01*
X51803574Y-73954103D01*
X51897750Y-74037536D01*
X52048373Y-74116589D01*
X52048375Y-74116590D01*
X52213544Y-74157300D01*
X52383656Y-74157300D01*
X52548825Y-74116590D01*
X52630226Y-74073867D01*
X52699449Y-74037536D01*
X52699450Y-74037534D01*
X52699452Y-74037534D01*
X52826783Y-73924729D01*
X52923418Y-73784730D01*
X52983740Y-73625672D01*
X53004245Y-73456800D01*
X52994114Y-73373367D01*
X53611199Y-73373367D01*
X53631703Y-73542236D01*
X53631704Y-73542241D01*
X53692026Y-73701298D01*
X53700736Y-73713916D01*
X53788661Y-73841296D01*
X53882838Y-73924729D01*
X53915994Y-73954103D01*
X54066617Y-74033156D01*
X54066619Y-74033157D01*
X54231788Y-74073867D01*
X54401900Y-74073867D01*
X54567069Y-74033157D01*
X54646536Y-73991448D01*
X54717693Y-73954103D01*
X54717694Y-73954101D01*
X54717696Y-73954101D01*
X54845027Y-73841296D01*
X54941662Y-73701297D01*
X55001984Y-73542239D01*
X55022489Y-73373367D01*
X55001984Y-73204495D01*
X54941662Y-73045437D01*
X54929665Y-73028057D01*
X54876185Y-72950578D01*
X54845027Y-72905438D01*
X54717696Y-72792633D01*
X54717693Y-72792630D01*
X54567070Y-72713577D01*
X54401900Y-72672867D01*
X54231788Y-72672867D01*
X54066617Y-72713577D01*
X53915994Y-72792630D01*
X53788660Y-72905439D01*
X53692026Y-73045435D01*
X53631704Y-73204492D01*
X53631703Y-73204497D01*
X53611199Y-73373367D01*
X52994114Y-73373367D01*
X52983740Y-73287928D01*
X52969098Y-73249321D01*
X52923417Y-73128868D01*
X52865828Y-73045437D01*
X52826783Y-72988871D01*
X52731916Y-72904826D01*
X52699449Y-72876063D01*
X52548826Y-72797010D01*
X52383656Y-72756300D01*
X52213544Y-72756300D01*
X52048373Y-72797010D01*
X51897750Y-72876063D01*
X51770416Y-72988872D01*
X51673782Y-73128868D01*
X51613460Y-73287925D01*
X51613459Y-73287930D01*
X51592955Y-73456800D01*
X48498871Y-73456800D01*
X48511906Y-73445252D01*
X48608541Y-73305253D01*
X48668863Y-73146195D01*
X48689368Y-72977323D01*
X48668863Y-72808451D01*
X48658745Y-72781773D01*
X48624090Y-72690392D01*
X48608541Y-72649393D01*
X48511906Y-72509394D01*
X48384575Y-72396589D01*
X48384572Y-72396586D01*
X48233949Y-72317533D01*
X48068779Y-72276823D01*
X47898667Y-72276823D01*
X47733496Y-72317533D01*
X47582873Y-72396586D01*
X47455539Y-72509395D01*
X47358905Y-72649391D01*
X47298583Y-72808448D01*
X47298582Y-72808453D01*
X47278078Y-72977323D01*
X42665123Y-72977323D01*
X42813727Y-72828719D01*
X42813727Y-72828718D01*
X42746685Y-72781775D01*
X42746681Y-72781773D01*
X42544884Y-72687674D01*
X42544875Y-72687670D01*
X42329816Y-72630046D01*
X42329805Y-72630044D01*
X42108002Y-72610639D01*
X42107998Y-72610639D01*
X41886194Y-72630044D01*
X41886183Y-72630046D01*
X41671124Y-72687670D01*
X41671115Y-72687674D01*
X41469320Y-72781773D01*
X41402272Y-72828719D01*
X41963035Y-73389482D01*
X41837898Y-73443837D01*
X41728081Y-73533180D01*
X41646440Y-73648839D01*
X41612050Y-73745603D01*
X41048719Y-73182272D01*
X41001773Y-73249320D01*
X40907674Y-73451115D01*
X40907671Y-73451122D01*
X40874292Y-73575694D01*
X40837926Y-73635354D01*
X40775079Y-73665883D01*
X40705704Y-73657588D01*
X40651826Y-73613103D01*
X40635254Y-73577543D01*
X40612829Y-73498727D01*
X40524191Y-73320718D01*
X40404354Y-73162028D01*
X40404352Y-73162025D01*
X40257397Y-73028059D01*
X40257395Y-73028057D01*
X40088329Y-72923376D01*
X40088323Y-72923373D01*
X39942182Y-72866758D01*
X39902898Y-72851540D01*
X39707428Y-72815000D01*
X39508572Y-72815000D01*
X39313102Y-72851540D01*
X39313099Y-72851540D01*
X39313099Y-72851541D01*
X39127676Y-72923373D01*
X39127670Y-72923376D01*
X38958604Y-73028057D01*
X38958602Y-73028059D01*
X38811647Y-73162025D01*
X38706954Y-73300662D01*
X38650845Y-73342298D01*
X38581133Y-73346989D01*
X38519951Y-73313247D01*
X38509046Y-73300662D01*
X38404352Y-73162025D01*
X38257397Y-73028059D01*
X38257395Y-73028057D01*
X38088329Y-72923376D01*
X38088323Y-72923373D01*
X37942182Y-72866758D01*
X37902898Y-72851540D01*
X37707428Y-72815000D01*
X37508572Y-72815000D01*
X37313102Y-72851540D01*
X37313099Y-72851540D01*
X37313099Y-72851541D01*
X37127676Y-72923373D01*
X37127670Y-72923376D01*
X36958604Y-73028057D01*
X36958602Y-73028059D01*
X36811647Y-73162025D01*
X36691809Y-73320717D01*
X36603175Y-73498716D01*
X36603170Y-73498729D01*
X36548750Y-73689992D01*
X36530403Y-73887999D01*
X36530403Y-73888000D01*
X36185597Y-73888000D01*
X36167249Y-73689992D01*
X36112829Y-73498727D01*
X36024191Y-73320718D01*
X35904354Y-73162028D01*
X35904352Y-73162025D01*
X35757397Y-73028059D01*
X35757395Y-73028057D01*
X35588329Y-72923376D01*
X35588323Y-72923373D01*
X35442182Y-72866758D01*
X35402898Y-72851540D01*
X35207428Y-72815000D01*
X35008572Y-72815000D01*
X34813102Y-72851540D01*
X34813099Y-72851540D01*
X34813099Y-72851541D01*
X34627676Y-72923373D01*
X34627670Y-72923376D01*
X34458604Y-73028057D01*
X34458602Y-73028059D01*
X34311647Y-73162025D01*
X34191809Y-73320717D01*
X34103175Y-73498716D01*
X34103170Y-73498729D01*
X34048750Y-73689992D01*
X34030403Y-73887999D01*
X34030403Y-73888000D01*
X29383500Y-73888000D01*
X29383500Y-72273000D01*
X57010571Y-72273000D01*
X57030244Y-72485310D01*
X57087821Y-72687670D01*
X57088596Y-72690392D01*
X57088596Y-72690394D01*
X57183632Y-72881253D01*
X57312127Y-73051406D01*
X57312128Y-73051407D01*
X57469698Y-73195052D01*
X57650981Y-73307298D01*
X57849802Y-73384321D01*
X58059390Y-73423500D01*
X58059392Y-73423500D01*
X58272608Y-73423500D01*
X58272610Y-73423500D01*
X58482198Y-73384321D01*
X58681019Y-73307298D01*
X58862302Y-73195052D01*
X59019872Y-73051407D01*
X59148366Y-72881255D01*
X59215325Y-72746781D01*
X59262825Y-72695548D01*
X59330488Y-72678126D01*
X59396828Y-72700051D01*
X59438705Y-72749651D01*
X59532399Y-72950578D01*
X59667894Y-73144082D01*
X59834917Y-73311105D01*
X60028421Y-73446600D01*
X60242507Y-73546429D01*
X60242516Y-73546433D01*
X60456000Y-73603634D01*
X60456000Y-72708501D01*
X60563685Y-72757680D01*
X60670237Y-72773000D01*
X60741763Y-72773000D01*
X60848315Y-72757680D01*
X60956000Y-72708501D01*
X60956000Y-73603633D01*
X61169483Y-73546433D01*
X61169492Y-73546429D01*
X61383578Y-73446600D01*
X61577082Y-73311105D01*
X61744105Y-73144082D01*
X61879600Y-72950578D01*
X61979429Y-72736492D01*
X61979432Y-72736486D01*
X62036636Y-72523000D01*
X61139686Y-72523000D01*
X61165493Y-72482844D01*
X61206000Y-72344889D01*
X61206000Y-72201111D01*
X61165493Y-72063156D01*
X61139686Y-72023000D01*
X62036636Y-72023000D01*
X62036635Y-72022999D01*
X61979432Y-71809513D01*
X61979429Y-71809507D01*
X61879600Y-71595422D01*
X61879599Y-71595420D01*
X61744113Y-71401926D01*
X61744108Y-71401920D01*
X61577082Y-71234894D01*
X61390968Y-71104575D01*
X61347344Y-71049998D01*
X61340151Y-70980499D01*
X61371673Y-70918145D01*
X61390968Y-70901425D01*
X61577082Y-70771105D01*
X61744105Y-70604082D01*
X61879600Y-70410578D01*
X61979429Y-70196492D01*
X61979432Y-70196486D01*
X62036636Y-69983000D01*
X61139686Y-69983000D01*
X61165493Y-69942844D01*
X61206000Y-69804889D01*
X61206000Y-69661111D01*
X61165493Y-69523156D01*
X61139686Y-69483000D01*
X62036636Y-69483000D01*
X62036635Y-69482999D01*
X61979432Y-69269513D01*
X61979429Y-69269507D01*
X61879600Y-69055422D01*
X61879599Y-69055420D01*
X61744113Y-68861926D01*
X61744108Y-68861920D01*
X61577082Y-68694894D01*
X61390968Y-68564575D01*
X61347344Y-68509998D01*
X61340151Y-68440499D01*
X61371673Y-68378145D01*
X61390968Y-68361425D01*
X61577082Y-68231105D01*
X61744105Y-68064082D01*
X61879600Y-67870578D01*
X61979429Y-67656492D01*
X61979432Y-67656486D01*
X62036636Y-67443000D01*
X61139686Y-67443000D01*
X61165493Y-67402844D01*
X61206000Y-67264889D01*
X61206000Y-67121111D01*
X61165493Y-66983156D01*
X61139686Y-66943000D01*
X62036636Y-66943000D01*
X62036635Y-66942999D01*
X61979432Y-66729513D01*
X61979429Y-66729507D01*
X61879600Y-66515422D01*
X61879599Y-66515420D01*
X61744113Y-66321926D01*
X61744108Y-66321920D01*
X61577082Y-66154894D01*
X61390968Y-66024575D01*
X61347344Y-65969998D01*
X61340151Y-65900499D01*
X61371673Y-65838145D01*
X61390968Y-65821425D01*
X61577082Y-65691105D01*
X61744105Y-65524082D01*
X61879600Y-65330578D01*
X61979429Y-65116492D01*
X61979432Y-65116486D01*
X62036636Y-64903000D01*
X61139686Y-64903000D01*
X61165493Y-64862844D01*
X61206000Y-64724889D01*
X61206000Y-64581111D01*
X61165493Y-64443156D01*
X61139686Y-64403000D01*
X62036636Y-64403000D01*
X62036635Y-64402999D01*
X61979432Y-64189513D01*
X61979429Y-64189507D01*
X61879600Y-63975422D01*
X61879599Y-63975420D01*
X61744113Y-63781926D01*
X61744108Y-63781920D01*
X61577082Y-63614894D01*
X61383578Y-63479399D01*
X61169492Y-63379570D01*
X61169486Y-63379567D01*
X60956000Y-63322364D01*
X60956000Y-64217498D01*
X60848315Y-64168320D01*
X60741763Y-64153000D01*
X60670237Y-64153000D01*
X60563685Y-64168320D01*
X60456000Y-64217498D01*
X60456000Y-63322364D01*
X60455999Y-63322364D01*
X60242513Y-63379567D01*
X60242507Y-63379570D01*
X60028422Y-63479399D01*
X60028420Y-63479400D01*
X59834926Y-63614886D01*
X59834920Y-63614891D01*
X59667891Y-63781920D01*
X59667890Y-63781922D01*
X59542074Y-63961606D01*
X59487497Y-64005230D01*
X59417998Y-64012423D01*
X59355644Y-63980901D01*
X59320230Y-63920671D01*
X59316499Y-63890482D01*
X59316499Y-63758143D01*
X59316499Y-63758136D01*
X59315847Y-63752512D01*
X59313586Y-63733012D01*
X59313585Y-63733010D01*
X59313585Y-63733009D01*
X59268206Y-63630235D01*
X59188765Y-63550794D01*
X59155244Y-63535993D01*
X59085992Y-63505415D01*
X59060865Y-63502500D01*
X57271143Y-63502500D01*
X57271117Y-63502502D01*
X57246012Y-63505413D01*
X57246008Y-63505415D01*
X57143235Y-63550793D01*
X57063794Y-63630234D01*
X57018415Y-63733006D01*
X57018415Y-63733008D01*
X57015500Y-63758131D01*
X57015500Y-65547856D01*
X57015502Y-65547882D01*
X57018413Y-65572987D01*
X57018415Y-65572991D01*
X57063793Y-65675764D01*
X57063794Y-65675765D01*
X57143235Y-65755206D01*
X57246009Y-65800585D01*
X57271135Y-65803500D01*
X57999758Y-65803499D01*
X58066795Y-65823183D01*
X58112550Y-65875987D01*
X58122494Y-65945146D01*
X58093469Y-66008702D01*
X58034691Y-66046476D01*
X58022542Y-66049388D01*
X58001139Y-66053389D01*
X57849802Y-66081679D01*
X57849800Y-66081679D01*
X57849798Y-66081680D01*
X57650982Y-66158701D01*
X57650980Y-66158702D01*
X57469699Y-66270947D01*
X57312127Y-66414593D01*
X57183632Y-66584746D01*
X57088596Y-66775605D01*
X57088596Y-66775607D01*
X57030244Y-66980689D01*
X57013577Y-67160564D01*
X57010571Y-67193000D01*
X57030244Y-67405310D01*
X57078201Y-67573860D01*
X57088596Y-67610392D01*
X57088596Y-67610394D01*
X57183632Y-67801253D01*
X57274719Y-67921870D01*
X57312128Y-67971407D01*
X57469698Y-68115052D01*
X57650981Y-68227298D01*
X57849802Y-68304321D01*
X58046613Y-68341111D01*
X58108893Y-68372779D01*
X58144166Y-68433092D01*
X58141232Y-68502900D01*
X58101023Y-68560040D01*
X58046613Y-68584888D01*
X57849802Y-68621679D01*
X57849799Y-68621679D01*
X57849799Y-68621680D01*
X57650982Y-68698701D01*
X57650980Y-68698702D01*
X57469699Y-68810947D01*
X57312127Y-68954593D01*
X57183632Y-69124746D01*
X57088596Y-69315605D01*
X57088596Y-69315607D01*
X57030244Y-69520689D01*
X57013577Y-69700564D01*
X57010571Y-69733000D01*
X57030244Y-69945310D01*
X57054103Y-70029166D01*
X57088596Y-70150392D01*
X57088596Y-70150394D01*
X57183632Y-70341253D01*
X57312127Y-70511406D01*
X57312128Y-70511407D01*
X57469698Y-70655052D01*
X57650981Y-70767298D01*
X57849802Y-70844321D01*
X58046613Y-70881111D01*
X58108893Y-70912779D01*
X58144166Y-70973092D01*
X58141232Y-71042900D01*
X58101023Y-71100040D01*
X58046613Y-71124888D01*
X57849802Y-71161679D01*
X57849799Y-71161679D01*
X57849799Y-71161680D01*
X57650982Y-71238701D01*
X57650980Y-71238702D01*
X57469699Y-71350947D01*
X57312127Y-71494593D01*
X57183632Y-71664746D01*
X57088596Y-71855605D01*
X57088596Y-71855607D01*
X57088595Y-71855611D01*
X57030244Y-72060690D01*
X57010571Y-72273000D01*
X29383500Y-72273000D01*
X29383500Y-68805699D01*
X29875872Y-68805699D01*
X29895545Y-69018009D01*
X29953897Y-69223091D01*
X29953897Y-69223093D01*
X30048933Y-69413952D01*
X30129538Y-69520689D01*
X30177429Y-69584106D01*
X30334999Y-69727751D01*
X30516282Y-69839997D01*
X30715103Y-69917020D01*
X30924691Y-69956199D01*
X30924693Y-69956199D01*
X31137909Y-69956199D01*
X31137911Y-69956199D01*
X31347499Y-69917020D01*
X31546320Y-69839997D01*
X31727603Y-69727751D01*
X31885173Y-69584106D01*
X32013667Y-69413954D01*
X32056497Y-69327939D01*
X32108704Y-69223093D01*
X32108704Y-69223092D01*
X32108706Y-69223088D01*
X32167057Y-69018009D01*
X32177830Y-68901746D01*
X32203616Y-68836810D01*
X32245923Y-68806503D01*
X32354431Y-68806503D01*
X32390804Y-68827367D01*
X32422994Y-68889380D01*
X32424771Y-68901746D01*
X32425310Y-68907549D01*
X32435545Y-69018009D01*
X32493897Y-69223091D01*
X32493897Y-69223093D01*
X32588933Y-69413952D01*
X32669538Y-69520689D01*
X32717429Y-69584106D01*
X32874999Y-69727751D01*
X33056282Y-69839997D01*
X33255103Y-69917020D01*
X33464691Y-69956199D01*
X33464693Y-69956199D01*
X33677909Y-69956199D01*
X33677911Y-69956199D01*
X33887499Y-69917020D01*
X34086320Y-69839997D01*
X34267603Y-69727751D01*
X34425173Y-69584106D01*
X34553667Y-69413954D01*
X34596497Y-69327939D01*
X34648704Y-69223093D01*
X34648704Y-69223092D01*
X34648706Y-69223088D01*
X34707057Y-69018009D01*
X34713330Y-68950304D01*
X34739115Y-68885368D01*
X34795915Y-68844680D01*
X34865696Y-68841160D01*
X34926303Y-68875924D01*
X34958494Y-68937937D01*
X34960801Y-68961746D01*
X34960801Y-69700555D01*
X34960803Y-69700581D01*
X34963714Y-69725686D01*
X34963716Y-69725690D01*
X35009094Y-69828463D01*
X35009095Y-69828464D01*
X35088536Y-69907905D01*
X35191310Y-69953284D01*
X35216436Y-69956199D01*
X37006165Y-69956198D01*
X37006180Y-69956196D01*
X37006183Y-69956196D01*
X37031288Y-69953285D01*
X37031289Y-69953284D01*
X37031292Y-69953284D01*
X37134066Y-69907905D01*
X37213507Y-69828464D01*
X37258886Y-69725690D01*
X37261801Y-69700564D01*
X37261801Y-69369376D01*
X53682403Y-69369376D01*
X53702907Y-69538245D01*
X53702908Y-69538250D01*
X53763230Y-69697307D01*
X53787867Y-69732999D01*
X53859865Y-69837305D01*
X53949843Y-69917018D01*
X53987198Y-69950112D01*
X54137821Y-70029165D01*
X54137823Y-70029166D01*
X54302992Y-70069876D01*
X54473104Y-70069876D01*
X54638273Y-70029166D01*
X54777299Y-69956199D01*
X54788897Y-69950112D01*
X54788898Y-69950110D01*
X54788900Y-69950110D01*
X54916231Y-69837305D01*
X55012866Y-69697306D01*
X55073188Y-69538248D01*
X55093693Y-69369376D01*
X55073188Y-69200504D01*
X55012866Y-69041446D01*
X54996688Y-69018009D01*
X54978524Y-68991694D01*
X54916231Y-68901447D01*
X54809061Y-68806503D01*
X54788897Y-68788639D01*
X54638274Y-68709586D01*
X54473104Y-68668876D01*
X54302992Y-68668876D01*
X54137821Y-68709586D01*
X53987198Y-68788639D01*
X53859864Y-68901448D01*
X53763230Y-69041444D01*
X53702908Y-69200501D01*
X53702907Y-69200506D01*
X53682403Y-69369376D01*
X37261801Y-69369376D01*
X37261800Y-68249800D01*
X44861955Y-68249800D01*
X44882459Y-68418669D01*
X44882460Y-68418674D01*
X44942782Y-68577731D01*
X44992425Y-68649650D01*
X45039417Y-68717729D01*
X45103597Y-68774587D01*
X45166750Y-68830536D01*
X45313484Y-68907548D01*
X45317375Y-68909590D01*
X45482544Y-68950300D01*
X45652656Y-68950300D01*
X45817825Y-68909590D01*
X45968452Y-68830534D01*
X46055551Y-68753370D01*
X46118783Y-68723649D01*
X46188047Y-68732832D01*
X46220006Y-68753370D01*
X46304802Y-68828493D01*
X46455429Y-68907549D01*
X46620598Y-68948259D01*
X46790710Y-68948259D01*
X46955879Y-68907549D01*
X47035346Y-68865840D01*
X47106503Y-68828495D01*
X47106504Y-68828493D01*
X47106506Y-68828493D01*
X47233837Y-68715688D01*
X47330472Y-68575689D01*
X47390794Y-68416631D01*
X47411299Y-68247759D01*
X47390794Y-68078887D01*
X47330472Y-67919829D01*
X47324260Y-67910830D01*
X47248627Y-67801257D01*
X47233837Y-67779830D01*
X47118533Y-67677680D01*
X47106503Y-67667022D01*
X46955880Y-67587969D01*
X46790710Y-67547259D01*
X46620598Y-67547259D01*
X46455427Y-67587969D01*
X46304803Y-67667023D01*
X46304801Y-67667025D01*
X46217701Y-67744188D01*
X46154468Y-67773909D01*
X46085205Y-67764725D01*
X46053249Y-67744188D01*
X45968452Y-67669065D01*
X45968450Y-67669064D01*
X45817826Y-67590010D01*
X45652656Y-67549300D01*
X45482544Y-67549300D01*
X45317373Y-67590010D01*
X45166750Y-67669063D01*
X45039416Y-67781872D01*
X44942782Y-67921868D01*
X44882460Y-68080925D01*
X44882459Y-68080930D01*
X44861955Y-68249800D01*
X37261800Y-68249800D01*
X37261800Y-67910835D01*
X37261798Y-67910816D01*
X37258887Y-67885711D01*
X37258886Y-67885709D01*
X37258886Y-67885708D01*
X37213507Y-67782934D01*
X37134066Y-67703493D01*
X37113425Y-67694379D01*
X37031294Y-67658114D01*
X37022294Y-67655666D01*
X37023118Y-67652633D01*
X36973503Y-67631588D01*
X36934143Y-67573860D01*
X36932241Y-67504016D01*
X36968401Y-67444231D01*
X37022790Y-67417579D01*
X37022288Y-67415734D01*
X37031285Y-67413284D01*
X37031292Y-67413284D01*
X37134066Y-67367905D01*
X37213507Y-67288464D01*
X37258886Y-67185690D01*
X37261801Y-67160564D01*
X37261800Y-65685861D01*
X45572937Y-65685861D01*
X45591977Y-65842679D01*
X45647995Y-65990384D01*
X45737732Y-66120391D01*
X45855975Y-66225144D01*
X45855977Y-66225145D01*
X45995849Y-66298557D01*
X46149229Y-66336361D01*
X46149230Y-66336361D01*
X46307200Y-66336361D01*
X46460580Y-66298557D01*
X46481900Y-66287367D01*
X46600455Y-66225144D01*
X46718698Y-66120391D01*
X46808435Y-65990384D01*
X46864452Y-65842679D01*
X46883493Y-65685861D01*
X46869789Y-65572993D01*
X46864452Y-65529042D01*
X46816094Y-65401534D01*
X46808435Y-65381338D01*
X46718698Y-65251331D01*
X46600455Y-65146578D01*
X46600453Y-65146577D01*
X46600452Y-65146576D01*
X46460580Y-65073164D01*
X46307201Y-65035361D01*
X46307200Y-65035361D01*
X46149230Y-65035361D01*
X46149229Y-65035361D01*
X45995849Y-65073164D01*
X45855977Y-65146576D01*
X45847169Y-65154379D01*
X45747212Y-65242933D01*
X45737731Y-65251332D01*
X45647996Y-65381336D01*
X45647995Y-65381337D01*
X45591977Y-65529042D01*
X45572937Y-65685860D01*
X45572937Y-65685861D01*
X37261800Y-65685861D01*
X37261800Y-65370835D01*
X37261798Y-65370816D01*
X37258887Y-65345711D01*
X37258886Y-65345709D01*
X37258886Y-65345708D01*
X37213507Y-65242934D01*
X37134066Y-65163493D01*
X37113425Y-65154379D01*
X37031294Y-65118114D01*
X37022294Y-65115666D01*
X37023118Y-65112633D01*
X36973503Y-65091588D01*
X36934143Y-65033860D01*
X36932241Y-64964016D01*
X36968401Y-64904231D01*
X37022790Y-64877579D01*
X37022288Y-64875734D01*
X37031285Y-64873284D01*
X37031292Y-64873284D01*
X37134066Y-64827905D01*
X37213507Y-64748464D01*
X37258886Y-64645690D01*
X37261801Y-64620564D01*
X37261800Y-62830835D01*
X37261221Y-62825844D01*
X37258887Y-62805711D01*
X37258886Y-62805709D01*
X37258886Y-62805708D01*
X37213507Y-62702934D01*
X37134066Y-62623493D01*
X37117094Y-62615999D01*
X37031293Y-62578114D01*
X37006166Y-62575199D01*
X35216444Y-62575199D01*
X35216418Y-62575201D01*
X35191313Y-62578112D01*
X35191309Y-62578114D01*
X35088536Y-62623492D01*
X35009095Y-62702933D01*
X34963716Y-62805705D01*
X34963716Y-62805707D01*
X34960801Y-62830830D01*
X34960801Y-63569650D01*
X34941116Y-63636689D01*
X34888312Y-63682444D01*
X34819154Y-63692388D01*
X34755598Y-63663363D01*
X34717824Y-63604585D01*
X34713330Y-63581090D01*
X34709342Y-63538054D01*
X34707057Y-63513389D01*
X34706336Y-63510856D01*
X34673203Y-63394407D01*
X34648706Y-63308310D01*
X34648704Y-63308305D01*
X34648704Y-63308304D01*
X34553668Y-63117445D01*
X34425173Y-62947292D01*
X34297434Y-62830842D01*
X34267603Y-62803647D01*
X34086320Y-62691401D01*
X34086318Y-62691400D01*
X33947618Y-62637668D01*
X33887499Y-62614378D01*
X33677911Y-62575199D01*
X33464691Y-62575199D01*
X33255103Y-62614378D01*
X33255100Y-62614378D01*
X33255100Y-62614379D01*
X33056283Y-62691400D01*
X33056281Y-62691401D01*
X32875000Y-62803646D01*
X32717428Y-62947292D01*
X32588933Y-63117445D01*
X32493897Y-63308304D01*
X32493897Y-63308306D01*
X32435545Y-63513388D01*
X32424772Y-63629650D01*
X32398986Y-63694587D01*
X32354431Y-63726503D01*
X32390804Y-63747367D01*
X32422994Y-63809380D01*
X32424771Y-63821746D01*
X32435545Y-63938009D01*
X32487171Y-64119454D01*
X32493897Y-64143091D01*
X32493897Y-64143093D01*
X32588933Y-64333952D01*
X32671401Y-64443156D01*
X32717429Y-64504106D01*
X32874999Y-64647751D01*
X33056282Y-64759997D01*
X33255103Y-64837020D01*
X33451914Y-64873810D01*
X33514194Y-64905478D01*
X33549467Y-64965791D01*
X33546533Y-65035599D01*
X33506324Y-65092739D01*
X33451914Y-65117587D01*
X33255103Y-65154378D01*
X33255100Y-65154378D01*
X33255100Y-65154379D01*
X33056283Y-65231400D01*
X33056281Y-65231401D01*
X32875000Y-65343646D01*
X32717428Y-65487292D01*
X32588933Y-65657445D01*
X32493897Y-65848304D01*
X32493897Y-65848306D01*
X32435545Y-66053388D01*
X32424772Y-66169650D01*
X32398986Y-66234587D01*
X32354431Y-66266503D01*
X32390804Y-66287367D01*
X32422994Y-66349380D01*
X32424772Y-66361747D01*
X32435545Y-66478009D01*
X32493897Y-66683091D01*
X32493897Y-66683093D01*
X32588933Y-66873952D01*
X32669538Y-66980689D01*
X32717429Y-67044106D01*
X32874999Y-67187751D01*
X33056282Y-67299997D01*
X33255103Y-67377020D01*
X33451914Y-67413810D01*
X33514194Y-67445478D01*
X33549467Y-67505791D01*
X33546533Y-67575599D01*
X33506324Y-67632739D01*
X33451914Y-67657587D01*
X33255103Y-67694378D01*
X33255100Y-67694378D01*
X33255100Y-67694379D01*
X33056283Y-67771400D01*
X33056281Y-67771401D01*
X32875000Y-67883646D01*
X32717428Y-68027292D01*
X32588933Y-68197445D01*
X32493897Y-68388304D01*
X32493897Y-68388306D01*
X32435545Y-68593388D01*
X32424772Y-68709650D01*
X32398986Y-68774587D01*
X32354431Y-68806503D01*
X32245923Y-68806503D01*
X32248170Y-68804893D01*
X32211798Y-68784030D01*
X32179608Y-68722017D01*
X32177830Y-68709650D01*
X32175507Y-68684585D01*
X32167057Y-68593389D01*
X32108706Y-68388310D01*
X32108704Y-68388305D01*
X32108704Y-68388304D01*
X32013668Y-68197445D01*
X31885173Y-68027292D01*
X31769531Y-67921870D01*
X31727603Y-67883647D01*
X31546320Y-67771401D01*
X31546318Y-67771400D01*
X31446909Y-67732889D01*
X31347499Y-67694378D01*
X31150686Y-67657587D01*
X31088407Y-67625920D01*
X31053134Y-67565607D01*
X31056068Y-67495799D01*
X31096277Y-67438659D01*
X31150685Y-67413810D01*
X31347499Y-67377020D01*
X31546320Y-67299997D01*
X31727603Y-67187751D01*
X31885173Y-67044106D01*
X32013667Y-66873954D01*
X32056497Y-66787939D01*
X32108704Y-66683093D01*
X32108704Y-66683092D01*
X32108706Y-66683088D01*
X32167057Y-66478009D01*
X32177830Y-66361746D01*
X32203616Y-66296810D01*
X32248170Y-66264893D01*
X32211798Y-66244030D01*
X32179608Y-66182017D01*
X32177830Y-66169650D01*
X32173330Y-66121090D01*
X32167057Y-66053389D01*
X32108706Y-65848310D01*
X32108704Y-65848305D01*
X32108704Y-65848304D01*
X32013668Y-65657445D01*
X31885173Y-65487292D01*
X31806443Y-65415520D01*
X31727603Y-65343647D01*
X31546320Y-65231401D01*
X31546318Y-65231400D01*
X31446909Y-65192889D01*
X31347499Y-65154378D01*
X31150686Y-65117587D01*
X31088407Y-65085920D01*
X31053134Y-65025607D01*
X31056068Y-64955799D01*
X31096277Y-64898659D01*
X31150685Y-64873810D01*
X31347499Y-64837020D01*
X31546320Y-64759997D01*
X31727603Y-64647751D01*
X31885173Y-64504106D01*
X32013667Y-64333954D01*
X32019519Y-64322202D01*
X32108704Y-64143093D01*
X32108704Y-64143092D01*
X32108706Y-64143088D01*
X32167057Y-63938009D01*
X32177830Y-63821746D01*
X32203616Y-63756810D01*
X32248170Y-63724893D01*
X32211798Y-63704030D01*
X32179608Y-63642017D01*
X32177830Y-63629650D01*
X32172270Y-63569650D01*
X32167057Y-63513389D01*
X32108706Y-63308310D01*
X32108704Y-63308305D01*
X32108704Y-63308304D01*
X32013668Y-63117445D01*
X31885173Y-62947292D01*
X31757434Y-62830842D01*
X31727603Y-62803647D01*
X31546320Y-62691401D01*
X31546318Y-62691400D01*
X31407618Y-62637668D01*
X31347499Y-62614378D01*
X31137911Y-62575199D01*
X30924691Y-62575199D01*
X30715103Y-62614378D01*
X30715100Y-62614378D01*
X30715100Y-62614379D01*
X30516283Y-62691400D01*
X30516281Y-62691401D01*
X30335000Y-62803646D01*
X30177428Y-62947292D01*
X30048933Y-63117445D01*
X29953897Y-63308304D01*
X29953897Y-63308306D01*
X29895545Y-63513388D01*
X29883928Y-63638764D01*
X29875872Y-63725699D01*
X29895545Y-63938009D01*
X29947171Y-64119454D01*
X29953897Y-64143091D01*
X29953897Y-64143093D01*
X30048933Y-64333952D01*
X30131401Y-64443156D01*
X30177429Y-64504106D01*
X30334999Y-64647751D01*
X30516282Y-64759997D01*
X30715103Y-64837020D01*
X30911914Y-64873810D01*
X30974194Y-64905478D01*
X31009467Y-64965791D01*
X31006533Y-65035599D01*
X30966324Y-65092739D01*
X30911914Y-65117587D01*
X30715103Y-65154378D01*
X30715100Y-65154378D01*
X30715100Y-65154379D01*
X30516283Y-65231400D01*
X30516281Y-65231401D01*
X30335000Y-65343646D01*
X30177428Y-65487292D01*
X30048933Y-65657445D01*
X29953897Y-65848304D01*
X29953897Y-65848306D01*
X29895545Y-66053388D01*
X29875872Y-66265698D01*
X29875872Y-66265699D01*
X29895545Y-66478009D01*
X29953897Y-66683091D01*
X29953897Y-66683093D01*
X30048933Y-66873952D01*
X30129538Y-66980689D01*
X30177429Y-67044106D01*
X30334999Y-67187751D01*
X30516282Y-67299997D01*
X30715103Y-67377020D01*
X30911914Y-67413810D01*
X30974194Y-67445478D01*
X31009467Y-67505791D01*
X31006533Y-67575599D01*
X30966324Y-67632739D01*
X30911914Y-67657587D01*
X30715103Y-67694378D01*
X30715100Y-67694378D01*
X30715100Y-67694379D01*
X30516283Y-67771400D01*
X30516281Y-67771401D01*
X30335000Y-67883646D01*
X30177428Y-68027292D01*
X30048933Y-68197445D01*
X29953897Y-68388304D01*
X29953897Y-68388306D01*
X29895545Y-68593388D01*
X29875872Y-68805698D01*
X29875872Y-68805699D01*
X29383500Y-68805699D01*
X29383500Y-60838856D01*
X29964500Y-60838856D01*
X29964502Y-60838882D01*
X29967413Y-60863987D01*
X29967415Y-60863991D01*
X30012793Y-60966764D01*
X30012794Y-60966765D01*
X30092235Y-61046206D01*
X30195009Y-61091585D01*
X30220135Y-61094500D01*
X32009864Y-61094499D01*
X32009879Y-61094497D01*
X32009882Y-61094497D01*
X32034987Y-61091586D01*
X32034988Y-61091585D01*
X32034991Y-61091585D01*
X32137765Y-61046206D01*
X32217206Y-60966765D01*
X32262585Y-60863991D01*
X32265500Y-60838865D01*
X32265499Y-60100046D01*
X32285183Y-60033009D01*
X32337987Y-59987254D01*
X32407146Y-59977310D01*
X32470702Y-60006335D01*
X32508476Y-60065113D01*
X32512970Y-60088606D01*
X32519244Y-60156310D01*
X32577596Y-60361392D01*
X32577596Y-60361394D01*
X32672632Y-60552253D01*
X32772318Y-60684257D01*
X32801128Y-60722407D01*
X32958698Y-60866052D01*
X33139981Y-60978298D01*
X33338802Y-61055321D01*
X33548390Y-61094500D01*
X33548392Y-61094500D01*
X33761608Y-61094500D01*
X33761610Y-61094500D01*
X33971198Y-61055321D01*
X34170019Y-60978298D01*
X34351302Y-60866052D01*
X34508872Y-60722407D01*
X34637366Y-60552255D01*
X34638596Y-60549785D01*
X34732403Y-60361394D01*
X34732403Y-60361393D01*
X34732405Y-60361389D01*
X34790756Y-60156310D01*
X34801529Y-60040047D01*
X34827315Y-59975111D01*
X34869622Y-59944804D01*
X34978130Y-59944804D01*
X35014503Y-59965668D01*
X35046693Y-60027681D01*
X35048471Y-60040048D01*
X35059244Y-60156310D01*
X35117596Y-60361392D01*
X35117596Y-60361394D01*
X35212632Y-60552253D01*
X35312318Y-60684257D01*
X35341128Y-60722407D01*
X35498698Y-60866052D01*
X35679981Y-60978298D01*
X35878802Y-61055321D01*
X36088390Y-61094500D01*
X36088392Y-61094500D01*
X36301608Y-61094500D01*
X36301610Y-61094500D01*
X36511198Y-61055321D01*
X36710019Y-60978298D01*
X36891302Y-60866052D01*
X37048872Y-60722407D01*
X37177366Y-60552255D01*
X37178596Y-60549785D01*
X37272403Y-60361394D01*
X37272403Y-60361393D01*
X37272405Y-60361389D01*
X37330756Y-60156310D01*
X37341529Y-60040047D01*
X37367315Y-59975111D01*
X37409622Y-59944804D01*
X37518130Y-59944804D01*
X37554503Y-59965668D01*
X37586693Y-60027681D01*
X37588471Y-60040048D01*
X37599244Y-60156310D01*
X37657596Y-60361392D01*
X37657596Y-60361394D01*
X37752632Y-60552253D01*
X37852318Y-60684257D01*
X37881128Y-60722407D01*
X38038698Y-60866052D01*
X38219981Y-60978298D01*
X38418802Y-61055321D01*
X38628390Y-61094500D01*
X38628392Y-61094500D01*
X38841608Y-61094500D01*
X38841610Y-61094500D01*
X39051198Y-61055321D01*
X39250019Y-60978298D01*
X39431302Y-60866052D01*
X39588872Y-60722407D01*
X39717366Y-60552255D01*
X39718596Y-60549785D01*
X39812403Y-60361394D01*
X39812403Y-60361393D01*
X39812405Y-60361389D01*
X39870756Y-60156310D01*
X39878198Y-60076000D01*
X41267571Y-60076000D01*
X41287244Y-60288310D01*
X41345596Y-60493392D01*
X41345596Y-60493394D01*
X41440632Y-60684253D01*
X41557384Y-60838856D01*
X41569128Y-60854407D01*
X41726698Y-60998052D01*
X41907981Y-61110298D01*
X42106802Y-61187321D01*
X42279544Y-61219612D01*
X42341823Y-61251279D01*
X42377096Y-61311591D01*
X42374162Y-61381400D01*
X42333953Y-61438540D01*
X42269235Y-61464871D01*
X42256757Y-61465500D01*
X41528143Y-61465500D01*
X41528117Y-61465502D01*
X41503012Y-61468413D01*
X41503008Y-61468415D01*
X41400235Y-61513793D01*
X41320794Y-61593234D01*
X41275415Y-61696006D01*
X41275415Y-61696008D01*
X41272500Y-61721131D01*
X41272500Y-63510856D01*
X41272502Y-63510882D01*
X41275413Y-63535987D01*
X41275415Y-63535991D01*
X41320793Y-63638764D01*
X41320794Y-63638765D01*
X41400235Y-63718206D01*
X41503009Y-63763585D01*
X41528135Y-63766500D01*
X43317864Y-63766499D01*
X43317879Y-63766497D01*
X43317882Y-63766497D01*
X43342987Y-63763586D01*
X43342988Y-63763585D01*
X43342991Y-63763585D01*
X43445765Y-63718206D01*
X43525206Y-63638765D01*
X43570585Y-63535991D01*
X43573500Y-63510865D01*
X43573499Y-62772046D01*
X43593183Y-62705009D01*
X43645987Y-62659254D01*
X43715146Y-62649310D01*
X43778702Y-62678335D01*
X43816476Y-62737113D01*
X43820970Y-62760606D01*
X43827244Y-62828310D01*
X43885596Y-63033392D01*
X43885596Y-63033394D01*
X43980632Y-63224253D01*
X44109127Y-63394406D01*
X44109128Y-63394407D01*
X44266698Y-63538052D01*
X44447981Y-63650298D01*
X44566559Y-63696235D01*
X44621960Y-63738806D01*
X44645551Y-63804573D01*
X44629840Y-63872654D01*
X44603993Y-63904675D01*
X44556818Y-63946468D01*
X44460182Y-64086468D01*
X44399860Y-64245525D01*
X44399859Y-64245530D01*
X44379355Y-64414400D01*
X44399859Y-64583269D01*
X44399860Y-64583274D01*
X44460182Y-64742331D01*
X44514346Y-64820800D01*
X44556817Y-64882329D01*
X44662505Y-64975960D01*
X44684150Y-64995136D01*
X44832820Y-65073164D01*
X44834775Y-65074190D01*
X44999944Y-65114900D01*
X45170056Y-65114900D01*
X45335225Y-65074190D01*
X45427791Y-65025607D01*
X45485849Y-64995136D01*
X45485850Y-64995134D01*
X45485852Y-64995134D01*
X45613183Y-64882329D01*
X45709818Y-64742330D01*
X45770140Y-64583272D01*
X45790645Y-64414400D01*
X45770140Y-64245528D01*
X45768067Y-64240063D01*
X45722327Y-64119454D01*
X45709818Y-64086470D01*
X45613183Y-63946471D01*
X45613180Y-63946468D01*
X45485539Y-63833388D01*
X45448412Y-63774199D01*
X45449180Y-63704334D01*
X45487597Y-63645974D01*
X45502481Y-63635151D01*
X45659302Y-63538052D01*
X45816872Y-63394407D01*
X45945366Y-63224255D01*
X45999270Y-63116000D01*
X46040403Y-63033394D01*
X46040403Y-63033393D01*
X46040405Y-63033389D01*
X46098756Y-62828310D01*
X46109529Y-62712047D01*
X46135315Y-62647111D01*
X46177622Y-62616804D01*
X46286130Y-62616804D01*
X46322503Y-62637668D01*
X46354693Y-62699681D01*
X46356471Y-62712048D01*
X46367244Y-62828310D01*
X46425596Y-63033392D01*
X46425596Y-63033394D01*
X46520632Y-63224253D01*
X46649127Y-63394406D01*
X46649128Y-63394407D01*
X46806698Y-63538052D01*
X46957625Y-63631502D01*
X47004260Y-63683530D01*
X47015364Y-63752512D01*
X46987411Y-63816546D01*
X46974574Y-63829744D01*
X46842818Y-63946469D01*
X46746182Y-64086468D01*
X46685860Y-64245525D01*
X46685859Y-64245530D01*
X46665355Y-64414400D01*
X46685859Y-64583269D01*
X46685860Y-64583274D01*
X46746182Y-64742331D01*
X46800346Y-64820800D01*
X46842817Y-64882329D01*
X46948505Y-64975960D01*
X46970150Y-64995136D01*
X47118820Y-65073164D01*
X47120775Y-65074190D01*
X47285944Y-65114900D01*
X47456056Y-65114900D01*
X47621225Y-65074190D01*
X47713791Y-65025607D01*
X47771849Y-64995136D01*
X47771850Y-64995134D01*
X47771852Y-64995134D01*
X47899183Y-64882329D01*
X47995818Y-64742330D01*
X48056140Y-64583272D01*
X48076645Y-64414400D01*
X48056140Y-64245528D01*
X48054067Y-64240063D01*
X48008327Y-64119454D01*
X47995818Y-64086470D01*
X47899183Y-63946471D01*
X47899180Y-63946468D01*
X47855050Y-63907372D01*
X47817923Y-63848183D01*
X47818691Y-63778317D01*
X47857109Y-63719958D01*
X47892480Y-63698931D01*
X48018019Y-63650298D01*
X48199302Y-63538052D01*
X48356872Y-63394407D01*
X48485366Y-63224255D01*
X48552325Y-63089781D01*
X48599825Y-63038548D01*
X48667488Y-63021126D01*
X48733828Y-63043051D01*
X48775705Y-63092651D01*
X48869399Y-63293578D01*
X49004894Y-63487082D01*
X49171917Y-63654105D01*
X49365421Y-63789600D01*
X49567687Y-63883918D01*
X49620126Y-63930090D01*
X49639278Y-63997284D01*
X49619062Y-64064165D01*
X49565897Y-64109499D01*
X49515282Y-64120300D01*
X49444944Y-64120300D01*
X49279773Y-64161010D01*
X49129150Y-64240063D01*
X49001816Y-64352872D01*
X48905182Y-64492868D01*
X48844860Y-64651925D01*
X48844859Y-64651930D01*
X48824355Y-64820800D01*
X48844859Y-64989669D01*
X48844860Y-64989674D01*
X48905182Y-65148731D01*
X48915372Y-65163493D01*
X49001817Y-65288729D01*
X49094490Y-65370830D01*
X49129150Y-65401536D01*
X49279773Y-65480589D01*
X49279775Y-65480590D01*
X49444944Y-65521300D01*
X49615056Y-65521300D01*
X49780225Y-65480590D01*
X49859692Y-65438881D01*
X49930849Y-65401536D01*
X49930850Y-65401534D01*
X49930852Y-65401534D01*
X50058183Y-65288729D01*
X50154818Y-65148730D01*
X50215140Y-64989672D01*
X50235645Y-64820800D01*
X50215140Y-64651928D01*
X50203246Y-64620567D01*
X50154817Y-64492868D01*
X50120476Y-64443118D01*
X50058183Y-64352871D01*
X49930852Y-64240066D01*
X49930850Y-64240065D01*
X49930849Y-64240064D01*
X49793616Y-64168038D01*
X49743404Y-64119454D01*
X49727429Y-64051435D01*
X49750764Y-63985577D01*
X49775756Y-63959866D01*
X49793000Y-63946634D01*
X49793000Y-63051501D01*
X49900685Y-63100680D01*
X50007237Y-63116000D01*
X50078763Y-63116000D01*
X50185315Y-63100680D01*
X50293000Y-63051501D01*
X50293000Y-63946633D01*
X50506483Y-63889433D01*
X50506492Y-63889429D01*
X50720578Y-63789600D01*
X50914082Y-63654105D01*
X51081105Y-63487082D01*
X51216600Y-63293578D01*
X51310294Y-63092651D01*
X51356466Y-63040212D01*
X51423660Y-63021060D01*
X51490541Y-63041276D01*
X51533676Y-63089785D01*
X51600632Y-63224253D01*
X51729127Y-63394406D01*
X51729128Y-63394407D01*
X51886698Y-63538052D01*
X52067981Y-63650298D01*
X52266802Y-63727321D01*
X52476390Y-63766500D01*
X52476392Y-63766500D01*
X52689608Y-63766500D01*
X52689610Y-63766500D01*
X52899198Y-63727321D01*
X53098019Y-63650298D01*
X53279302Y-63538052D01*
X53436872Y-63394407D01*
X53565366Y-63224255D01*
X53619270Y-63116000D01*
X53660403Y-63033394D01*
X53660403Y-63033393D01*
X53660405Y-63033389D01*
X53718756Y-62828310D01*
X53738429Y-62616000D01*
X53718756Y-62403690D01*
X53660405Y-62198611D01*
X53660403Y-62198606D01*
X53660403Y-62198605D01*
X53565367Y-62007746D01*
X53436872Y-61837593D01*
X53279302Y-61693948D01*
X53098019Y-61581702D01*
X53098017Y-61581701D01*
X52998608Y-61543190D01*
X52899198Y-61504679D01*
X52702385Y-61467888D01*
X52640106Y-61436221D01*
X52604833Y-61375908D01*
X52607767Y-61306100D01*
X52647976Y-61248960D01*
X52702384Y-61224111D01*
X52899198Y-61187321D01*
X53098019Y-61110298D01*
X53279302Y-60998052D01*
X53436872Y-60854407D01*
X53565366Y-60684255D01*
X53619270Y-60576000D01*
X53660403Y-60493394D01*
X53660403Y-60493393D01*
X53660405Y-60493389D01*
X53718756Y-60288310D01*
X53738429Y-60076000D01*
X53718756Y-59863690D01*
X53660405Y-59658611D01*
X53660403Y-59658606D01*
X53660403Y-59658605D01*
X53565367Y-59467746D01*
X53436872Y-59297593D01*
X53279302Y-59153948D01*
X53098019Y-59041702D01*
X53098017Y-59041701D01*
X52998608Y-59003190D01*
X52899198Y-58964679D01*
X52689610Y-58925500D01*
X52476390Y-58925500D01*
X52266802Y-58964679D01*
X52266799Y-58964679D01*
X52266799Y-58964680D01*
X52067982Y-59041701D01*
X52067980Y-59041702D01*
X51886699Y-59153947D01*
X51729127Y-59297593D01*
X51600634Y-59467744D01*
X51533676Y-59602215D01*
X51486173Y-59653452D01*
X51418510Y-59670873D01*
X51352170Y-59648947D01*
X51310294Y-59599348D01*
X51216600Y-59398422D01*
X51216599Y-59398420D01*
X51081113Y-59204926D01*
X51081108Y-59204920D01*
X50914082Y-59037894D01*
X50720578Y-58902399D01*
X50506492Y-58802570D01*
X50506486Y-58802567D01*
X50293000Y-58745364D01*
X50293000Y-59640498D01*
X50185315Y-59591320D01*
X50078763Y-59576000D01*
X50007237Y-59576000D01*
X49900685Y-59591320D01*
X49793000Y-59640498D01*
X49793000Y-58745364D01*
X49792999Y-58745364D01*
X49579513Y-58802567D01*
X49579507Y-58802570D01*
X49365422Y-58902399D01*
X49365420Y-58902400D01*
X49171926Y-59037886D01*
X49171920Y-59037891D01*
X49004891Y-59204920D01*
X49004886Y-59204926D01*
X48869400Y-59398420D01*
X48869399Y-59398422D01*
X48775705Y-59599348D01*
X48729532Y-59651787D01*
X48662339Y-59670939D01*
X48595457Y-59650723D01*
X48552323Y-59602215D01*
X48485366Y-59467745D01*
X48356872Y-59297593D01*
X48199302Y-59153948D01*
X48018019Y-59041702D01*
X48018017Y-59041701D01*
X47918608Y-59003190D01*
X47819198Y-58964679D01*
X47609610Y-58925500D01*
X47396390Y-58925500D01*
X47186802Y-58964679D01*
X47186799Y-58964679D01*
X47186799Y-58964680D01*
X46987982Y-59041701D01*
X46987980Y-59041702D01*
X46806699Y-59153947D01*
X46649127Y-59297593D01*
X46520632Y-59467746D01*
X46425596Y-59658605D01*
X46425596Y-59658607D01*
X46367244Y-59863689D01*
X46356471Y-59979951D01*
X46330685Y-60044888D01*
X46286130Y-60076804D01*
X46322503Y-60097668D01*
X46354693Y-60159681D01*
X46356471Y-60172048D01*
X46367244Y-60288310D01*
X46425596Y-60493392D01*
X46425596Y-60493394D01*
X46520632Y-60684253D01*
X46637384Y-60838856D01*
X46649128Y-60854407D01*
X46806698Y-60998052D01*
X46987981Y-61110298D01*
X47186802Y-61187321D01*
X47383613Y-61224111D01*
X47445893Y-61255779D01*
X47481166Y-61316092D01*
X47478232Y-61385900D01*
X47438023Y-61443040D01*
X47383613Y-61467888D01*
X47186802Y-61504679D01*
X47186799Y-61504679D01*
X47186799Y-61504680D01*
X46987982Y-61581701D01*
X46987980Y-61581702D01*
X46806699Y-61693947D01*
X46649127Y-61837593D01*
X46520632Y-62007746D01*
X46425596Y-62198605D01*
X46425596Y-62198607D01*
X46367244Y-62403689D01*
X46356471Y-62519951D01*
X46330685Y-62584888D01*
X46286130Y-62616804D01*
X46177622Y-62616804D01*
X46179869Y-62615194D01*
X46143497Y-62594331D01*
X46111307Y-62532318D01*
X46109529Y-62519951D01*
X46106175Y-62483759D01*
X46098756Y-62403690D01*
X46040405Y-62198611D01*
X46040403Y-62198606D01*
X46040403Y-62198605D01*
X45945367Y-62007746D01*
X45816872Y-61837593D01*
X45659302Y-61693948D01*
X45478019Y-61581702D01*
X45478017Y-61581701D01*
X45378608Y-61543190D01*
X45279198Y-61504679D01*
X45082385Y-61467888D01*
X45020106Y-61436221D01*
X44984833Y-61375908D01*
X44987767Y-61306100D01*
X45027976Y-61248960D01*
X45082384Y-61224111D01*
X45279198Y-61187321D01*
X45478019Y-61110298D01*
X45659302Y-60998052D01*
X45816872Y-60854407D01*
X45945366Y-60684255D01*
X45999270Y-60576000D01*
X46040403Y-60493394D01*
X46040403Y-60493393D01*
X46040405Y-60493389D01*
X46098756Y-60288310D01*
X46109529Y-60172047D01*
X46135315Y-60107111D01*
X46179869Y-60075194D01*
X46143497Y-60054331D01*
X46111307Y-59992318D01*
X46109529Y-59979951D01*
X46106272Y-59944804D01*
X46098756Y-59863690D01*
X46040405Y-59658611D01*
X46040403Y-59658606D01*
X46040403Y-59658605D01*
X45945367Y-59467746D01*
X45816872Y-59297593D01*
X45659302Y-59153948D01*
X45478019Y-59041702D01*
X45478017Y-59041701D01*
X45378608Y-59003190D01*
X45279198Y-58964679D01*
X45069610Y-58925500D01*
X44856390Y-58925500D01*
X44646802Y-58964679D01*
X44646799Y-58964679D01*
X44646799Y-58964680D01*
X44447982Y-59041701D01*
X44447980Y-59041702D01*
X44266699Y-59153947D01*
X44109127Y-59297593D01*
X43980632Y-59467746D01*
X43885596Y-59658605D01*
X43885596Y-59658607D01*
X43827244Y-59863689D01*
X43816471Y-59979951D01*
X43790685Y-60044888D01*
X43746130Y-60076804D01*
X43782503Y-60097668D01*
X43814693Y-60159681D01*
X43816471Y-60172048D01*
X43827244Y-60288310D01*
X43885596Y-60493392D01*
X43885596Y-60493394D01*
X43980632Y-60684253D01*
X44097384Y-60838856D01*
X44109128Y-60854407D01*
X44266698Y-60998052D01*
X44447981Y-61110298D01*
X44646802Y-61187321D01*
X44843613Y-61224111D01*
X44905893Y-61255779D01*
X44941166Y-61316092D01*
X44938232Y-61385900D01*
X44898023Y-61443040D01*
X44843613Y-61467888D01*
X44646802Y-61504679D01*
X44646799Y-61504679D01*
X44646799Y-61504680D01*
X44447982Y-61581701D01*
X44447980Y-61581702D01*
X44266699Y-61693947D01*
X44109127Y-61837593D01*
X43980632Y-62007746D01*
X43885596Y-62198605D01*
X43885596Y-62198607D01*
X43827244Y-62403689D01*
X43820970Y-62471394D01*
X43795183Y-62536331D01*
X43738383Y-62577018D01*
X43668602Y-62580538D01*
X43607995Y-62545772D01*
X43575806Y-62483759D01*
X43573499Y-62459952D01*
X43573499Y-61721143D01*
X43573499Y-61721136D01*
X43573497Y-61721117D01*
X43570586Y-61696012D01*
X43570585Y-61696010D01*
X43570585Y-61696009D01*
X43525206Y-61593235D01*
X43445765Y-61513794D01*
X43425124Y-61504680D01*
X43342992Y-61468415D01*
X43317868Y-61465500D01*
X42589243Y-61465500D01*
X42522204Y-61445815D01*
X42476449Y-61393011D01*
X42466505Y-61323853D01*
X42495530Y-61260297D01*
X42554308Y-61222523D01*
X42566441Y-61219614D01*
X42739198Y-61187321D01*
X42938019Y-61110298D01*
X43119302Y-60998052D01*
X43276872Y-60854407D01*
X43405366Y-60684255D01*
X43459270Y-60576000D01*
X43500403Y-60493394D01*
X43500403Y-60493393D01*
X43500405Y-60493389D01*
X43558756Y-60288310D01*
X43569529Y-60172047D01*
X43595315Y-60107111D01*
X43639869Y-60075194D01*
X43603497Y-60054331D01*
X43571307Y-59992318D01*
X43569529Y-59979951D01*
X43566272Y-59944804D01*
X43558756Y-59863690D01*
X43500405Y-59658611D01*
X43500403Y-59658606D01*
X43500403Y-59658605D01*
X43405367Y-59467746D01*
X43276872Y-59297593D01*
X43119302Y-59153948D01*
X42938019Y-59041702D01*
X42938017Y-59041701D01*
X42838608Y-59003190D01*
X42739198Y-58964679D01*
X42529610Y-58925500D01*
X42316390Y-58925500D01*
X42106802Y-58964679D01*
X42106799Y-58964679D01*
X42106799Y-58964680D01*
X41907982Y-59041701D01*
X41907980Y-59041702D01*
X41726699Y-59153947D01*
X41569127Y-59297593D01*
X41440632Y-59467746D01*
X41345596Y-59658605D01*
X41345596Y-59658607D01*
X41287244Y-59863689D01*
X41267571Y-60075999D01*
X41267571Y-60076000D01*
X39878198Y-60076000D01*
X39890429Y-59944000D01*
X39870756Y-59731690D01*
X39812405Y-59526611D01*
X39812403Y-59526606D01*
X39812403Y-59526605D01*
X39717367Y-59335746D01*
X39588872Y-59165593D01*
X39461133Y-59049143D01*
X39431302Y-59021948D01*
X39250019Y-58909702D01*
X39250017Y-58909701D01*
X39150608Y-58871190D01*
X39051198Y-58832679D01*
X38841610Y-58793500D01*
X38628390Y-58793500D01*
X38418802Y-58832679D01*
X38418799Y-58832679D01*
X38418799Y-58832680D01*
X38219982Y-58909701D01*
X38219980Y-58909702D01*
X38038699Y-59021947D01*
X37881127Y-59165593D01*
X37752632Y-59335746D01*
X37657596Y-59526605D01*
X37657596Y-59526607D01*
X37599244Y-59731689D01*
X37588471Y-59847951D01*
X37562685Y-59912888D01*
X37518130Y-59944804D01*
X37409622Y-59944804D01*
X37411869Y-59943194D01*
X37375497Y-59922331D01*
X37343307Y-59860318D01*
X37341529Y-59847951D01*
X37338175Y-59811759D01*
X37330756Y-59731690D01*
X37272405Y-59526611D01*
X37272403Y-59526606D01*
X37272403Y-59526605D01*
X37177367Y-59335746D01*
X37048872Y-59165593D01*
X36921133Y-59049143D01*
X36891302Y-59021948D01*
X36710019Y-58909702D01*
X36710017Y-58909701D01*
X36610608Y-58871190D01*
X36511198Y-58832679D01*
X36301610Y-58793500D01*
X36088390Y-58793500D01*
X35878802Y-58832679D01*
X35878799Y-58832679D01*
X35878799Y-58832680D01*
X35679982Y-58909701D01*
X35679980Y-58909702D01*
X35498699Y-59021947D01*
X35341127Y-59165593D01*
X35212632Y-59335746D01*
X35117596Y-59526605D01*
X35117596Y-59526607D01*
X35059244Y-59731689D01*
X35048471Y-59847951D01*
X35022685Y-59912888D01*
X34978130Y-59944804D01*
X34869622Y-59944804D01*
X34871869Y-59943194D01*
X34835497Y-59922331D01*
X34803307Y-59860318D01*
X34801529Y-59847951D01*
X34798175Y-59811759D01*
X34790756Y-59731690D01*
X34732405Y-59526611D01*
X34732403Y-59526606D01*
X34732403Y-59526605D01*
X34637367Y-59335746D01*
X34508872Y-59165593D01*
X34381133Y-59049143D01*
X34351302Y-59021948D01*
X34170019Y-58909702D01*
X34170017Y-58909701D01*
X34070608Y-58871190D01*
X33971198Y-58832679D01*
X33761610Y-58793500D01*
X33548390Y-58793500D01*
X33338802Y-58832679D01*
X33338799Y-58832679D01*
X33338799Y-58832680D01*
X33139982Y-58909701D01*
X33139980Y-58909702D01*
X32958699Y-59021947D01*
X32801127Y-59165593D01*
X32672632Y-59335746D01*
X32577596Y-59526605D01*
X32577596Y-59526607D01*
X32519244Y-59731689D01*
X32512970Y-59799394D01*
X32487183Y-59864331D01*
X32430383Y-59905018D01*
X32360602Y-59908538D01*
X32299995Y-59873772D01*
X32267806Y-59811759D01*
X32265499Y-59787952D01*
X32265499Y-59049143D01*
X32265499Y-59049136D01*
X32264637Y-59041701D01*
X32262586Y-59024012D01*
X32262585Y-59024010D01*
X32262585Y-59024009D01*
X32217206Y-58921235D01*
X32137765Y-58841794D01*
X32117124Y-58832680D01*
X32034992Y-58796415D01*
X32009865Y-58793500D01*
X30220143Y-58793500D01*
X30220117Y-58793502D01*
X30195012Y-58796413D01*
X30195008Y-58796415D01*
X30092235Y-58841793D01*
X30012794Y-58921234D01*
X29967415Y-59024006D01*
X29967415Y-59024008D01*
X29964500Y-59049131D01*
X29964500Y-60838856D01*
X29383500Y-60838856D01*
X29383500Y-58463500D01*
X29403185Y-58396461D01*
X29455989Y-58350706D01*
X29507500Y-58339500D01*
X62186500Y-58339500D01*
X62253539Y-58359185D01*
G37*
G04 #@! TD.AperFunction*
M02*
